M48
; DRILL file {KiCad 9.0.6} date 2026-02-28T15:55:23-0500
; FORMAT={-:-/ absolute / metric / decimal}
; #@! TF.CreationDate,2026-02-28T15:55:23-05:00
; #@! TF.GenerationSoftware,Kicad,Pcbnew,9.0.6
; #@! TF.FileFunction,Plated,1,4,PTH
FMAT,2
METRIC
; #@! TA.AperFunction,Plated,PTH,ViaDrill
T1C0.300
; #@! TA.AperFunction,Plated,PTH,ComponentDrill
T2C0.350
; #@! TA.AperFunction,Plated,PTH,ComponentDrill
T3C0.559
; #@! TA.AperFunction,Plated,PTH,ComponentDrill
T4C0.610
; #@! TA.AperFunction,Plated,PTH,ComponentDrill
T5C1.000
; #@! TA.AperFunction,Plated,PTH,ComponentDrill
T6C1.680
%
G90
G05
T1
X74.0Y-78.75
X74.95Y-67.3
X75.0Y-74.05
X75.0Y-76.75
X75.255Y-71.185
X77.0Y-72.75
X77.04Y-56.19
X77.4Y-58.0
X77.8Y-63.5
X78.12Y-65.89
X78.75Y-77.0
X78.9Y-58.5
X78.95Y-60.4
X81.5Y-56.14
X82.67Y-51.96
X82.83Y-54.07
X82.94Y-56.39
X84.2Y-62.2
X84.75Y-65.4
X85.6Y-59.85
X85.8Y-84.35
X87.0Y-62.05
X88.2Y-59.4
X88.5Y-76.0
X89.75Y-91.25
X89.8Y-82.4
X90.6Y-82.4
X90.8Y-54.6
X90.8Y-79.8
X91.4Y-82.4
X92.0Y-65.6
X92.4Y-82.4
X92.4Y-83.4
X92.6Y-85.6
X92.8Y-86.4
X93.0Y-92.4
X93.6Y-82.4
X93.8Y-92.4
X94.0Y-79.8
X94.0Y-85.8
X94.0Y-86.4
X94.2Y-91.0
X94.2Y-91.8
X94.4Y-87.2
X94.6Y-89.0
X94.6Y-90.4
X94.75Y-92.5
X94.8Y-82.4
X95.2Y-90.8
X95.5Y-92.5
X95.8Y-79.8
X96.2Y-82.4
X96.525Y-90.4
X96.55Y-89.6
X97.0Y-71.45
X97.25Y-90.4
X97.275Y-89.6
X97.6Y-82.4
X98.125Y-89.6
X98.125Y-90.375
X98.4Y-75.2
X99.25Y-92.25
X100.0Y-79.6
X100.0Y-92.0
X101.5Y-79.15
X101.5Y-84.35
X104.25Y-86.75
X104.25Y-90.0
X105.4Y-53.2
X105.5Y-86.25
X105.6Y-54.2
X108.25Y-56.9
X108.3Y-68.2
X108.4Y-51.55
X108.4Y-63.1
X108.45Y-55.55
X109.355Y-66.661
X109.5Y-54.25
X109.65Y-58.4
X109.76Y-67.84
X109.8Y-84.05
X109.85Y-70.1
X110.0Y-86.3
X111.05Y-86.3
X113.1Y-94.6
X113.15Y-56.05
X114.4Y-67.45
X114.5Y-52.8
X114.5Y-57.45
X114.6Y-69.7
X116.02Y-75.63
X116.05Y-77.81
X116.3Y-61.9
X116.6Y-87.425
X118.2Y-87.6
X118.55Y-51.4
X118.925Y-92.175
X119.25Y-95.0
X119.75Y-89.25
X121.33Y-75.84
X121.4Y-70.2
X121.41Y-77.87
X121.9Y-59.6
X122.7Y-68.7
X123.5Y-65.75
X123.5Y-67.9
X125.6Y-85.4
X126.65Y-57.4
T2
X95.2Y-58.7
X95.2Y-60.1
X95.9Y-58.0
X95.9Y-59.4
X95.9Y-60.8
X96.6Y-58.7
X96.6Y-60.1
X97.3Y-58.0
X97.3Y-59.4
X97.3Y-60.8
X98.0Y-58.7
X98.0Y-60.1
T3
X102.3Y-86.75
X102.3Y-88.0
X121.25Y-86.5
X122.5Y-86.5
X124.375Y-61.65
X125.625Y-61.65
T5
X91.515Y-94.3
X94.055Y-94.3
X96.595Y-94.3
X99.135Y-94.3
X125.6Y-66.325
X125.6Y-68.865
T6
X80.772Y-82.804
X80.772Y-87.504
X80.772Y-92.204
T4
X69.374Y-67.43G85X68.587Y-67.43
G05
X69.374Y-76.07G85X68.587Y-76.07
G05
X73.707Y-67.43G85X72.615Y-67.43
G05
X73.707Y-76.07G85X72.615Y-76.07
G05
M30
