G04 #@! TF.GenerationSoftware,KiCad,Pcbnew,9.0.6*
G04 #@! TF.CreationDate,2026-02-28T15:55:13-05:00*
G04 #@! TF.ProjectId,GoldenForm_1,476f6c64-656e-4466-9f72-6d5f312e6b69,rev?*
G04 #@! TF.SameCoordinates,Original*
G04 #@! TF.FileFunction,Copper,L2,Inr*
G04 #@! TF.FilePolarity,Positive*
%FSLAX46Y46*%
G04 Gerber Fmt 4.6, Leading zero omitted, Abs format (unit mm)*
G04 Created by KiCad (PCBNEW 9.0.6) date 2026-02-28 15:55:13*
%MOMM*%
%LPD*%
G01*
G04 APERTURE LIST*
G04 #@! TA.AperFunction,ComponentPad*
%ADD10R,2.520000X2.520000*%
G04 #@! TD*
G04 #@! TA.AperFunction,ComponentPad*
%ADD11C,2.520000*%
G04 #@! TD*
G04 #@! TA.AperFunction,ComponentPad*
%ADD12C,1.066800*%
G04 #@! TD*
G04 #@! TA.AperFunction,ComponentPad*
%ADD13R,1.700000X1.700000*%
G04 #@! TD*
G04 #@! TA.AperFunction,ComponentPad*
%ADD14C,1.700000*%
G04 #@! TD*
G04 #@! TA.AperFunction,HeatsinkPad*
%ADD15C,0.700000*%
G04 #@! TD*
G04 #@! TA.AperFunction,ComponentPad*
%ADD16O,1.803400X0.990600*%
G04 #@! TD*
G04 #@! TA.AperFunction,ComponentPad*
%ADD17O,2.108200X0.990600*%
G04 #@! TD*
G04 #@! TA.AperFunction,ViaPad*
%ADD18C,0.600000*%
G04 #@! TD*
G04 APERTURE END LIST*
D10*
X80772000Y-82804000D03*
D11*
X80772000Y-87504000D03*
X80772000Y-92204000D03*
D12*
X122500000Y-86500000D03*
X121250000Y-86500000D03*
X125624600Y-61649912D03*
X124374600Y-61649912D03*
D13*
X125600000Y-66325000D03*
D14*
X125600000Y-68865000D03*
D15*
X95200000Y-58700000D03*
X95200000Y-60100000D03*
X95900000Y-58000000D03*
X95900000Y-59400000D03*
X95900000Y-60800000D03*
X96600000Y-58700000D03*
X96600000Y-60100000D03*
X97300000Y-58000000D03*
X97300000Y-59400000D03*
X97300000Y-60800000D03*
X98000000Y-58700000D03*
X98000000Y-60100000D03*
D12*
X102299912Y-88000000D03*
X102299912Y-86750000D03*
D13*
X91515000Y-94300000D03*
D14*
X94055000Y-94300000D03*
X96595000Y-94300000D03*
X99135000Y-94300000D03*
D16*
X68980800Y-67429998D03*
D17*
X73160800Y-67429998D03*
X73160800Y-76070002D03*
D16*
X68980800Y-76070002D03*
D18*
X77040000Y-56190000D03*
X93600000Y-82400000D03*
X94000000Y-79800000D03*
X78950000Y-60400000D03*
X77800000Y-63500000D03*
X90600000Y-82400000D03*
X82670000Y-51960000D03*
X109850000Y-70100000D03*
X119750000Y-89250000D03*
X78750000Y-77000000D03*
X94600000Y-89000000D03*
X85600000Y-59850000D03*
X99250000Y-92250000D03*
X94800000Y-82400000D03*
X113150000Y-56050000D03*
X90800000Y-79800000D03*
X94400000Y-87200000D03*
X89800000Y-82400000D03*
X94000000Y-86400000D03*
X94200000Y-91000000D03*
X96200000Y-82400000D03*
X108400000Y-51550000D03*
X74950000Y-67300000D03*
X92400000Y-82400000D03*
X116020000Y-75630000D03*
X116600000Y-87425000D03*
X78120000Y-65890000D03*
X93800000Y-92400000D03*
X92600000Y-85600000D03*
X95200000Y-90800000D03*
X74000000Y-78750000D03*
X91400000Y-82400000D03*
X97600000Y-82400000D03*
X92800000Y-86400000D03*
X109760000Y-67840000D03*
X122700000Y-68700000D03*
X104250000Y-86750000D03*
X75254999Y-71185000D03*
X92400000Y-83400000D03*
X121330000Y-75840000D03*
X94000000Y-85800000D03*
X94600000Y-90400000D03*
X125600000Y-85400000D03*
X75000000Y-76750000D03*
X100000000Y-92000000D03*
X94750000Y-92500000D03*
X110000000Y-86300000D03*
X78900000Y-58500000D03*
X101500000Y-84350000D03*
X93000000Y-92400000D03*
X95500000Y-92500000D03*
X89750000Y-91250000D03*
X121900000Y-59600000D03*
X118550000Y-51400000D03*
X94200000Y-91800000D03*
X109650000Y-58400000D03*
X121400000Y-70200000D03*
X108400000Y-63100000D03*
X100000000Y-79600000D03*
X105600000Y-54200000D03*
X84200000Y-62200000D03*
X88200000Y-59400000D03*
X92000000Y-65600000D03*
X98400000Y-75200000D03*
X95800000Y-79800000D03*
X105400000Y-53200000D03*
X123500000Y-67900000D03*
X108250000Y-56900000D03*
X123500000Y-65750000D03*
X108450000Y-55550000D03*
X114400000Y-67450000D03*
X108300000Y-68200000D03*
X90800000Y-54600000D03*
X114500000Y-52800000D03*
X114500000Y-57450000D03*
X111050000Y-86300000D03*
X105500000Y-86250000D03*
X119250000Y-95000000D03*
X113100000Y-94600000D03*
X77000000Y-72750000D03*
X75000000Y-74050000D03*
X109800000Y-84050000D03*
X118200000Y-87600000D03*
X84750000Y-65400000D03*
X97000000Y-71450000D03*
X81500000Y-56140000D03*
X96525000Y-90400000D03*
X98125000Y-89600000D03*
X82830000Y-54070000D03*
X116300000Y-61900000D03*
X88500000Y-76000000D03*
X82940000Y-56390000D03*
X85800000Y-84350000D03*
X126650000Y-57400000D03*
X121410000Y-77870000D03*
X109354559Y-66660639D03*
X87000000Y-62050000D03*
X97275000Y-89600000D03*
X97250000Y-90400000D03*
X114600000Y-69700000D03*
X96550000Y-89600000D03*
X98125000Y-90375000D03*
X109500000Y-54250000D03*
X77400000Y-58000000D03*
X104250000Y-90000000D03*
X101500000Y-79150000D03*
X118925000Y-92175000D03*
X116050000Y-77810000D03*
G04 #@! TA.AperFunction,Conductor*
G36*
X126942539Y-50830185D02*
G01*
X126988294Y-50882989D01*
X126999500Y-50934500D01*
X126999500Y-56502242D01*
X126979815Y-56569281D01*
X126927011Y-56615036D01*
X126857853Y-56624980D01*
X126851309Y-56623859D01*
X126728846Y-56599500D01*
X126728842Y-56599500D01*
X126571158Y-56599500D01*
X126571155Y-56599500D01*
X126416510Y-56630261D01*
X126416498Y-56630264D01*
X126270827Y-56690602D01*
X126270814Y-56690609D01*
X126139711Y-56778210D01*
X126139707Y-56778213D01*
X126028213Y-56889707D01*
X126028210Y-56889711D01*
X125940609Y-57020814D01*
X125940602Y-57020827D01*
X125880264Y-57166498D01*
X125880261Y-57166510D01*
X125849500Y-57321153D01*
X125849500Y-57478846D01*
X125880261Y-57633489D01*
X125880264Y-57633501D01*
X125940602Y-57779172D01*
X125940609Y-57779185D01*
X126028210Y-57910288D01*
X126028213Y-57910292D01*
X126139707Y-58021786D01*
X126139711Y-58021789D01*
X126270814Y-58109390D01*
X126270827Y-58109397D01*
X126416498Y-58169735D01*
X126416503Y-58169737D01*
X126571153Y-58200499D01*
X126571156Y-58200500D01*
X126571158Y-58200500D01*
X126728844Y-58200500D01*
X126851308Y-58176140D01*
X126920900Y-58182367D01*
X126976077Y-58225230D01*
X126999322Y-58291120D01*
X126999500Y-58297757D01*
X126999500Y-65013428D01*
X126979815Y-65080467D01*
X126927011Y-65126222D01*
X126857853Y-65136166D01*
X126801189Y-65112695D01*
X126704890Y-65040606D01*
X126692331Y-65031204D01*
X126692329Y-65031203D01*
X126692328Y-65031202D01*
X126557482Y-64980908D01*
X126557483Y-64980908D01*
X126497883Y-64974501D01*
X126497881Y-64974500D01*
X126497873Y-64974500D01*
X126497864Y-64974500D01*
X124702129Y-64974500D01*
X124702123Y-64974501D01*
X124642516Y-64980908D01*
X124507671Y-65031202D01*
X124507664Y-65031206D01*
X124392455Y-65117452D01*
X124392452Y-65117455D01*
X124309997Y-65227601D01*
X124254063Y-65269472D01*
X124184372Y-65274456D01*
X124123050Y-65240971D01*
X124010292Y-65128213D01*
X124010288Y-65128210D01*
X123879185Y-65040609D01*
X123879172Y-65040602D01*
X123733501Y-64980264D01*
X123733489Y-64980261D01*
X123578845Y-64949500D01*
X123578842Y-64949500D01*
X123421158Y-64949500D01*
X123421155Y-64949500D01*
X123266510Y-64980261D01*
X123266498Y-64980264D01*
X123120827Y-65040602D01*
X123120814Y-65040609D01*
X122989711Y-65128210D01*
X122989707Y-65128213D01*
X122878213Y-65239707D01*
X122878210Y-65239711D01*
X122790609Y-65370814D01*
X122790602Y-65370827D01*
X122730264Y-65516498D01*
X122730261Y-65516510D01*
X122699500Y-65671153D01*
X122699500Y-65828846D01*
X122730261Y-65983489D01*
X122730264Y-65983501D01*
X122790602Y-66129172D01*
X122790609Y-66129185D01*
X122878210Y-66260288D01*
X122878213Y-66260292D01*
X122989707Y-66371786D01*
X122989711Y-66371789D01*
X123120814Y-66459390D01*
X123120827Y-66459397D01*
X123266498Y-66519735D01*
X123266503Y-66519737D01*
X123406227Y-66547530D01*
X123421153Y-66550499D01*
X123421156Y-66550500D01*
X123421158Y-66550500D01*
X123578844Y-66550500D01*
X123578845Y-66550499D01*
X123733497Y-66519737D01*
X123879179Y-66459394D01*
X124010289Y-66371789D01*
X124037819Y-66344258D01*
X124099140Y-66310774D01*
X124168832Y-66315758D01*
X124224766Y-66357628D01*
X124249184Y-66423092D01*
X124249500Y-66431940D01*
X124249500Y-67218059D01*
X124229815Y-67285098D01*
X124177011Y-67330853D01*
X124107853Y-67340797D01*
X124044297Y-67311772D01*
X124037819Y-67305740D01*
X124010292Y-67278213D01*
X124010288Y-67278210D01*
X123879185Y-67190609D01*
X123879172Y-67190602D01*
X123733501Y-67130264D01*
X123733489Y-67130261D01*
X123578845Y-67099500D01*
X123578842Y-67099500D01*
X123421158Y-67099500D01*
X123421155Y-67099500D01*
X123266510Y-67130261D01*
X123266498Y-67130264D01*
X123120827Y-67190602D01*
X123120814Y-67190609D01*
X122989711Y-67278210D01*
X122989707Y-67278213D01*
X122878213Y-67389707D01*
X122878210Y-67389711D01*
X122790609Y-67520814D01*
X122790602Y-67520827D01*
X122730264Y-67666498D01*
X122730261Y-67666510D01*
X122699500Y-67821153D01*
X122699500Y-67978846D01*
X122730261Y-68133489D01*
X122730264Y-68133501D01*
X122790602Y-68279172D01*
X122790609Y-68279185D01*
X122878210Y-68410288D01*
X122878213Y-68410292D01*
X122989707Y-68521786D01*
X122989711Y-68521789D01*
X123120814Y-68609390D01*
X123120827Y-68609397D01*
X123266498Y-68669735D01*
X123266503Y-68669737D01*
X123421153Y-68700499D01*
X123421156Y-68700500D01*
X123421158Y-68700500D01*
X123578844Y-68700500D01*
X123578845Y-68700499D01*
X123733497Y-68669737D01*
X123879179Y-68609394D01*
X124010289Y-68521789D01*
X124069250Y-68462827D01*
X124130571Y-68429344D01*
X124200263Y-68434328D01*
X124256197Y-68476199D01*
X124280614Y-68541663D01*
X124279403Y-68569907D01*
X124249500Y-68758712D01*
X124249500Y-68971286D01*
X124266435Y-69078213D01*
X124282754Y-69181243D01*
X124329359Y-69324679D01*
X124348444Y-69383414D01*
X124444951Y-69572820D01*
X124569890Y-69744786D01*
X124720213Y-69895109D01*
X124892179Y-70020048D01*
X124892181Y-70020049D01*
X124892184Y-70020051D01*
X125081588Y-70116557D01*
X125283757Y-70182246D01*
X125493713Y-70215500D01*
X125493714Y-70215500D01*
X125706286Y-70215500D01*
X125706287Y-70215500D01*
X125916243Y-70182246D01*
X126118412Y-70116557D01*
X126307816Y-70020051D01*
X126329789Y-70004086D01*
X126479786Y-69895109D01*
X126479788Y-69895106D01*
X126479792Y-69895104D01*
X126630104Y-69744792D01*
X126630106Y-69744788D01*
X126630109Y-69744786D01*
X126755050Y-69572817D01*
X126765015Y-69553261D01*
X126812989Y-69502464D01*
X126880810Y-69485669D01*
X126946945Y-69508206D01*
X126990397Y-69562921D01*
X126999500Y-69609555D01*
X126999500Y-95801500D01*
X126979815Y-95868539D01*
X126927011Y-95914294D01*
X126875500Y-95925500D01*
X119714528Y-95925500D01*
X119647489Y-95905815D01*
X119601734Y-95853011D01*
X119591790Y-95783853D01*
X119620815Y-95720297D01*
X119645637Y-95698398D01*
X119718068Y-95650000D01*
X119760289Y-95621789D01*
X119871789Y-95510289D01*
X119959394Y-95379179D01*
X120019737Y-95233497D01*
X120050500Y-95078842D01*
X120050500Y-94921158D01*
X120050500Y-94921155D01*
X120050499Y-94921153D01*
X120030062Y-94818412D01*
X120019737Y-94766503D01*
X119983427Y-94678842D01*
X119959397Y-94620827D01*
X119959390Y-94620814D01*
X119871789Y-94489711D01*
X119871786Y-94489707D01*
X119760292Y-94378213D01*
X119760288Y-94378210D01*
X119629185Y-94290609D01*
X119629172Y-94290602D01*
X119483501Y-94230264D01*
X119483489Y-94230261D01*
X119328845Y-94199500D01*
X119328842Y-94199500D01*
X119171158Y-94199500D01*
X119171155Y-94199500D01*
X119016510Y-94230261D01*
X119016498Y-94230264D01*
X118870827Y-94290602D01*
X118870814Y-94290609D01*
X118739711Y-94378210D01*
X118739707Y-94378213D01*
X118628213Y-94489707D01*
X118628210Y-94489711D01*
X118540609Y-94620814D01*
X118540602Y-94620827D01*
X118480264Y-94766498D01*
X118480261Y-94766510D01*
X118449500Y-94921153D01*
X118449500Y-95078846D01*
X118480261Y-95233489D01*
X118480264Y-95233501D01*
X118540602Y-95379172D01*
X118540609Y-95379185D01*
X118628210Y-95510288D01*
X118628213Y-95510292D01*
X118739707Y-95621786D01*
X118739711Y-95621789D01*
X118854363Y-95698398D01*
X118899168Y-95752010D01*
X118907875Y-95821335D01*
X118877720Y-95884363D01*
X118818277Y-95921082D01*
X118785472Y-95925500D01*
X67684500Y-95925500D01*
X67617461Y-95905815D01*
X67571706Y-95853011D01*
X67560500Y-95801500D01*
X67560500Y-91808711D01*
X70429500Y-91808711D01*
X70429500Y-92051288D01*
X70456166Y-92253846D01*
X70461162Y-92291789D01*
X70468559Y-92319396D01*
X70523947Y-92526104D01*
X70589884Y-92685289D01*
X70616776Y-92750212D01*
X70738064Y-92960289D01*
X70738066Y-92960292D01*
X70738067Y-92960293D01*
X70885733Y-93152736D01*
X70885739Y-93152743D01*
X71057256Y-93324260D01*
X71057263Y-93324266D01*
X71116942Y-93370059D01*
X71249711Y-93471936D01*
X71459788Y-93593224D01*
X71683900Y-93686054D01*
X71918211Y-93748838D01*
X72098586Y-93772584D01*
X72158711Y-93780500D01*
X72158712Y-93780500D01*
X72401289Y-93780500D01*
X72449388Y-93774167D01*
X72641789Y-93748838D01*
X72876100Y-93686054D01*
X73100212Y-93593224D01*
X73310289Y-93471936D01*
X73502738Y-93324265D01*
X73674265Y-93152738D01*
X73821936Y-92960289D01*
X73943224Y-92750212D01*
X74036054Y-92526100D01*
X74098838Y-92291789D01*
X74124593Y-92096158D01*
X74125588Y-92088603D01*
X79011500Y-92088603D01*
X79011500Y-92319396D01*
X79020561Y-92388214D01*
X79041623Y-92548193D01*
X79063198Y-92628711D01*
X79101353Y-92771110D01*
X79189665Y-92984313D01*
X79189669Y-92984323D01*
X79305056Y-93184179D01*
X79445544Y-93367267D01*
X79445550Y-93367274D01*
X79608725Y-93530449D01*
X79608732Y-93530455D01*
X79791820Y-93670943D01*
X79991676Y-93786330D01*
X79991677Y-93786330D01*
X79991680Y-93786332D01*
X80097739Y-93830263D01*
X80204889Y-93874646D01*
X80204890Y-93874646D01*
X80204892Y-93874647D01*
X80427807Y-93934377D01*
X80656611Y-93964500D01*
X80656618Y-93964500D01*
X80887382Y-93964500D01*
X80887389Y-93964500D01*
X81116193Y-93934377D01*
X81339108Y-93874647D01*
X81552320Y-93786332D01*
X81752180Y-93670943D01*
X81935269Y-93530454D01*
X82063588Y-93402135D01*
X90164500Y-93402135D01*
X90164500Y-95197870D01*
X90164501Y-95197876D01*
X90170908Y-95257483D01*
X90221202Y-95392328D01*
X90221206Y-95392335D01*
X90307452Y-95507544D01*
X90307455Y-95507547D01*
X90422664Y-95593793D01*
X90422671Y-95593797D01*
X90557517Y-95644091D01*
X90557516Y-95644091D01*
X90564444Y-95644835D01*
X90617127Y-95650500D01*
X92412872Y-95650499D01*
X92472483Y-95644091D01*
X92607331Y-95593796D01*
X92722546Y-95507546D01*
X92808796Y-95392331D01*
X92857810Y-95260916D01*
X92899681Y-95204984D01*
X92965145Y-95180566D01*
X93033418Y-95195417D01*
X93061673Y-95216569D01*
X93175213Y-95330109D01*
X93347179Y-95455048D01*
X93347181Y-95455049D01*
X93347184Y-95455051D01*
X93536588Y-95551557D01*
X93738757Y-95617246D01*
X93948713Y-95650500D01*
X93948714Y-95650500D01*
X94161286Y-95650500D01*
X94161287Y-95650500D01*
X94371243Y-95617246D01*
X94573412Y-95551557D01*
X94762816Y-95455051D01*
X94849138Y-95392335D01*
X94934786Y-95330109D01*
X94934788Y-95330106D01*
X94934792Y-95330104D01*
X95085104Y-95179792D01*
X95085106Y-95179788D01*
X95085109Y-95179786D01*
X95170890Y-95061717D01*
X95210051Y-95007816D01*
X95214793Y-94998508D01*
X95262763Y-94947711D01*
X95330583Y-94930911D01*
X95396719Y-94953445D01*
X95435763Y-94998500D01*
X95440373Y-95007547D01*
X95479728Y-95061716D01*
X96112037Y-94429408D01*
X96129075Y-94492993D01*
X96194901Y-94607007D01*
X96287993Y-94700099D01*
X96402007Y-94765925D01*
X96465590Y-94782962D01*
X95833282Y-95415269D01*
X95833282Y-95415270D01*
X95887449Y-95454624D01*
X96076782Y-95551095D01*
X96278870Y-95616757D01*
X96488754Y-95650000D01*
X96701246Y-95650000D01*
X96911127Y-95616757D01*
X96911130Y-95616757D01*
X97113217Y-95551095D01*
X97302554Y-95454622D01*
X97356716Y-95415270D01*
X97356717Y-95415270D01*
X96724408Y-94782962D01*
X96787993Y-94765925D01*
X96902007Y-94700099D01*
X96995099Y-94607007D01*
X97060925Y-94492993D01*
X97077962Y-94429408D01*
X97710270Y-95061717D01*
X97710270Y-95061716D01*
X97749622Y-95007554D01*
X97754514Y-94997954D01*
X97802488Y-94947157D01*
X97870308Y-94930361D01*
X97936444Y-94952897D01*
X97975486Y-94997954D01*
X97980375Y-95007550D01*
X98019728Y-95061716D01*
X98652037Y-94429408D01*
X98669075Y-94492993D01*
X98734901Y-94607007D01*
X98827993Y-94700099D01*
X98942007Y-94765925D01*
X99005590Y-94782962D01*
X98373282Y-95415269D01*
X98373282Y-95415270D01*
X98427449Y-95454624D01*
X98616782Y-95551095D01*
X98818870Y-95616757D01*
X99028754Y-95650000D01*
X99241246Y-95650000D01*
X99451127Y-95616757D01*
X99451130Y-95616757D01*
X99653217Y-95551095D01*
X99842554Y-95454622D01*
X99896716Y-95415270D01*
X99896717Y-95415270D01*
X99264408Y-94782962D01*
X99327993Y-94765925D01*
X99442007Y-94700099D01*
X99535099Y-94607007D01*
X99600925Y-94492993D01*
X99617962Y-94429408D01*
X100250270Y-95061717D01*
X100250270Y-95061716D01*
X100289622Y-95007554D01*
X100386095Y-94818217D01*
X100451757Y-94616130D01*
X100451757Y-94616127D01*
X100466800Y-94521153D01*
X112299500Y-94521153D01*
X112299500Y-94678846D01*
X112330261Y-94833489D01*
X112330264Y-94833501D01*
X112390602Y-94979172D01*
X112390609Y-94979185D01*
X112478210Y-95110288D01*
X112478213Y-95110292D01*
X112589707Y-95221786D01*
X112589711Y-95221789D01*
X112720814Y-95309390D01*
X112720827Y-95309397D01*
X112866498Y-95369735D01*
X112866503Y-95369737D01*
X113021153Y-95400499D01*
X113021156Y-95400500D01*
X113021158Y-95400500D01*
X113178844Y-95400500D01*
X113178845Y-95400499D01*
X113333497Y-95369737D01*
X113479179Y-95309394D01*
X113610289Y-95221789D01*
X113721789Y-95110289D01*
X113809394Y-94979179D01*
X113869737Y-94833497D01*
X113900500Y-94678842D01*
X113900500Y-94521158D01*
X113900500Y-94521155D01*
X113900499Y-94521153D01*
X113879030Y-94413222D01*
X113869737Y-94366503D01*
X113842191Y-94300000D01*
X113809397Y-94220827D01*
X113809390Y-94220814D01*
X113721789Y-94089711D01*
X113721786Y-94089707D01*
X113610292Y-93978213D01*
X113610288Y-93978210D01*
X113479185Y-93890609D01*
X113479172Y-93890602D01*
X113333501Y-93830264D01*
X113333489Y-93830261D01*
X113178845Y-93799500D01*
X113178842Y-93799500D01*
X113021158Y-93799500D01*
X113021155Y-93799500D01*
X112866510Y-93830261D01*
X112866498Y-93830264D01*
X112720827Y-93890602D01*
X112720814Y-93890609D01*
X112589711Y-93978210D01*
X112589707Y-93978213D01*
X112478213Y-94089707D01*
X112478210Y-94089711D01*
X112390609Y-94220814D01*
X112390602Y-94220827D01*
X112330264Y-94366498D01*
X112330261Y-94366510D01*
X112299500Y-94521153D01*
X100466800Y-94521153D01*
X100470837Y-94495668D01*
X100485000Y-94406246D01*
X100485000Y-94193753D01*
X100451757Y-93983872D01*
X100451757Y-93983869D01*
X100386095Y-93781782D01*
X100289624Y-93592449D01*
X100250270Y-93538282D01*
X100250269Y-93538282D01*
X99617962Y-94170590D01*
X99600925Y-94107007D01*
X99535099Y-93992993D01*
X99442007Y-93899901D01*
X99327993Y-93834075D01*
X99264409Y-93817037D01*
X99896716Y-93184728D01*
X99842550Y-93145375D01*
X99653217Y-93048904D01*
X99451129Y-92983242D01*
X99241246Y-92950000D01*
X99028754Y-92950000D01*
X98818872Y-92983242D01*
X98818869Y-92983242D01*
X98616782Y-93048904D01*
X98427439Y-93145380D01*
X98373282Y-93184727D01*
X98373282Y-93184728D01*
X99005591Y-93817037D01*
X98942007Y-93834075D01*
X98827993Y-93899901D01*
X98734901Y-93992993D01*
X98669075Y-94107007D01*
X98652037Y-94170591D01*
X98019728Y-93538282D01*
X98019727Y-93538282D01*
X97980380Y-93592440D01*
X97975483Y-93602051D01*
X97927506Y-93652845D01*
X97859684Y-93669638D01*
X97793550Y-93647098D01*
X97754516Y-93602048D01*
X97749626Y-93592452D01*
X97710270Y-93538282D01*
X97710269Y-93538282D01*
X97077962Y-94170590D01*
X97060925Y-94107007D01*
X96995099Y-93992993D01*
X96902007Y-93899901D01*
X96787993Y-93834075D01*
X96724409Y-93817037D01*
X97356716Y-93184728D01*
X97302550Y-93145375D01*
X97113217Y-93048904D01*
X96911129Y-92983242D01*
X96701246Y-92950000D01*
X96488754Y-92950000D01*
X96278872Y-92983242D01*
X96278869Y-92983242D01*
X96076782Y-93048904D01*
X95887439Y-93145380D01*
X95833282Y-93184727D01*
X95833282Y-93184728D01*
X96465591Y-93817037D01*
X96402007Y-93834075D01*
X96287993Y-93899901D01*
X96194901Y-93992993D01*
X96129075Y-94107007D01*
X96112037Y-94170591D01*
X95479728Y-93538282D01*
X95479727Y-93538282D01*
X95440380Y-93592440D01*
X95440376Y-93592446D01*
X95435760Y-93601505D01*
X95387781Y-93652297D01*
X95319959Y-93669087D01*
X95253826Y-93646543D01*
X95214794Y-93601493D01*
X95210051Y-93592184D01*
X95210049Y-93592181D01*
X95210048Y-93592179D01*
X95085109Y-93420213D01*
X94934786Y-93269890D01*
X94762820Y-93144951D01*
X94573414Y-93048444D01*
X94573413Y-93048443D01*
X94573412Y-93048443D01*
X94371243Y-92982754D01*
X94371241Y-92982753D01*
X94371240Y-92982753D01*
X94209957Y-92957208D01*
X94161287Y-92949500D01*
X93948713Y-92949500D01*
X93900042Y-92957208D01*
X93738760Y-92982753D01*
X93536585Y-93048444D01*
X93347179Y-93144951D01*
X93175215Y-93269889D01*
X93061673Y-93383431D01*
X93000350Y-93416915D01*
X92930658Y-93411931D01*
X92874725Y-93370059D01*
X92857810Y-93339082D01*
X92808797Y-93207671D01*
X92808793Y-93207664D01*
X92722547Y-93092455D01*
X92722544Y-93092452D01*
X92607335Y-93006206D01*
X92607328Y-93006202D01*
X92472482Y-92955908D01*
X92472483Y-92955908D01*
X92412883Y-92949501D01*
X92412881Y-92949500D01*
X92412873Y-92949500D01*
X92412864Y-92949500D01*
X90617129Y-92949500D01*
X90617123Y-92949501D01*
X90557516Y-92955908D01*
X90422671Y-93006202D01*
X90422664Y-93006206D01*
X90307455Y-93092452D01*
X90307452Y-93092455D01*
X90221206Y-93207664D01*
X90221202Y-93207671D01*
X90170908Y-93342517D01*
X90164501Y-93402116D01*
X90164500Y-93402135D01*
X82063588Y-93402135D01*
X82098454Y-93367269D01*
X82238943Y-93184180D01*
X82354332Y-92984320D01*
X82442647Y-92771108D01*
X82502377Y-92548193D01*
X82532500Y-92319389D01*
X82532500Y-92096153D01*
X118124500Y-92096153D01*
X118124500Y-92253846D01*
X118155261Y-92408489D01*
X118155264Y-92408501D01*
X118215602Y-92554172D01*
X118215609Y-92554185D01*
X118303210Y-92685288D01*
X118303213Y-92685292D01*
X118414707Y-92796786D01*
X118414711Y-92796789D01*
X118545814Y-92884390D01*
X118545827Y-92884397D01*
X118691498Y-92944735D01*
X118691503Y-92944737D01*
X118846153Y-92975499D01*
X118846156Y-92975500D01*
X118846158Y-92975500D01*
X119003844Y-92975500D01*
X119003845Y-92975499D01*
X119158497Y-92944737D01*
X119304179Y-92884394D01*
X119435289Y-92796789D01*
X119546789Y-92685289D01*
X119584592Y-92628711D01*
X121899500Y-92628711D01*
X121899500Y-92871288D01*
X121931161Y-93111785D01*
X121993947Y-93346104D01*
X122086773Y-93570205D01*
X122086777Y-93570214D01*
X122105158Y-93602051D01*
X122208064Y-93780289D01*
X122208066Y-93780292D01*
X122208067Y-93780293D01*
X122355733Y-93972736D01*
X122355739Y-93972743D01*
X122527256Y-94144260D01*
X122527262Y-94144265D01*
X122719711Y-94291936D01*
X122929788Y-94413224D01*
X123153900Y-94506054D01*
X123388211Y-94568838D01*
X123568586Y-94592584D01*
X123628711Y-94600500D01*
X123628712Y-94600500D01*
X123871289Y-94600500D01*
X123919388Y-94594167D01*
X124111789Y-94568838D01*
X124346100Y-94506054D01*
X124570212Y-94413224D01*
X124780289Y-94291936D01*
X124972738Y-94144265D01*
X125144265Y-93972738D01*
X125291936Y-93780289D01*
X125413224Y-93570212D01*
X125506054Y-93346100D01*
X125568838Y-93111789D01*
X125600500Y-92871288D01*
X125600500Y-92628712D01*
X125568838Y-92388211D01*
X125506054Y-92153900D01*
X125413224Y-91929788D01*
X125291936Y-91719711D01*
X125164178Y-91553213D01*
X125144266Y-91527263D01*
X125144260Y-91527256D01*
X124972743Y-91355739D01*
X124972736Y-91355733D01*
X124780293Y-91208067D01*
X124780292Y-91208066D01*
X124780289Y-91208064D01*
X124594778Y-91100959D01*
X124570214Y-91086777D01*
X124570205Y-91086773D01*
X124346104Y-90993947D01*
X124111785Y-90931161D01*
X123871289Y-90899500D01*
X123871288Y-90899500D01*
X123628712Y-90899500D01*
X123628711Y-90899500D01*
X123388214Y-90931161D01*
X123153895Y-90993947D01*
X122929794Y-91086773D01*
X122929785Y-91086777D01*
X122719706Y-91208067D01*
X122527263Y-91355733D01*
X122527256Y-91355739D01*
X122355739Y-91527256D01*
X122355733Y-91527263D01*
X122208067Y-91719706D01*
X122086777Y-91929785D01*
X122086773Y-91929794D01*
X121993947Y-92153895D01*
X121931161Y-92388214D01*
X121899500Y-92628711D01*
X119584592Y-92628711D01*
X119588209Y-92623298D01*
X119633337Y-92555762D01*
X119634391Y-92554183D01*
X119634394Y-92554179D01*
X119636874Y-92548193D01*
X119694735Y-92408501D01*
X119694737Y-92408497D01*
X119725500Y-92253842D01*
X119725500Y-92096158D01*
X119725500Y-92096155D01*
X119725499Y-92096153D01*
X119694738Y-91941510D01*
X119694737Y-91941503D01*
X119639734Y-91808712D01*
X119634397Y-91795827D01*
X119634390Y-91795814D01*
X119546789Y-91664711D01*
X119546786Y-91664707D01*
X119435292Y-91553213D01*
X119435288Y-91553210D01*
X119304185Y-91465609D01*
X119304172Y-91465602D01*
X119158501Y-91405264D01*
X119158489Y-91405261D01*
X119003845Y-91374500D01*
X119003842Y-91374500D01*
X118846158Y-91374500D01*
X118846155Y-91374500D01*
X118691510Y-91405261D01*
X118691498Y-91405264D01*
X118545827Y-91465602D01*
X118545814Y-91465609D01*
X118414711Y-91553210D01*
X118414707Y-91553213D01*
X118303213Y-91664707D01*
X118303210Y-91664711D01*
X118215609Y-91795814D01*
X118215602Y-91795827D01*
X118155264Y-91941498D01*
X118155261Y-91941510D01*
X118124500Y-92096153D01*
X82532500Y-92096153D01*
X82532500Y-92088611D01*
X82502377Y-91859807D01*
X82442647Y-91636892D01*
X82414198Y-91568211D01*
X82397234Y-91527256D01*
X82354332Y-91423680D01*
X82315106Y-91355739D01*
X82238943Y-91223820D01*
X82098455Y-91040732D01*
X82098449Y-91040725D01*
X81935274Y-90877550D01*
X81935267Y-90877544D01*
X81752179Y-90737056D01*
X81552323Y-90621669D01*
X81552313Y-90621665D01*
X81339110Y-90533353D01*
X81227650Y-90503488D01*
X81116193Y-90473623D01*
X81065347Y-90466929D01*
X80887396Y-90443500D01*
X80887389Y-90443500D01*
X80656611Y-90443500D01*
X80656603Y-90443500D01*
X80453229Y-90470276D01*
X80427807Y-90473623D01*
X80408315Y-90478846D01*
X80204889Y-90533353D01*
X79991686Y-90621665D01*
X79991676Y-90621669D01*
X79791820Y-90737056D01*
X79608732Y-90877544D01*
X79608725Y-90877550D01*
X79445550Y-91040725D01*
X79445544Y-91040732D01*
X79305056Y-91223820D01*
X79189669Y-91423676D01*
X79189665Y-91423686D01*
X79101353Y-91636889D01*
X79041623Y-91859808D01*
X79011500Y-92088603D01*
X74125588Y-92088603D01*
X74128252Y-92068367D01*
X74128252Y-92068366D01*
X74130500Y-92051291D01*
X74130500Y-91808711D01*
X74098838Y-91568214D01*
X74098838Y-91568211D01*
X74036054Y-91333900D01*
X73943224Y-91109788D01*
X73821936Y-90899711D01*
X73729443Y-90779172D01*
X73674266Y-90707263D01*
X73674260Y-90707256D01*
X73502743Y-90535739D01*
X73502736Y-90535733D01*
X73343363Y-90413442D01*
X73310293Y-90388067D01*
X73310292Y-90388066D01*
X73310289Y-90388064D01*
X73194396Y-90321153D01*
X95724500Y-90321153D01*
X95724500Y-90478846D01*
X95755261Y-90633489D01*
X95755264Y-90633501D01*
X95815602Y-90779172D01*
X95815609Y-90779185D01*
X95903210Y-90910288D01*
X95903213Y-90910292D01*
X96014707Y-91021786D01*
X96014711Y-91021789D01*
X96145814Y-91109390D01*
X96145827Y-91109397D01*
X96291498Y-91169735D01*
X96291503Y-91169737D01*
X96446153Y-91200499D01*
X96446156Y-91200500D01*
X96446158Y-91200500D01*
X96603844Y-91200500D01*
X96603845Y-91200499D01*
X96758497Y-91169737D01*
X96840049Y-91135956D01*
X96909516Y-91128488D01*
X96934944Y-91135954D01*
X97016503Y-91169737D01*
X97171153Y-91200499D01*
X97171156Y-91200500D01*
X97171158Y-91200500D01*
X97328844Y-91200500D01*
X97328845Y-91200499D01*
X97483497Y-91169737D01*
X97629179Y-91109394D01*
X97641804Y-91100957D01*
X97708478Y-91080080D01*
X97758144Y-91089498D01*
X97891503Y-91144737D01*
X98017176Y-91169735D01*
X98046153Y-91175499D01*
X98046156Y-91175500D01*
X98046158Y-91175500D01*
X98203844Y-91175500D01*
X98203845Y-91175499D01*
X98358497Y-91144737D01*
X98504179Y-91084394D01*
X98635289Y-90996789D01*
X98746789Y-90885289D01*
X98834394Y-90754179D01*
X98894737Y-90608497D01*
X98925500Y-90453842D01*
X98925500Y-90296158D01*
X98925500Y-90296155D01*
X98925499Y-90296153D01*
X98919656Y-90266777D01*
X98894737Y-90141503D01*
X98850601Y-90034950D01*
X98847322Y-90004446D01*
X98841873Y-89974245D01*
X98843422Y-89968175D01*
X98843133Y-89965484D01*
X98850599Y-89940054D01*
X98858428Y-89921153D01*
X103449500Y-89921153D01*
X103449500Y-90078846D01*
X103480261Y-90233489D01*
X103480264Y-90233501D01*
X103540602Y-90379172D01*
X103540609Y-90379185D01*
X103628210Y-90510288D01*
X103628213Y-90510292D01*
X103739707Y-90621786D01*
X103739711Y-90621789D01*
X103870814Y-90709390D01*
X103870827Y-90709397D01*
X104016498Y-90769735D01*
X104016503Y-90769737D01*
X104171153Y-90800499D01*
X104171156Y-90800500D01*
X104171158Y-90800500D01*
X104328844Y-90800500D01*
X104328845Y-90800499D01*
X104483497Y-90769737D01*
X104629179Y-90709394D01*
X104760289Y-90621789D01*
X104871789Y-90510289D01*
X104959394Y-90379179D01*
X105019737Y-90233497D01*
X105050500Y-90078842D01*
X105050500Y-89921158D01*
X105050500Y-89921155D01*
X105050499Y-89921153D01*
X105019738Y-89766510D01*
X105019737Y-89766503D01*
X104983427Y-89678842D01*
X104959397Y-89620827D01*
X104959390Y-89620814D01*
X104871789Y-89489711D01*
X104871786Y-89489707D01*
X104760292Y-89378213D01*
X104760288Y-89378210D01*
X104629185Y-89290609D01*
X104629172Y-89290602D01*
X104483501Y-89230264D01*
X104483489Y-89230261D01*
X104328845Y-89199500D01*
X104328842Y-89199500D01*
X104171158Y-89199500D01*
X104171155Y-89199500D01*
X104016510Y-89230261D01*
X104016498Y-89230264D01*
X103870827Y-89290602D01*
X103870814Y-89290609D01*
X103739711Y-89378210D01*
X103739707Y-89378213D01*
X103628213Y-89489707D01*
X103628210Y-89489711D01*
X103540609Y-89620814D01*
X103540602Y-89620827D01*
X103480264Y-89766498D01*
X103480261Y-89766510D01*
X103449500Y-89921153D01*
X98858428Y-89921153D01*
X98894737Y-89833497D01*
X98925500Y-89678842D01*
X98925500Y-89521158D01*
X98925500Y-89521155D01*
X98925499Y-89521153D01*
X98897066Y-89378211D01*
X98894737Y-89366503D01*
X98863298Y-89290602D01*
X98834397Y-89220827D01*
X98834390Y-89220814D01*
X98746789Y-89089711D01*
X98746786Y-89089707D01*
X98635292Y-88978213D01*
X98635288Y-88978210D01*
X98504185Y-88890609D01*
X98504172Y-88890602D01*
X98358501Y-88830264D01*
X98358489Y-88830261D01*
X98203845Y-88799500D01*
X98203842Y-88799500D01*
X98046158Y-88799500D01*
X98046155Y-88799500D01*
X97891510Y-88830261D01*
X97891498Y-88830264D01*
X97747452Y-88889930D01*
X97677983Y-88897399D01*
X97652548Y-88889930D01*
X97508501Y-88830264D01*
X97508489Y-88830261D01*
X97353845Y-88799500D01*
X97353842Y-88799500D01*
X97196158Y-88799500D01*
X97196155Y-88799500D01*
X97041511Y-88830260D01*
X97041501Y-88830263D01*
X96959952Y-88864042D01*
X96890483Y-88871511D01*
X96865048Y-88864042D01*
X96783498Y-88830263D01*
X96783488Y-88830260D01*
X96628845Y-88799500D01*
X96628842Y-88799500D01*
X96471158Y-88799500D01*
X96471155Y-88799500D01*
X96316510Y-88830261D01*
X96316498Y-88830264D01*
X96170827Y-88890602D01*
X96170814Y-88890609D01*
X96039711Y-88978210D01*
X96039707Y-88978213D01*
X95928213Y-89089707D01*
X95928210Y-89089711D01*
X95840609Y-89220814D01*
X95840602Y-89220827D01*
X95780264Y-89366498D01*
X95780261Y-89366510D01*
X95749500Y-89521153D01*
X95749500Y-89678846D01*
X95780261Y-89833489D01*
X95780263Y-89833497D01*
X95817075Y-89922369D01*
X95824544Y-89991839D01*
X95817075Y-90017274D01*
X95755264Y-90166498D01*
X95755261Y-90166510D01*
X95724500Y-90321153D01*
X73194396Y-90321153D01*
X73100212Y-90266776D01*
X73100205Y-90266773D01*
X72876104Y-90173947D01*
X72641785Y-90111161D01*
X72401289Y-90079500D01*
X72401288Y-90079500D01*
X72158712Y-90079500D01*
X72158711Y-90079500D01*
X71918214Y-90111161D01*
X71683895Y-90173947D01*
X71459794Y-90266773D01*
X71459785Y-90266777D01*
X71249706Y-90388067D01*
X71057263Y-90535733D01*
X71057256Y-90535739D01*
X70885739Y-90707256D01*
X70885733Y-90707263D01*
X70738067Y-90899706D01*
X70616777Y-91109785D01*
X70616773Y-91109794D01*
X70523947Y-91333895D01*
X70461161Y-91568214D01*
X70429500Y-91808711D01*
X67560500Y-91808711D01*
X67560500Y-87388603D01*
X79011500Y-87388603D01*
X79011500Y-87619396D01*
X79034929Y-87797347D01*
X79041623Y-87848193D01*
X79071488Y-87959650D01*
X79101353Y-88071110D01*
X79189665Y-88284313D01*
X79189669Y-88284323D01*
X79305056Y-88484179D01*
X79445544Y-88667267D01*
X79445550Y-88667274D01*
X79608725Y-88830449D01*
X79608732Y-88830455D01*
X79791820Y-88970943D01*
X79991676Y-89086330D01*
X79991677Y-89086330D01*
X79991680Y-89086332D01*
X80133821Y-89145208D01*
X80204889Y-89174646D01*
X80204890Y-89174646D01*
X80204892Y-89174647D01*
X80427807Y-89234377D01*
X80656611Y-89264500D01*
X80656618Y-89264500D01*
X80887382Y-89264500D01*
X80887389Y-89264500D01*
X81116193Y-89234377D01*
X81339108Y-89174647D01*
X81552320Y-89086332D01*
X81752180Y-88970943D01*
X81935269Y-88830454D01*
X82098454Y-88667269D01*
X82238943Y-88484180D01*
X82354332Y-88284320D01*
X82442647Y-88071108D01*
X82488987Y-87898165D01*
X101266012Y-87898165D01*
X101266012Y-88101834D01*
X101305742Y-88301570D01*
X101305745Y-88301582D01*
X101383677Y-88489728D01*
X101383684Y-88489741D01*
X101496828Y-88659072D01*
X101496831Y-88659076D01*
X101640835Y-88803080D01*
X101640839Y-88803083D01*
X101810170Y-88916227D01*
X101810183Y-88916234D01*
X101959810Y-88978211D01*
X101998334Y-88994168D01*
X102198077Y-89033899D01*
X102198081Y-89033900D01*
X102198082Y-89033900D01*
X102401743Y-89033900D01*
X102401744Y-89033899D01*
X102601490Y-88994168D01*
X102789647Y-88916231D01*
X102958985Y-88803083D01*
X103102995Y-88659073D01*
X103216143Y-88489735D01*
X103294080Y-88301578D01*
X103333812Y-88101830D01*
X103333812Y-87898170D01*
X103294080Y-87698422D01*
X103220653Y-87521153D01*
X117399500Y-87521153D01*
X117399500Y-87678846D01*
X117430261Y-87833489D01*
X117430264Y-87833501D01*
X117490602Y-87979172D01*
X117490609Y-87979185D01*
X117578210Y-88110288D01*
X117578213Y-88110292D01*
X117689707Y-88221786D01*
X117689711Y-88221789D01*
X117820814Y-88309390D01*
X117820827Y-88309397D01*
X117966498Y-88369735D01*
X117966503Y-88369737D01*
X118121153Y-88400499D01*
X118121156Y-88400500D01*
X118121158Y-88400500D01*
X118278844Y-88400500D01*
X118278845Y-88400499D01*
X118433497Y-88369737D01*
X118579179Y-88309394D01*
X118710289Y-88221789D01*
X118821789Y-88110289D01*
X118909394Y-87979179D01*
X118969737Y-87833497D01*
X119000500Y-87678842D01*
X119000500Y-87521158D01*
X119000500Y-87521155D01*
X119000499Y-87521153D01*
X118998333Y-87510265D01*
X118969737Y-87366503D01*
X118946077Y-87309382D01*
X118909397Y-87220827D01*
X118909390Y-87220814D01*
X118821789Y-87089711D01*
X118821786Y-87089707D01*
X118710292Y-86978213D01*
X118710288Y-86978210D01*
X118579185Y-86890609D01*
X118579172Y-86890602D01*
X118433501Y-86830264D01*
X118433489Y-86830261D01*
X118278845Y-86799500D01*
X118278842Y-86799500D01*
X118121158Y-86799500D01*
X118121155Y-86799500D01*
X117966510Y-86830261D01*
X117966498Y-86830264D01*
X117820827Y-86890602D01*
X117820814Y-86890609D01*
X117689711Y-86978210D01*
X117689707Y-86978213D01*
X117578213Y-87089707D01*
X117578210Y-87089711D01*
X117490609Y-87220814D01*
X117490602Y-87220827D01*
X117430264Y-87366498D01*
X117430261Y-87366510D01*
X117399500Y-87521153D01*
X103220653Y-87521153D01*
X103216143Y-87510265D01*
X103168608Y-87439124D01*
X103166096Y-87434584D01*
X103159564Y-87405349D01*
X103150613Y-87376762D01*
X103152026Y-87371610D01*
X103150861Y-87366396D01*
X103161171Y-87338271D01*
X103169097Y-87309382D01*
X103171492Y-87305656D01*
X103215699Y-87239496D01*
X103293598Y-87051432D01*
X103293600Y-87051424D01*
X103333311Y-86851784D01*
X103333312Y-86851782D01*
X103333312Y-86648218D01*
X103333311Y-86648215D01*
X103293600Y-86448575D01*
X103293598Y-86448567D01*
X103215700Y-86260505D01*
X103215692Y-86260490D01*
X103197966Y-86233961D01*
X103197963Y-86233958D01*
X103186564Y-86216899D01*
X102565633Y-86837830D01*
X102579312Y-86786784D01*
X102579312Y-86713216D01*
X102560271Y-86642156D01*
X102523488Y-86578444D01*
X102471468Y-86526424D01*
X102407756Y-86489641D01*
X102336696Y-86470600D01*
X102263128Y-86470600D01*
X102192068Y-86489641D01*
X102128356Y-86526424D01*
X102076336Y-86578444D01*
X102039553Y-86642156D01*
X102020512Y-86713216D01*
X102020512Y-86786784D01*
X102034190Y-86837831D01*
X101413258Y-86216899D01*
X101384122Y-86260507D01*
X101306225Y-86448567D01*
X101306223Y-86448575D01*
X101266512Y-86648215D01*
X101266512Y-86851784D01*
X101306223Y-87051424D01*
X101306225Y-87051432D01*
X101384123Y-87239494D01*
X101384128Y-87239504D01*
X101428331Y-87305658D01*
X101449209Y-87372336D01*
X101430724Y-87439716D01*
X101428332Y-87443439D01*
X101383679Y-87510268D01*
X101305745Y-87698417D01*
X101305742Y-87698429D01*
X101266012Y-87898165D01*
X82488987Y-87898165D01*
X82502377Y-87848193D01*
X82532500Y-87619389D01*
X82532500Y-87388611D01*
X82502377Y-87159807D01*
X82442647Y-86936892D01*
X82354332Y-86723680D01*
X82328639Y-86679179D01*
X82238943Y-86523820D01*
X82098455Y-86340732D01*
X82098449Y-86340725D01*
X81935274Y-86177550D01*
X81935267Y-86177544D01*
X81752179Y-86037056D01*
X81717344Y-86016944D01*
X81552323Y-85921669D01*
X81552313Y-85921665D01*
X81411519Y-85863346D01*
X101766811Y-85863346D01*
X102299912Y-86396446D01*
X102299913Y-86396446D01*
X102525206Y-86171153D01*
X104699500Y-86171153D01*
X104699500Y-86328846D01*
X104730261Y-86483489D01*
X104730264Y-86483501D01*
X104790602Y-86629172D01*
X104790609Y-86629185D01*
X104878210Y-86760288D01*
X104878213Y-86760292D01*
X104989707Y-86871786D01*
X104989711Y-86871789D01*
X105120814Y-86959390D01*
X105120827Y-86959397D01*
X105243862Y-87010359D01*
X105266503Y-87019737D01*
X105421153Y-87050499D01*
X105421156Y-87050500D01*
X105421158Y-87050500D01*
X105578844Y-87050500D01*
X105578845Y-87050499D01*
X105733497Y-87019737D01*
X105879179Y-86959394D01*
X106010289Y-86871789D01*
X106121789Y-86760289D01*
X106209394Y-86629179D01*
X106269737Y-86483497D01*
X106300500Y-86328842D01*
X106300500Y-86221153D01*
X110249500Y-86221153D01*
X110249500Y-86378846D01*
X110280261Y-86533489D01*
X110280264Y-86533501D01*
X110340602Y-86679172D01*
X110340609Y-86679185D01*
X110428210Y-86810288D01*
X110428213Y-86810292D01*
X110539707Y-86921786D01*
X110539711Y-86921789D01*
X110670814Y-87009390D01*
X110670827Y-87009397D01*
X110770060Y-87050500D01*
X110816503Y-87069737D01*
X110971153Y-87100499D01*
X110971156Y-87100500D01*
X110971158Y-87100500D01*
X111128844Y-87100500D01*
X111128845Y-87100499D01*
X111283497Y-87069737D01*
X111429179Y-87009394D01*
X111560289Y-86921789D01*
X111671789Y-86810289D01*
X111759394Y-86679179D01*
X111819737Y-86533497D01*
X111844122Y-86410904D01*
X111846646Y-86398215D01*
X120216600Y-86398215D01*
X120216600Y-86601784D01*
X120256311Y-86801424D01*
X120256313Y-86801432D01*
X120334212Y-86989496D01*
X120363346Y-87033098D01*
X120363347Y-87033099D01*
X120896446Y-86500000D01*
X120896446Y-86499999D01*
X120363346Y-85966899D01*
X120334210Y-86010507D01*
X120256313Y-86198567D01*
X120256311Y-86198575D01*
X120216600Y-86398215D01*
X111846646Y-86398215D01*
X111850499Y-86378848D01*
X111850500Y-86378842D01*
X111850500Y-86221155D01*
X111850499Y-86221153D01*
X111845977Y-86198422D01*
X111819737Y-86066503D01*
X111799209Y-86016944D01*
X111759397Y-85920827D01*
X111759390Y-85920814D01*
X111671789Y-85789711D01*
X111671786Y-85789707D01*
X111560292Y-85678213D01*
X111560288Y-85678210D01*
X111463213Y-85613346D01*
X120716899Y-85613346D01*
X121337831Y-86234278D01*
X121286784Y-86220600D01*
X121213216Y-86220600D01*
X121142156Y-86239641D01*
X121078444Y-86276424D01*
X121026424Y-86328444D01*
X120989641Y-86392156D01*
X120970600Y-86463216D01*
X120970600Y-86536784D01*
X120989641Y-86607844D01*
X121026424Y-86671556D01*
X121078444Y-86723576D01*
X121142156Y-86760359D01*
X121213216Y-86779400D01*
X121286784Y-86779400D01*
X121337830Y-86765721D01*
X120716899Y-87386653D01*
X120760495Y-87415783D01*
X120760505Y-87415788D01*
X120948567Y-87493686D01*
X120948575Y-87493688D01*
X121148215Y-87533399D01*
X121148218Y-87533400D01*
X121351782Y-87533400D01*
X121351784Y-87533399D01*
X121551424Y-87493688D01*
X121551432Y-87493686D01*
X121739496Y-87415787D01*
X121805656Y-87371580D01*
X121872333Y-87350701D01*
X121939713Y-87369185D01*
X121943402Y-87371554D01*
X122010265Y-87416231D01*
X122010267Y-87416232D01*
X122010271Y-87416234D01*
X122197258Y-87493686D01*
X122198422Y-87494168D01*
X122395651Y-87533399D01*
X122398165Y-87533899D01*
X122398169Y-87533900D01*
X122398170Y-87533900D01*
X122601831Y-87533900D01*
X122601832Y-87533899D01*
X122801578Y-87494168D01*
X122989735Y-87416231D01*
X122990400Y-87415787D01*
X123031083Y-87388603D01*
X123159073Y-87303083D01*
X123303083Y-87159073D01*
X123416231Y-86989735D01*
X123494168Y-86801578D01*
X123533900Y-86601830D01*
X123533900Y-86398170D01*
X123494168Y-86198422D01*
X123482873Y-86171153D01*
X123416234Y-86010271D01*
X123416227Y-86010258D01*
X123303083Y-85840927D01*
X123303080Y-85840923D01*
X123159076Y-85696919D01*
X123159072Y-85696916D01*
X122989741Y-85583772D01*
X122989728Y-85583765D01*
X122801582Y-85505833D01*
X122801570Y-85505830D01*
X122601834Y-85466100D01*
X122601830Y-85466100D01*
X122398170Y-85466100D01*
X122398165Y-85466100D01*
X122198429Y-85505830D01*
X122198417Y-85505833D01*
X122010268Y-85583767D01*
X121943439Y-85628420D01*
X121876761Y-85649297D01*
X121809381Y-85630812D01*
X121805658Y-85628419D01*
X121739504Y-85584216D01*
X121739494Y-85584211D01*
X121551432Y-85506313D01*
X121551424Y-85506311D01*
X121351784Y-85466600D01*
X121148215Y-85466600D01*
X120948575Y-85506311D01*
X120948567Y-85506313D01*
X120760507Y-85584210D01*
X120716899Y-85613346D01*
X111463213Y-85613346D01*
X111429185Y-85590609D01*
X111429172Y-85590602D01*
X111283501Y-85530264D01*
X111283489Y-85530261D01*
X111128845Y-85499500D01*
X111128842Y-85499500D01*
X110971158Y-85499500D01*
X110971155Y-85499500D01*
X110816510Y-85530261D01*
X110816498Y-85530264D01*
X110670827Y-85590602D01*
X110670814Y-85590609D01*
X110539711Y-85678210D01*
X110539707Y-85678213D01*
X110428213Y-85789707D01*
X110428210Y-85789711D01*
X110340609Y-85920814D01*
X110340602Y-85920827D01*
X110280264Y-86066498D01*
X110280261Y-86066510D01*
X110249500Y-86221153D01*
X106300500Y-86221153D01*
X106300500Y-86171158D01*
X106300500Y-86171155D01*
X106300499Y-86171153D01*
X106279684Y-86066510D01*
X106269737Y-86016503D01*
X106230456Y-85921669D01*
X106209397Y-85870827D01*
X106209390Y-85870814D01*
X106121789Y-85739711D01*
X106121786Y-85739707D01*
X106010292Y-85628213D01*
X106010288Y-85628210D01*
X105879185Y-85540609D01*
X105879172Y-85540602D01*
X105733501Y-85480264D01*
X105733489Y-85480261D01*
X105578845Y-85449500D01*
X105578842Y-85449500D01*
X105421158Y-85449500D01*
X105421155Y-85449500D01*
X105266510Y-85480261D01*
X105266498Y-85480264D01*
X105120827Y-85540602D01*
X105120814Y-85540609D01*
X104989711Y-85628210D01*
X104989707Y-85628213D01*
X104878213Y-85739707D01*
X104878210Y-85739711D01*
X104790609Y-85870814D01*
X104790602Y-85870827D01*
X104730264Y-86016498D01*
X104730261Y-86016510D01*
X104699500Y-86171153D01*
X102525206Y-86171153D01*
X102833011Y-85863347D01*
X102833010Y-85863346D01*
X102789408Y-85834212D01*
X102601344Y-85756313D01*
X102601336Y-85756311D01*
X102401696Y-85716600D01*
X102198127Y-85716600D01*
X101998487Y-85756311D01*
X101998479Y-85756313D01*
X101810419Y-85834210D01*
X101766811Y-85863346D01*
X81411519Y-85863346D01*
X81339110Y-85833353D01*
X81227650Y-85803488D01*
X81116193Y-85773623D01*
X81065347Y-85766929D01*
X80887396Y-85743500D01*
X80887389Y-85743500D01*
X80656611Y-85743500D01*
X80656603Y-85743500D01*
X80453229Y-85770276D01*
X80427807Y-85773623D01*
X80372078Y-85788555D01*
X80204889Y-85833353D01*
X79991686Y-85921665D01*
X79991676Y-85921669D01*
X79791820Y-86037056D01*
X79608732Y-86177544D01*
X79608725Y-86177550D01*
X79445550Y-86340725D01*
X79445544Y-86340732D01*
X79305056Y-86523820D01*
X79189669Y-86723676D01*
X79189665Y-86723686D01*
X79101353Y-86936889D01*
X79041623Y-87159808D01*
X79011500Y-87388603D01*
X67560500Y-87388603D01*
X67560500Y-81496155D01*
X79012000Y-81496155D01*
X79012000Y-82554000D01*
X79966344Y-82554000D01*
X79964281Y-82558981D01*
X79932000Y-82721267D01*
X79932000Y-82886733D01*
X79964281Y-83049019D01*
X79966344Y-83054000D01*
X79012000Y-83054000D01*
X79012000Y-84111844D01*
X79018401Y-84171372D01*
X79018403Y-84171379D01*
X79068645Y-84306086D01*
X79068649Y-84306093D01*
X79154809Y-84421187D01*
X79154812Y-84421190D01*
X79269906Y-84507350D01*
X79269913Y-84507354D01*
X79404620Y-84557596D01*
X79404627Y-84557598D01*
X79464155Y-84563999D01*
X79464172Y-84564000D01*
X80522000Y-84564000D01*
X80522000Y-83609655D01*
X80526981Y-83611719D01*
X80689267Y-83644000D01*
X80854733Y-83644000D01*
X81017019Y-83611719D01*
X81022000Y-83609655D01*
X81022000Y-84564000D01*
X82079828Y-84564000D01*
X82079844Y-84563999D01*
X82139372Y-84557598D01*
X82139379Y-84557596D01*
X82274086Y-84507354D01*
X82274093Y-84507350D01*
X82389187Y-84421190D01*
X82389190Y-84421187D01*
X82475350Y-84306093D01*
X82475354Y-84306086D01*
X82488383Y-84271153D01*
X84999500Y-84271153D01*
X84999500Y-84428846D01*
X85030261Y-84583489D01*
X85030264Y-84583501D01*
X85090602Y-84729172D01*
X85090609Y-84729185D01*
X85178210Y-84860288D01*
X85178213Y-84860292D01*
X85289707Y-84971786D01*
X85289711Y-84971789D01*
X85420814Y-85059390D01*
X85420827Y-85059397D01*
X85566498Y-85119735D01*
X85566503Y-85119737D01*
X85721153Y-85150499D01*
X85721156Y-85150500D01*
X85721158Y-85150500D01*
X85878844Y-85150500D01*
X85878845Y-85150499D01*
X86033497Y-85119737D01*
X86179179Y-85059394D01*
X86310289Y-84971789D01*
X86421789Y-84860289D01*
X86509394Y-84729179D01*
X86569737Y-84583497D01*
X86600500Y-84428842D01*
X86600500Y-84271158D01*
X86600500Y-84271155D01*
X86600499Y-84271153D01*
X86590668Y-84221732D01*
X86569737Y-84116503D01*
X86567800Y-84111827D01*
X86526666Y-84012518D01*
X86509532Y-83971153D01*
X108999500Y-83971153D01*
X108999500Y-84128846D01*
X109030261Y-84283489D01*
X109030264Y-84283501D01*
X109090602Y-84429172D01*
X109090609Y-84429185D01*
X109178210Y-84560288D01*
X109178213Y-84560292D01*
X109289707Y-84671786D01*
X109289711Y-84671789D01*
X109420814Y-84759390D01*
X109420827Y-84759397D01*
X109566498Y-84819735D01*
X109566503Y-84819737D01*
X109721153Y-84850499D01*
X109721156Y-84850500D01*
X109721158Y-84850500D01*
X109878844Y-84850500D01*
X109878845Y-84850499D01*
X110033497Y-84819737D01*
X110179179Y-84759394D01*
X110310289Y-84671789D01*
X110421789Y-84560289D01*
X110509394Y-84429179D01*
X110569737Y-84283497D01*
X110600500Y-84128842D01*
X110600500Y-83971158D01*
X110600500Y-83971155D01*
X110600499Y-83971153D01*
X110574353Y-83839711D01*
X110569737Y-83816503D01*
X110569735Y-83816498D01*
X110509397Y-83670827D01*
X110509390Y-83670814D01*
X110421789Y-83539711D01*
X110421786Y-83539707D01*
X110310292Y-83428213D01*
X110310288Y-83428210D01*
X110179185Y-83340609D01*
X110179172Y-83340602D01*
X110033501Y-83280264D01*
X110033489Y-83280261D01*
X109878845Y-83249500D01*
X109878842Y-83249500D01*
X109721158Y-83249500D01*
X109721155Y-83249500D01*
X109566510Y-83280261D01*
X109566498Y-83280264D01*
X109420827Y-83340602D01*
X109420814Y-83340609D01*
X109289711Y-83428210D01*
X109289707Y-83428213D01*
X109178213Y-83539707D01*
X109178210Y-83539711D01*
X109090609Y-83670814D01*
X109090602Y-83670827D01*
X109030264Y-83816498D01*
X109030261Y-83816510D01*
X108999500Y-83971153D01*
X86509532Y-83971153D01*
X86509395Y-83970823D01*
X86509390Y-83970814D01*
X86421789Y-83839711D01*
X86421786Y-83839707D01*
X86310292Y-83728213D01*
X86310288Y-83728210D01*
X86179185Y-83640609D01*
X86179172Y-83640602D01*
X86033501Y-83580264D01*
X86033489Y-83580261D01*
X85878845Y-83549500D01*
X85878842Y-83549500D01*
X85721158Y-83549500D01*
X85721155Y-83549500D01*
X85566510Y-83580261D01*
X85566498Y-83580264D01*
X85420827Y-83640602D01*
X85420814Y-83640609D01*
X85289711Y-83728210D01*
X85289707Y-83728213D01*
X85178213Y-83839707D01*
X85178210Y-83839711D01*
X85090609Y-83970814D01*
X85090602Y-83970827D01*
X85030264Y-84116498D01*
X85030261Y-84116510D01*
X84999500Y-84271153D01*
X82488383Y-84271153D01*
X82506816Y-84221733D01*
X82506816Y-84221732D01*
X82525597Y-84171376D01*
X82525598Y-84171372D01*
X82531999Y-84111844D01*
X82532000Y-84111827D01*
X82532000Y-83054000D01*
X81577656Y-83054000D01*
X81579719Y-83049019D01*
X81612000Y-82886733D01*
X81612000Y-82721267D01*
X81579719Y-82558981D01*
X81577656Y-82554000D01*
X82532000Y-82554000D01*
X82532000Y-81496172D01*
X82531999Y-81496155D01*
X82525598Y-81436627D01*
X82525596Y-81436620D01*
X82475354Y-81301913D01*
X82475350Y-81301906D01*
X82389190Y-81186812D01*
X82389187Y-81186809D01*
X82274093Y-81100649D01*
X82274086Y-81100645D01*
X82139379Y-81050403D01*
X82139372Y-81050401D01*
X82079844Y-81044000D01*
X81022000Y-81044000D01*
X81022000Y-81998344D01*
X81017019Y-81996281D01*
X80854733Y-81964000D01*
X80689267Y-81964000D01*
X80526981Y-81996281D01*
X80522000Y-81998344D01*
X80522000Y-81044000D01*
X79464155Y-81044000D01*
X79404627Y-81050401D01*
X79404620Y-81050403D01*
X79269913Y-81100645D01*
X79269906Y-81100649D01*
X79154812Y-81186809D01*
X79154809Y-81186812D01*
X79068649Y-81301906D01*
X79068645Y-81301913D01*
X79018403Y-81436620D01*
X79018401Y-81436627D01*
X79012000Y-81496155D01*
X67560500Y-81496155D01*
X67560500Y-79721153D01*
X94999500Y-79721153D01*
X94999500Y-79878846D01*
X95030261Y-80033489D01*
X95030264Y-80033501D01*
X95090602Y-80179172D01*
X95090609Y-80179185D01*
X95178210Y-80310288D01*
X95178213Y-80310292D01*
X95289707Y-80421786D01*
X95289711Y-80421789D01*
X95420814Y-80509390D01*
X95420827Y-80509397D01*
X95566498Y-80569735D01*
X95566503Y-80569737D01*
X95721153Y-80600499D01*
X95721156Y-80600500D01*
X95721158Y-80600500D01*
X95878844Y-80600500D01*
X95878845Y-80600499D01*
X96033497Y-80569737D01*
X96179179Y-80509394D01*
X96310289Y-80421789D01*
X96421789Y-80310289D01*
X96509394Y-80179179D01*
X96569737Y-80033497D01*
X96600500Y-79878842D01*
X96600500Y-79721158D01*
X96600500Y-79721155D01*
X96600499Y-79721153D01*
X96569737Y-79566503D01*
X96560410Y-79543986D01*
X96550952Y-79521153D01*
X99199500Y-79521153D01*
X99199500Y-79678846D01*
X99230261Y-79833489D01*
X99230264Y-79833501D01*
X99290602Y-79979172D01*
X99290609Y-79979185D01*
X99378210Y-80110288D01*
X99378213Y-80110292D01*
X99489707Y-80221786D01*
X99489711Y-80221789D01*
X99620814Y-80309390D01*
X99620827Y-80309397D01*
X99766498Y-80369735D01*
X99766503Y-80369737D01*
X99921153Y-80400499D01*
X99921156Y-80400500D01*
X99921158Y-80400500D01*
X100078844Y-80400500D01*
X100078845Y-80400499D01*
X100233497Y-80369737D01*
X100379179Y-80309394D01*
X100510289Y-80221789D01*
X100621789Y-80110289D01*
X100709394Y-79979179D01*
X100769737Y-79833497D01*
X100771211Y-79826085D01*
X100803590Y-79764174D01*
X100864303Y-79729596D01*
X100934073Y-79733330D01*
X100980510Y-79762589D01*
X100989707Y-79771786D01*
X100989711Y-79771789D01*
X101120814Y-79859390D01*
X101120827Y-79859397D01*
X101266498Y-79919735D01*
X101266503Y-79919737D01*
X101421153Y-79950499D01*
X101421156Y-79950500D01*
X101421158Y-79950500D01*
X101578844Y-79950500D01*
X101578845Y-79950499D01*
X101733497Y-79919737D01*
X101879179Y-79859394D01*
X102010289Y-79771789D01*
X102121789Y-79660289D01*
X102209394Y-79529179D01*
X102212719Y-79521153D01*
X102223067Y-79496166D01*
X102269737Y-79383497D01*
X102300500Y-79228842D01*
X102300500Y-79071158D01*
X102300500Y-79071155D01*
X102300499Y-79071153D01*
X102290405Y-79020406D01*
X102269737Y-78916503D01*
X102269735Y-78916498D01*
X102209397Y-78770827D01*
X102209390Y-78770814D01*
X102121789Y-78639711D01*
X102121786Y-78639707D01*
X102010292Y-78528213D01*
X102010288Y-78528210D01*
X101879185Y-78440609D01*
X101879172Y-78440602D01*
X101733501Y-78380264D01*
X101733489Y-78380261D01*
X101578845Y-78349500D01*
X101578842Y-78349500D01*
X101421158Y-78349500D01*
X101421155Y-78349500D01*
X101266510Y-78380261D01*
X101266498Y-78380264D01*
X101120827Y-78440602D01*
X101120814Y-78440609D01*
X100989711Y-78528210D01*
X100989707Y-78528213D01*
X100878213Y-78639707D01*
X100878210Y-78639711D01*
X100790609Y-78770814D01*
X100790602Y-78770827D01*
X100730264Y-78916498D01*
X100730261Y-78916507D01*
X100728787Y-78923922D01*
X100696401Y-78985832D01*
X100635685Y-79020406D01*
X100565916Y-79016665D01*
X100519489Y-78987410D01*
X100510292Y-78978213D01*
X100510288Y-78978210D01*
X100379185Y-78890609D01*
X100379172Y-78890602D01*
X100233501Y-78830264D01*
X100233489Y-78830261D01*
X100078845Y-78799500D01*
X100078842Y-78799500D01*
X99921158Y-78799500D01*
X99921155Y-78799500D01*
X99766510Y-78830261D01*
X99766498Y-78830264D01*
X99620827Y-78890602D01*
X99620814Y-78890609D01*
X99489711Y-78978210D01*
X99489707Y-78978213D01*
X99378213Y-79089707D01*
X99378210Y-79089711D01*
X99290609Y-79220814D01*
X99290602Y-79220827D01*
X99230264Y-79366498D01*
X99230261Y-79366510D01*
X99199500Y-79521153D01*
X96550952Y-79521153D01*
X96509397Y-79420827D01*
X96509390Y-79420814D01*
X96421789Y-79289711D01*
X96421786Y-79289707D01*
X96310292Y-79178213D01*
X96310288Y-79178210D01*
X96179185Y-79090609D01*
X96179172Y-79090602D01*
X96033501Y-79030264D01*
X96033489Y-79030261D01*
X95878845Y-78999500D01*
X95878842Y-78999500D01*
X95721158Y-78999500D01*
X95721155Y-78999500D01*
X95566510Y-79030261D01*
X95566498Y-79030264D01*
X95420827Y-79090602D01*
X95420814Y-79090609D01*
X95289711Y-79178210D01*
X95289707Y-79178213D01*
X95178213Y-79289707D01*
X95178210Y-79289711D01*
X95090609Y-79420814D01*
X95090602Y-79420827D01*
X95030264Y-79566498D01*
X95030261Y-79566510D01*
X94999500Y-79721153D01*
X67560500Y-79721153D01*
X67560500Y-77731153D01*
X115249500Y-77731153D01*
X115249500Y-77888846D01*
X115280261Y-78043489D01*
X115280264Y-78043501D01*
X115340602Y-78189172D01*
X115340609Y-78189185D01*
X115428210Y-78320288D01*
X115428213Y-78320292D01*
X115539707Y-78431786D01*
X115539711Y-78431789D01*
X115670814Y-78519390D01*
X115670827Y-78519397D01*
X115815665Y-78579390D01*
X115816503Y-78579737D01*
X115971153Y-78610499D01*
X115971156Y-78610500D01*
X115971158Y-78610500D01*
X116128844Y-78610500D01*
X116128845Y-78610499D01*
X116283497Y-78579737D01*
X116429179Y-78519394D01*
X116560289Y-78431789D01*
X116671789Y-78320289D01*
X116759394Y-78189179D01*
X116819737Y-78043497D01*
X116850500Y-77888842D01*
X116850500Y-77791153D01*
X120609500Y-77791153D01*
X120609500Y-77948846D01*
X120640261Y-78103489D01*
X120640264Y-78103501D01*
X120700602Y-78249172D01*
X120700609Y-78249185D01*
X120788210Y-78380288D01*
X120788213Y-78380292D01*
X120899707Y-78491786D01*
X120899711Y-78491789D01*
X121030814Y-78579390D01*
X121030827Y-78579397D01*
X121176440Y-78639711D01*
X121176503Y-78639737D01*
X121331153Y-78670499D01*
X121331156Y-78670500D01*
X121331158Y-78670500D01*
X121488844Y-78670500D01*
X121488845Y-78670499D01*
X121643497Y-78639737D01*
X121789179Y-78579394D01*
X121920289Y-78491789D01*
X122031789Y-78380289D01*
X122119394Y-78249179D01*
X122179737Y-78103497D01*
X122210500Y-77948842D01*
X122210500Y-77791158D01*
X122210500Y-77791155D01*
X122210499Y-77791153D01*
X122198565Y-77731158D01*
X122179737Y-77636503D01*
X122179735Y-77636498D01*
X122119397Y-77490827D01*
X122119390Y-77490814D01*
X122031789Y-77359711D01*
X122031786Y-77359707D01*
X121920292Y-77248213D01*
X121920288Y-77248210D01*
X121789185Y-77160609D01*
X121789172Y-77160602D01*
X121643501Y-77100264D01*
X121643489Y-77100261D01*
X121488845Y-77069500D01*
X121488842Y-77069500D01*
X121331158Y-77069500D01*
X121331155Y-77069500D01*
X121176510Y-77100261D01*
X121176498Y-77100264D01*
X121030827Y-77160602D01*
X121030814Y-77160609D01*
X120899711Y-77248210D01*
X120899707Y-77248213D01*
X120788213Y-77359707D01*
X120788210Y-77359711D01*
X120700609Y-77490814D01*
X120700602Y-77490827D01*
X120640264Y-77636498D01*
X120640261Y-77636510D01*
X120609500Y-77791153D01*
X116850500Y-77791153D01*
X116850500Y-77731158D01*
X116850500Y-77731155D01*
X116850499Y-77731153D01*
X116819738Y-77576510D01*
X116819737Y-77576503D01*
X116784244Y-77490814D01*
X116759397Y-77430827D01*
X116759390Y-77430814D01*
X116671789Y-77299711D01*
X116671786Y-77299707D01*
X116560292Y-77188213D01*
X116560288Y-77188210D01*
X116429185Y-77100609D01*
X116429172Y-77100602D01*
X116283501Y-77040264D01*
X116283489Y-77040261D01*
X116128845Y-77009500D01*
X116128842Y-77009500D01*
X115971158Y-77009500D01*
X115971155Y-77009500D01*
X115816510Y-77040261D01*
X115816498Y-77040264D01*
X115670827Y-77100602D01*
X115670814Y-77100609D01*
X115539711Y-77188210D01*
X115539707Y-77188213D01*
X115428213Y-77299707D01*
X115428210Y-77299711D01*
X115340609Y-77430814D01*
X115340602Y-77430827D01*
X115280264Y-77576498D01*
X115280261Y-77576510D01*
X115249500Y-77731153D01*
X67560500Y-77731153D01*
X67560500Y-76753758D01*
X67580185Y-76686719D01*
X67632989Y-76640964D01*
X67702147Y-76631020D01*
X67765703Y-76660045D01*
X67787603Y-76684869D01*
X67800910Y-76704785D01*
X67800914Y-76704790D01*
X67939611Y-76843487D01*
X67939615Y-76843490D01*
X68102705Y-76952464D01*
X68102709Y-76952466D01*
X68102712Y-76952468D01*
X68283936Y-77027534D01*
X68476317Y-77065801D01*
X68476320Y-77065802D01*
X68476322Y-77065802D01*
X69485280Y-77065802D01*
X69485281Y-77065801D01*
X69677664Y-77027534D01*
X69858888Y-76952468D01*
X70021985Y-76843490D01*
X70160688Y-76704787D01*
X70269666Y-76541690D01*
X70344732Y-76360466D01*
X70383000Y-76168080D01*
X70383000Y-75971924D01*
X70383000Y-75971921D01*
X70382999Y-75971919D01*
X71606200Y-75971919D01*
X71606200Y-76168084D01*
X71644466Y-76360458D01*
X71644468Y-76360466D01*
X71719532Y-76541686D01*
X71719537Y-76541696D01*
X71828511Y-76704786D01*
X71828514Y-76704790D01*
X71967211Y-76843487D01*
X71967215Y-76843490D01*
X72130305Y-76952464D01*
X72130309Y-76952466D01*
X72130312Y-76952468D01*
X72311536Y-77027534D01*
X72503917Y-77065801D01*
X72503920Y-77065802D01*
X72503922Y-77065802D01*
X73817680Y-77065802D01*
X73817681Y-77065801D01*
X74010064Y-77027534D01*
X74191288Y-76952468D01*
X74354385Y-76843490D01*
X74493088Y-76704787D01*
X74602066Y-76541690D01*
X74677132Y-76360466D01*
X74715400Y-76168080D01*
X74715400Y-75971924D01*
X74715400Y-75971921D01*
X74715399Y-75971919D01*
X74708903Y-75939257D01*
X74705302Y-75921153D01*
X87699500Y-75921153D01*
X87699500Y-76078846D01*
X87730261Y-76233489D01*
X87730264Y-76233501D01*
X87790602Y-76379172D01*
X87790609Y-76379185D01*
X87878210Y-76510288D01*
X87878213Y-76510292D01*
X87989707Y-76621786D01*
X87989711Y-76621789D01*
X88120814Y-76709390D01*
X88120827Y-76709397D01*
X88227926Y-76753758D01*
X88266503Y-76769737D01*
X88421153Y-76800499D01*
X88421156Y-76800500D01*
X88421158Y-76800500D01*
X88578844Y-76800500D01*
X88578845Y-76800499D01*
X88733497Y-76769737D01*
X88879179Y-76709394D01*
X89010289Y-76621789D01*
X89121789Y-76510289D01*
X89209394Y-76379179D01*
X89269737Y-76233497D01*
X89300500Y-76078842D01*
X89300500Y-75921158D01*
X89300500Y-75921155D01*
X89300499Y-75921153D01*
X89280734Y-75821789D01*
X89269737Y-75766503D01*
X89246452Y-75710288D01*
X89209397Y-75620827D01*
X89209390Y-75620814D01*
X89121789Y-75489711D01*
X89121786Y-75489707D01*
X89010292Y-75378213D01*
X89010288Y-75378210D01*
X88879185Y-75290609D01*
X88879172Y-75290602D01*
X88733501Y-75230264D01*
X88733489Y-75230261D01*
X88578845Y-75199500D01*
X88578842Y-75199500D01*
X88421158Y-75199500D01*
X88421155Y-75199500D01*
X88266510Y-75230261D01*
X88266498Y-75230264D01*
X88120827Y-75290602D01*
X88120814Y-75290609D01*
X87989711Y-75378210D01*
X87989707Y-75378213D01*
X87878213Y-75489707D01*
X87878210Y-75489711D01*
X87790609Y-75620814D01*
X87790602Y-75620827D01*
X87730264Y-75766498D01*
X87730261Y-75766510D01*
X87699500Y-75921153D01*
X74705302Y-75921153D01*
X74677133Y-75779545D01*
X74677132Y-75779538D01*
X74602066Y-75598314D01*
X74602064Y-75598311D01*
X74602062Y-75598307D01*
X74493088Y-75435217D01*
X74493085Y-75435213D01*
X74354388Y-75296516D01*
X74354384Y-75296513D01*
X74191294Y-75187539D01*
X74191284Y-75187534D01*
X74031027Y-75121153D01*
X97599500Y-75121153D01*
X97599500Y-75278846D01*
X97630261Y-75433489D01*
X97630264Y-75433501D01*
X97690602Y-75579172D01*
X97690609Y-75579185D01*
X97778210Y-75710288D01*
X97778213Y-75710292D01*
X97889707Y-75821786D01*
X97889711Y-75821789D01*
X98020814Y-75909390D01*
X98020827Y-75909397D01*
X98166498Y-75969735D01*
X98166503Y-75969737D01*
X98321153Y-76000499D01*
X98321156Y-76000500D01*
X98321158Y-76000500D01*
X98478844Y-76000500D01*
X98478845Y-76000499D01*
X98633497Y-75969737D01*
X98779179Y-75909394D01*
X98910289Y-75821789D01*
X99021789Y-75710289D01*
X99109394Y-75579179D01*
X99169737Y-75433497D01*
X99200500Y-75278842D01*
X99200500Y-75121158D01*
X99200500Y-75121155D01*
X99200499Y-75121153D01*
X99177115Y-75003595D01*
X99169737Y-74966503D01*
X99169735Y-74966498D01*
X99109397Y-74820827D01*
X99109390Y-74820814D01*
X99021789Y-74689711D01*
X99021786Y-74689707D01*
X98910292Y-74578213D01*
X98910288Y-74578210D01*
X98779185Y-74490609D01*
X98779172Y-74490602D01*
X98633501Y-74430264D01*
X98633489Y-74430261D01*
X98478845Y-74399500D01*
X98478842Y-74399500D01*
X98321158Y-74399500D01*
X98321155Y-74399500D01*
X98166510Y-74430261D01*
X98166498Y-74430264D01*
X98020827Y-74490602D01*
X98020814Y-74490609D01*
X97889711Y-74578210D01*
X97889707Y-74578213D01*
X97778213Y-74689707D01*
X97778210Y-74689711D01*
X97690609Y-74820814D01*
X97690602Y-74820827D01*
X97630264Y-74966498D01*
X97630261Y-74966510D01*
X97599500Y-75121153D01*
X74031027Y-75121153D01*
X74010064Y-75112470D01*
X74010056Y-75112468D01*
X73817681Y-75074202D01*
X73817678Y-75074202D01*
X73295423Y-75074202D01*
X73228384Y-75054517D01*
X73182629Y-75001713D01*
X73172685Y-74932555D01*
X73188035Y-74888204D01*
X73195048Y-74876055D01*
X73201927Y-74864141D01*
X73241501Y-74716450D01*
X73241501Y-74563548D01*
X73201927Y-74415857D01*
X73125512Y-74283501D01*
X73125479Y-74283444D01*
X73125475Y-74283439D01*
X73017360Y-74175324D01*
X73017355Y-74175320D01*
X72884945Y-74098874D01*
X72884944Y-74098873D01*
X72868982Y-74094596D01*
X72737252Y-74059299D01*
X72584350Y-74059299D01*
X72495735Y-74083043D01*
X72436657Y-74098873D01*
X72436656Y-74098874D01*
X72304246Y-74175320D01*
X72304241Y-74175324D01*
X72196126Y-74283439D01*
X72196122Y-74283444D01*
X72119676Y-74415854D01*
X72119675Y-74415855D01*
X72099888Y-74489702D01*
X72080101Y-74563548D01*
X72080101Y-74716450D01*
X72108067Y-74820821D01*
X72119675Y-74864142D01*
X72119676Y-74864143D01*
X72200188Y-75003595D01*
X72197851Y-75004944D01*
X72218268Y-75057732D01*
X72204241Y-75126179D01*
X72155435Y-75176177D01*
X72142159Y-75182628D01*
X72130313Y-75187535D01*
X72130305Y-75187539D01*
X71967215Y-75296513D01*
X71967211Y-75296516D01*
X71828514Y-75435213D01*
X71828511Y-75435217D01*
X71719537Y-75598307D01*
X71719532Y-75598317D01*
X71644468Y-75779537D01*
X71644466Y-75779545D01*
X71606200Y-75971919D01*
X70382999Y-75971919D01*
X70372901Y-75921153D01*
X70344732Y-75779538D01*
X70269666Y-75598314D01*
X70269664Y-75598311D01*
X70269662Y-75598307D01*
X70160688Y-75435217D01*
X70160685Y-75435213D01*
X70021988Y-75296516D01*
X70021984Y-75296513D01*
X69858894Y-75187539D01*
X69858884Y-75187534D01*
X69677664Y-75112470D01*
X69677656Y-75112468D01*
X69485281Y-75074202D01*
X69485278Y-75074202D01*
X68476322Y-75074202D01*
X68476319Y-75074202D01*
X68283943Y-75112468D01*
X68283935Y-75112470D01*
X68102715Y-75187534D01*
X68102705Y-75187539D01*
X67939615Y-75296513D01*
X67939611Y-75296516D01*
X67800914Y-75435213D01*
X67800911Y-75435217D01*
X67787602Y-75455136D01*
X67733989Y-75499941D01*
X67664664Y-75508648D01*
X67601637Y-75478493D01*
X67564918Y-75419050D01*
X67560500Y-75386245D01*
X67560500Y-73971153D01*
X74199500Y-73971153D01*
X74199500Y-74128846D01*
X74230261Y-74283489D01*
X74230264Y-74283501D01*
X74290602Y-74429172D01*
X74290609Y-74429185D01*
X74378210Y-74560288D01*
X74378213Y-74560292D01*
X74489707Y-74671786D01*
X74489711Y-74671789D01*
X74620814Y-74759390D01*
X74620827Y-74759397D01*
X74766498Y-74819735D01*
X74766503Y-74819737D01*
X74921153Y-74850499D01*
X74921156Y-74850500D01*
X74921158Y-74850500D01*
X75078844Y-74850500D01*
X75078845Y-74850499D01*
X75233497Y-74819737D01*
X75379179Y-74759394D01*
X75510289Y-74671789D01*
X75621789Y-74560289D01*
X75709394Y-74429179D01*
X75769737Y-74283497D01*
X75800500Y-74128842D01*
X75800500Y-73971158D01*
X75800500Y-73971155D01*
X75800499Y-73971153D01*
X75769738Y-73816510D01*
X75769737Y-73816503D01*
X75769735Y-73816498D01*
X75709397Y-73670827D01*
X75709390Y-73670814D01*
X75621789Y-73539711D01*
X75621786Y-73539707D01*
X75510292Y-73428213D01*
X75510288Y-73428210D01*
X75379185Y-73340609D01*
X75379172Y-73340602D01*
X75233501Y-73280264D01*
X75233489Y-73280261D01*
X75078845Y-73249500D01*
X75078842Y-73249500D01*
X74921158Y-73249500D01*
X74921155Y-73249500D01*
X74766510Y-73280261D01*
X74766498Y-73280264D01*
X74620827Y-73340602D01*
X74620814Y-73340609D01*
X74489711Y-73428210D01*
X74489707Y-73428213D01*
X74378213Y-73539707D01*
X74378210Y-73539711D01*
X74290609Y-73670814D01*
X74290602Y-73670827D01*
X74230264Y-73816498D01*
X74230261Y-73816510D01*
X74199500Y-73971153D01*
X67560500Y-73971153D01*
X67560500Y-72671153D01*
X76199500Y-72671153D01*
X76199500Y-72828846D01*
X76230261Y-72983489D01*
X76230264Y-72983501D01*
X76290602Y-73129172D01*
X76290609Y-73129185D01*
X76378210Y-73260288D01*
X76378213Y-73260292D01*
X76489707Y-73371786D01*
X76489711Y-73371789D01*
X76620814Y-73459390D01*
X76620827Y-73459397D01*
X76766498Y-73519735D01*
X76766503Y-73519737D01*
X76921153Y-73550499D01*
X76921156Y-73550500D01*
X76921158Y-73550500D01*
X77078844Y-73550500D01*
X77078845Y-73550499D01*
X77233497Y-73519737D01*
X77379179Y-73459394D01*
X77510289Y-73371789D01*
X77621789Y-73260289D01*
X77709394Y-73129179D01*
X77769737Y-72983497D01*
X77800500Y-72828842D01*
X77800500Y-72671158D01*
X77800500Y-72671155D01*
X77800499Y-72671153D01*
X77769738Y-72516510D01*
X77769737Y-72516503D01*
X77769735Y-72516498D01*
X77709397Y-72370827D01*
X77709390Y-72370814D01*
X77621789Y-72239711D01*
X77621786Y-72239707D01*
X77510292Y-72128213D01*
X77510288Y-72128210D01*
X77379185Y-72040609D01*
X77379172Y-72040602D01*
X77233501Y-71980264D01*
X77233489Y-71980261D01*
X77078845Y-71949500D01*
X77078842Y-71949500D01*
X76921158Y-71949500D01*
X76921155Y-71949500D01*
X76766510Y-71980261D01*
X76766498Y-71980264D01*
X76620827Y-72040602D01*
X76620814Y-72040609D01*
X76489711Y-72128210D01*
X76489707Y-72128213D01*
X76378213Y-72239707D01*
X76378210Y-72239711D01*
X76290609Y-72370814D01*
X76290602Y-72370827D01*
X76230264Y-72516498D01*
X76230261Y-72516510D01*
X76199500Y-72671153D01*
X67560500Y-72671153D01*
X67560500Y-71371153D01*
X96199500Y-71371153D01*
X96199500Y-71528846D01*
X96230261Y-71683489D01*
X96230264Y-71683501D01*
X96290602Y-71829172D01*
X96290609Y-71829185D01*
X96378210Y-71960288D01*
X96378213Y-71960292D01*
X96489707Y-72071786D01*
X96489711Y-72071789D01*
X96620814Y-72159390D01*
X96620827Y-72159397D01*
X96766498Y-72219735D01*
X96766503Y-72219737D01*
X96921153Y-72250499D01*
X96921156Y-72250500D01*
X96921158Y-72250500D01*
X97078844Y-72250500D01*
X97078845Y-72250499D01*
X97233497Y-72219737D01*
X97379179Y-72159394D01*
X97510289Y-72071789D01*
X97621789Y-71960289D01*
X97709394Y-71829179D01*
X97769737Y-71683497D01*
X97800500Y-71528842D01*
X97800500Y-71371158D01*
X97800500Y-71371155D01*
X97800499Y-71371153D01*
X97769738Y-71216510D01*
X97769737Y-71216503D01*
X97769735Y-71216498D01*
X97709397Y-71070827D01*
X97709390Y-71070814D01*
X97621789Y-70939711D01*
X97621786Y-70939707D01*
X97510292Y-70828213D01*
X97510288Y-70828210D01*
X97379185Y-70740609D01*
X97379172Y-70740602D01*
X97233501Y-70680264D01*
X97233489Y-70680261D01*
X97078845Y-70649500D01*
X97078842Y-70649500D01*
X96921158Y-70649500D01*
X96921155Y-70649500D01*
X96766510Y-70680261D01*
X96766498Y-70680264D01*
X96620827Y-70740602D01*
X96620814Y-70740609D01*
X96489711Y-70828210D01*
X96489707Y-70828213D01*
X96378213Y-70939707D01*
X96378210Y-70939711D01*
X96290609Y-71070814D01*
X96290602Y-71070827D01*
X96230264Y-71216498D01*
X96230261Y-71216510D01*
X96199500Y-71371153D01*
X67560500Y-71371153D01*
X67560500Y-69621153D01*
X113799500Y-69621153D01*
X113799500Y-69778846D01*
X113830261Y-69933489D01*
X113830264Y-69933501D01*
X113890602Y-70079172D01*
X113890609Y-70079185D01*
X113978210Y-70210288D01*
X113978213Y-70210292D01*
X114089707Y-70321786D01*
X114089711Y-70321789D01*
X114220814Y-70409390D01*
X114220827Y-70409397D01*
X114366498Y-70469735D01*
X114366503Y-70469737D01*
X114521153Y-70500499D01*
X114521156Y-70500500D01*
X114521158Y-70500500D01*
X114678844Y-70500500D01*
X114678845Y-70500499D01*
X114833497Y-70469737D01*
X114979179Y-70409394D01*
X115110289Y-70321789D01*
X115221789Y-70210289D01*
X115281348Y-70121153D01*
X120599500Y-70121153D01*
X120599500Y-70278846D01*
X120630261Y-70433489D01*
X120630264Y-70433501D01*
X120690602Y-70579172D01*
X120690609Y-70579185D01*
X120778210Y-70710288D01*
X120778213Y-70710292D01*
X120889707Y-70821786D01*
X120889711Y-70821789D01*
X121020814Y-70909390D01*
X121020827Y-70909397D01*
X121094013Y-70939711D01*
X121166503Y-70969737D01*
X121321153Y-71000499D01*
X121321156Y-71000500D01*
X121321158Y-71000500D01*
X121478844Y-71000500D01*
X121478845Y-71000499D01*
X121633497Y-70969737D01*
X121779179Y-70909394D01*
X121910289Y-70821789D01*
X122021789Y-70710289D01*
X122109394Y-70579179D01*
X122169737Y-70433497D01*
X122200500Y-70278842D01*
X122200500Y-70121158D01*
X122200500Y-70121155D01*
X122200499Y-70121153D01*
X122169738Y-69966510D01*
X122169737Y-69966503D01*
X122140163Y-69895104D01*
X122109397Y-69820827D01*
X122109390Y-69820814D01*
X122021789Y-69689711D01*
X122021786Y-69689707D01*
X121910292Y-69578213D01*
X121910288Y-69578210D01*
X121779185Y-69490609D01*
X121779172Y-69490602D01*
X121633501Y-69430264D01*
X121633489Y-69430261D01*
X121478845Y-69399500D01*
X121478842Y-69399500D01*
X121321158Y-69399500D01*
X121321155Y-69399500D01*
X121166510Y-69430261D01*
X121166498Y-69430264D01*
X121020827Y-69490602D01*
X121020814Y-69490609D01*
X120889711Y-69578210D01*
X120889707Y-69578213D01*
X120778213Y-69689707D01*
X120778210Y-69689711D01*
X120690609Y-69820814D01*
X120690602Y-69820827D01*
X120630264Y-69966498D01*
X120630261Y-69966510D01*
X120599500Y-70121153D01*
X115281348Y-70121153D01*
X115309394Y-70079179D01*
X115369737Y-69933497D01*
X115400500Y-69778842D01*
X115400500Y-69621158D01*
X115400500Y-69621155D01*
X115400499Y-69621153D01*
X115374531Y-69490606D01*
X115369737Y-69466503D01*
X115359050Y-69440701D01*
X115309397Y-69320827D01*
X115309390Y-69320814D01*
X115221789Y-69189711D01*
X115221786Y-69189707D01*
X115110292Y-69078213D01*
X115110288Y-69078210D01*
X114979185Y-68990609D01*
X114979172Y-68990602D01*
X114833501Y-68930264D01*
X114833489Y-68930261D01*
X114678845Y-68899500D01*
X114678842Y-68899500D01*
X114521158Y-68899500D01*
X114521155Y-68899500D01*
X114366510Y-68930261D01*
X114366498Y-68930264D01*
X114220827Y-68990602D01*
X114220814Y-68990609D01*
X114089711Y-69078210D01*
X114089707Y-69078213D01*
X113978213Y-69189707D01*
X113978210Y-69189711D01*
X113890609Y-69320814D01*
X113890602Y-69320827D01*
X113830264Y-69466498D01*
X113830261Y-69466510D01*
X113799500Y-69621153D01*
X67560500Y-69621153D01*
X67560500Y-68113754D01*
X67580185Y-68046715D01*
X67632989Y-68000960D01*
X67702147Y-67991016D01*
X67765703Y-68020041D01*
X67787603Y-68044865D01*
X67800910Y-68064781D01*
X67800914Y-68064786D01*
X67939611Y-68203483D01*
X67939615Y-68203486D01*
X68102705Y-68312460D01*
X68102709Y-68312462D01*
X68102712Y-68312464D01*
X68283936Y-68387530D01*
X68476317Y-68425797D01*
X68476320Y-68425798D01*
X68476322Y-68425798D01*
X69485280Y-68425798D01*
X69485281Y-68425797D01*
X69677664Y-68387530D01*
X69858888Y-68312464D01*
X70021985Y-68203486D01*
X70160688Y-68064783D01*
X70269666Y-67901686D01*
X70344732Y-67720462D01*
X70383000Y-67528076D01*
X70383000Y-67331920D01*
X70383000Y-67331917D01*
X70382999Y-67331915D01*
X71606200Y-67331915D01*
X71606200Y-67528080D01*
X71644466Y-67720454D01*
X71644468Y-67720462D01*
X71719532Y-67901682D01*
X71719537Y-67901692D01*
X71828511Y-68064782D01*
X71828514Y-68064786D01*
X71967211Y-68203483D01*
X71967215Y-68203486D01*
X72130305Y-68312460D01*
X72130309Y-68312462D01*
X72130312Y-68312464D01*
X72136023Y-68314829D01*
X72142153Y-68317369D01*
X72196557Y-68361211D01*
X72218621Y-68427505D01*
X72201341Y-68495204D01*
X72198213Y-68499825D01*
X72119676Y-68635856D01*
X72119675Y-68635857D01*
X72110598Y-68669735D01*
X72080101Y-68783550D01*
X72080101Y-68936452D01*
X72097263Y-69000500D01*
X72119675Y-69084144D01*
X72119676Y-69084145D01*
X72196122Y-69216555D01*
X72196124Y-69216558D01*
X72196125Y-69216559D01*
X72304243Y-69324677D01*
X72436659Y-69401127D01*
X72584350Y-69440701D01*
X72584353Y-69440701D01*
X72737249Y-69440701D01*
X72737252Y-69440701D01*
X72884943Y-69401127D01*
X73017359Y-69324677D01*
X73125477Y-69216559D01*
X73201927Y-69084143D01*
X73241501Y-68936452D01*
X73241501Y-68783550D01*
X73201927Y-68635859D01*
X73200000Y-68632521D01*
X73188035Y-68611796D01*
X73171564Y-68543896D01*
X73194417Y-68477869D01*
X73249339Y-68434680D01*
X73295423Y-68425798D01*
X73817680Y-68425798D01*
X73817681Y-68425797D01*
X74010064Y-68387530D01*
X74191288Y-68312464D01*
X74354385Y-68203486D01*
X74436718Y-68121153D01*
X107499500Y-68121153D01*
X107499500Y-68278846D01*
X107530261Y-68433489D01*
X107530264Y-68433501D01*
X107590602Y-68579172D01*
X107590609Y-68579185D01*
X107678210Y-68710288D01*
X107678213Y-68710292D01*
X107789707Y-68821786D01*
X107789711Y-68821789D01*
X107920814Y-68909390D01*
X107920827Y-68909397D01*
X107986145Y-68936452D01*
X108066503Y-68969737D01*
X108221153Y-69000499D01*
X108221156Y-69000500D01*
X108221158Y-69000500D01*
X108378844Y-69000500D01*
X108378845Y-69000499D01*
X108533497Y-68969737D01*
X108679179Y-68909394D01*
X108810289Y-68821789D01*
X108921789Y-68710289D01*
X109009394Y-68579179D01*
X109069737Y-68433497D01*
X109100500Y-68278842D01*
X109100500Y-68121158D01*
X109100500Y-68121155D01*
X109100499Y-68121153D01*
X109080386Y-68020041D01*
X109069737Y-67966503D01*
X109042889Y-67901686D01*
X109009397Y-67820827D01*
X109009390Y-67820814D01*
X108921789Y-67689711D01*
X108921786Y-67689707D01*
X108810292Y-67578213D01*
X108810288Y-67578210D01*
X108679185Y-67490609D01*
X108679172Y-67490602D01*
X108533501Y-67430264D01*
X108533489Y-67430261D01*
X108378845Y-67399500D01*
X108378842Y-67399500D01*
X108221158Y-67399500D01*
X108221155Y-67399500D01*
X108066510Y-67430261D01*
X108066498Y-67430264D01*
X107920827Y-67490602D01*
X107920814Y-67490609D01*
X107789711Y-67578210D01*
X107789707Y-67578213D01*
X107678213Y-67689707D01*
X107678210Y-67689711D01*
X107590609Y-67820814D01*
X107590602Y-67820827D01*
X107530264Y-67966498D01*
X107530261Y-67966510D01*
X107499500Y-68121153D01*
X74436718Y-68121153D01*
X74493088Y-68064783D01*
X74505161Y-68046715D01*
X74505522Y-68046175D01*
X74602062Y-67901692D01*
X74602062Y-67901691D01*
X74602066Y-67901686D01*
X74677132Y-67720462D01*
X74715400Y-67528076D01*
X74715400Y-67331920D01*
X74715400Y-67331917D01*
X74715399Y-67331915D01*
X74710192Y-67305740D01*
X74677132Y-67139534D01*
X74602066Y-66958310D01*
X74602064Y-66958307D01*
X74602062Y-66958303D01*
X74493088Y-66795213D01*
X74493085Y-66795209D01*
X74354388Y-66656512D01*
X74354384Y-66656509D01*
X74242563Y-66581792D01*
X108554059Y-66581792D01*
X108554059Y-66739485D01*
X108584820Y-66894128D01*
X108584823Y-66894140D01*
X108645161Y-67039811D01*
X108645168Y-67039824D01*
X108732769Y-67170927D01*
X108732772Y-67170931D01*
X108844266Y-67282425D01*
X108844270Y-67282428D01*
X108975373Y-67370029D01*
X108975386Y-67370036D01*
X109121057Y-67430374D01*
X109121062Y-67430376D01*
X109275712Y-67461138D01*
X109275715Y-67461139D01*
X109275717Y-67461139D01*
X109433403Y-67461139D01*
X109433404Y-67461138D01*
X109588056Y-67430376D01*
X109731034Y-67371153D01*
X113599500Y-67371153D01*
X113599500Y-67528846D01*
X113630261Y-67683489D01*
X113630264Y-67683501D01*
X113690602Y-67829172D01*
X113690609Y-67829185D01*
X113778210Y-67960288D01*
X113778213Y-67960292D01*
X113889707Y-68071786D01*
X113889711Y-68071789D01*
X114020814Y-68159390D01*
X114020827Y-68159397D01*
X114166498Y-68219735D01*
X114166503Y-68219737D01*
X114321153Y-68250499D01*
X114321156Y-68250500D01*
X114321158Y-68250500D01*
X114478844Y-68250500D01*
X114478845Y-68250499D01*
X114633497Y-68219737D01*
X114779179Y-68159394D01*
X114910289Y-68071789D01*
X115021789Y-67960289D01*
X115109394Y-67829179D01*
X115112719Y-67821153D01*
X115131775Y-67775145D01*
X115169737Y-67683497D01*
X115200500Y-67528842D01*
X115200500Y-67371158D01*
X115200500Y-67371155D01*
X115200499Y-67371153D01*
X115182012Y-67278213D01*
X115169737Y-67216503D01*
X115169735Y-67216498D01*
X115109397Y-67070827D01*
X115109390Y-67070814D01*
X115021789Y-66939711D01*
X115021786Y-66939707D01*
X114910292Y-66828213D01*
X114910288Y-66828210D01*
X114779185Y-66740609D01*
X114779172Y-66740602D01*
X114633501Y-66680264D01*
X114633489Y-66680261D01*
X114478845Y-66649500D01*
X114478842Y-66649500D01*
X114321158Y-66649500D01*
X114321155Y-66649500D01*
X114166510Y-66680261D01*
X114166498Y-66680264D01*
X114020827Y-66740602D01*
X114020814Y-66740609D01*
X113889711Y-66828210D01*
X113889707Y-66828213D01*
X113778213Y-66939707D01*
X113778210Y-66939711D01*
X113690609Y-67070814D01*
X113690602Y-67070827D01*
X113630264Y-67216498D01*
X113630261Y-67216510D01*
X113599500Y-67371153D01*
X109731034Y-67371153D01*
X109733738Y-67370033D01*
X109864848Y-67282428D01*
X109864851Y-67282425D01*
X109869892Y-67277385D01*
X109976345Y-67170931D01*
X109976348Y-67170928D01*
X110063953Y-67039818D01*
X110124296Y-66894136D01*
X110155059Y-66739481D01*
X110155059Y-66581797D01*
X110155059Y-66581794D01*
X110155058Y-66581792D01*
X110148243Y-66547530D01*
X110124296Y-66427142D01*
X110124294Y-66427137D01*
X110063956Y-66281466D01*
X110063949Y-66281453D01*
X109976348Y-66150350D01*
X109976345Y-66150346D01*
X109864851Y-66038852D01*
X109864847Y-66038849D01*
X109733744Y-65951248D01*
X109733731Y-65951241D01*
X109588060Y-65890903D01*
X109588048Y-65890900D01*
X109433404Y-65860139D01*
X109433401Y-65860139D01*
X109275717Y-65860139D01*
X109275714Y-65860139D01*
X109121069Y-65890900D01*
X109121057Y-65890903D01*
X108975386Y-65951241D01*
X108975373Y-65951248D01*
X108844270Y-66038849D01*
X108844266Y-66038852D01*
X108732772Y-66150346D01*
X108732769Y-66150350D01*
X108645168Y-66281453D01*
X108645161Y-66281466D01*
X108584823Y-66427137D01*
X108584820Y-66427149D01*
X108554059Y-66581792D01*
X74242563Y-66581792D01*
X74191294Y-66547535D01*
X74191284Y-66547530D01*
X74010064Y-66472466D01*
X74010056Y-66472464D01*
X73817681Y-66434198D01*
X73817678Y-66434198D01*
X72503922Y-66434198D01*
X72503919Y-66434198D01*
X72311543Y-66472464D01*
X72311535Y-66472466D01*
X72130315Y-66547530D01*
X72130305Y-66547535D01*
X71967215Y-66656509D01*
X71967211Y-66656512D01*
X71828514Y-66795209D01*
X71828511Y-66795213D01*
X71719537Y-66958303D01*
X71719532Y-66958313D01*
X71644468Y-67139533D01*
X71644466Y-67139541D01*
X71606200Y-67331915D01*
X70382999Y-67331915D01*
X70377792Y-67305740D01*
X70344732Y-67139534D01*
X70269666Y-66958310D01*
X70269664Y-66958307D01*
X70269662Y-66958303D01*
X70160688Y-66795213D01*
X70160685Y-66795209D01*
X70021988Y-66656512D01*
X70021984Y-66656509D01*
X69858894Y-66547535D01*
X69858884Y-66547530D01*
X69677664Y-66472466D01*
X69677656Y-66472464D01*
X69485281Y-66434198D01*
X69485278Y-66434198D01*
X68476322Y-66434198D01*
X68476319Y-66434198D01*
X68283943Y-66472464D01*
X68283935Y-66472466D01*
X68102715Y-66547530D01*
X68102705Y-66547535D01*
X67939615Y-66656509D01*
X67939611Y-66656512D01*
X67800914Y-66795209D01*
X67800911Y-66795213D01*
X67787602Y-66815132D01*
X67733989Y-66859937D01*
X67664664Y-66868644D01*
X67601637Y-66838489D01*
X67564918Y-66779046D01*
X67560500Y-66746241D01*
X67560500Y-65321153D01*
X83949500Y-65321153D01*
X83949500Y-65478846D01*
X83980261Y-65633489D01*
X83980264Y-65633501D01*
X84040602Y-65779172D01*
X84040609Y-65779185D01*
X84128210Y-65910288D01*
X84128213Y-65910292D01*
X84239707Y-66021786D01*
X84239711Y-66021789D01*
X84370814Y-66109390D01*
X84370827Y-66109397D01*
X84469698Y-66150350D01*
X84516503Y-66169737D01*
X84671153Y-66200499D01*
X84671156Y-66200500D01*
X84671158Y-66200500D01*
X84828844Y-66200500D01*
X84828845Y-66200499D01*
X84983497Y-66169737D01*
X85129179Y-66109394D01*
X85260289Y-66021789D01*
X85371789Y-65910289D01*
X85459394Y-65779179D01*
X85519737Y-65633497D01*
X85542083Y-65521158D01*
X85542084Y-65521153D01*
X91199500Y-65521153D01*
X91199500Y-65678846D01*
X91230261Y-65833489D01*
X91230264Y-65833501D01*
X91290602Y-65979172D01*
X91290609Y-65979185D01*
X91378210Y-66110288D01*
X91378213Y-66110292D01*
X91489707Y-66221786D01*
X91489711Y-66221789D01*
X91620814Y-66309390D01*
X91620827Y-66309397D01*
X91737269Y-66357628D01*
X91766503Y-66369737D01*
X91921153Y-66400499D01*
X91921156Y-66400500D01*
X91921158Y-66400500D01*
X92078844Y-66400500D01*
X92078845Y-66400499D01*
X92233497Y-66369737D01*
X92363815Y-66315758D01*
X92379172Y-66309397D01*
X92379172Y-66309396D01*
X92379179Y-66309394D01*
X92510289Y-66221789D01*
X92621789Y-66110289D01*
X92709394Y-65979179D01*
X92769737Y-65833497D01*
X92800500Y-65678842D01*
X92800500Y-65521158D01*
X92800500Y-65521155D01*
X92800499Y-65521153D01*
X92794476Y-65490874D01*
X92769737Y-65366503D01*
X92750955Y-65321158D01*
X92709397Y-65220827D01*
X92709390Y-65220814D01*
X92621789Y-65089711D01*
X92621786Y-65089707D01*
X92510292Y-64978213D01*
X92510288Y-64978210D01*
X92379185Y-64890609D01*
X92379172Y-64890602D01*
X92233501Y-64830264D01*
X92233489Y-64830261D01*
X92078845Y-64799500D01*
X92078842Y-64799500D01*
X91921158Y-64799500D01*
X91921155Y-64799500D01*
X91766510Y-64830261D01*
X91766498Y-64830264D01*
X91620827Y-64890602D01*
X91620814Y-64890609D01*
X91489711Y-64978210D01*
X91489707Y-64978213D01*
X91378213Y-65089707D01*
X91378210Y-65089711D01*
X91290609Y-65220814D01*
X91290602Y-65220827D01*
X91230264Y-65366498D01*
X91230261Y-65366510D01*
X91199500Y-65521153D01*
X85542084Y-65521153D01*
X85548107Y-65490875D01*
X85548107Y-65490874D01*
X85550500Y-65478844D01*
X85550500Y-65321155D01*
X85550499Y-65321153D01*
X85530543Y-65220827D01*
X85519737Y-65166503D01*
X85499421Y-65117455D01*
X85459397Y-65020827D01*
X85459390Y-65020814D01*
X85371789Y-64889711D01*
X85371786Y-64889707D01*
X85260292Y-64778213D01*
X85260288Y-64778210D01*
X85129185Y-64690609D01*
X85129172Y-64690602D01*
X84983501Y-64630264D01*
X84983489Y-64630261D01*
X84828845Y-64599500D01*
X84828842Y-64599500D01*
X84671158Y-64599500D01*
X84671155Y-64599500D01*
X84516510Y-64630261D01*
X84516498Y-64630264D01*
X84370827Y-64690602D01*
X84370814Y-64690609D01*
X84239711Y-64778210D01*
X84239707Y-64778213D01*
X84128213Y-64889707D01*
X84128210Y-64889711D01*
X84040609Y-65020814D01*
X84040602Y-65020827D01*
X83980264Y-65166498D01*
X83980261Y-65166510D01*
X83949500Y-65321153D01*
X67560500Y-65321153D01*
X67560500Y-63021153D01*
X107599500Y-63021153D01*
X107599500Y-63178846D01*
X107630261Y-63333489D01*
X107630264Y-63333501D01*
X107690602Y-63479172D01*
X107690609Y-63479185D01*
X107778210Y-63610288D01*
X107778213Y-63610292D01*
X107889707Y-63721786D01*
X107889711Y-63721789D01*
X108020814Y-63809390D01*
X108020827Y-63809397D01*
X108166498Y-63869735D01*
X108166503Y-63869737D01*
X108321153Y-63900499D01*
X108321156Y-63900500D01*
X108321158Y-63900500D01*
X108478844Y-63900500D01*
X108478845Y-63900499D01*
X108633497Y-63869737D01*
X108779179Y-63809394D01*
X108910289Y-63721789D01*
X109021789Y-63610289D01*
X109109394Y-63479179D01*
X109169737Y-63333497D01*
X109200500Y-63178842D01*
X109200500Y-63021158D01*
X109200500Y-63021155D01*
X109200499Y-63021153D01*
X109178269Y-62909397D01*
X109169737Y-62866503D01*
X109169735Y-62866498D01*
X109109397Y-62720827D01*
X109109390Y-62720814D01*
X109021789Y-62589711D01*
X109021786Y-62589707D01*
X108910292Y-62478213D01*
X108910288Y-62478210D01*
X108779185Y-62390609D01*
X108779172Y-62390602D01*
X108633501Y-62330264D01*
X108633489Y-62330261D01*
X108478845Y-62299500D01*
X108478842Y-62299500D01*
X108321158Y-62299500D01*
X108321155Y-62299500D01*
X108166510Y-62330261D01*
X108166498Y-62330264D01*
X108020827Y-62390602D01*
X108020814Y-62390609D01*
X107889711Y-62478210D01*
X107889707Y-62478213D01*
X107778213Y-62589707D01*
X107778210Y-62589711D01*
X107690609Y-62720814D01*
X107690602Y-62720827D01*
X107630264Y-62866498D01*
X107630261Y-62866510D01*
X107599500Y-63021153D01*
X67560500Y-63021153D01*
X67560500Y-62121153D01*
X83399500Y-62121153D01*
X83399500Y-62278846D01*
X83430261Y-62433489D01*
X83430264Y-62433501D01*
X83490602Y-62579172D01*
X83490609Y-62579185D01*
X83578210Y-62710288D01*
X83578213Y-62710292D01*
X83689707Y-62821786D01*
X83689711Y-62821789D01*
X83820814Y-62909390D01*
X83820827Y-62909397D01*
X83966498Y-62969735D01*
X83966503Y-62969737D01*
X84121153Y-63000499D01*
X84121156Y-63000500D01*
X84121158Y-63000500D01*
X84278844Y-63000500D01*
X84278845Y-63000499D01*
X84433497Y-62969737D01*
X84579179Y-62909394D01*
X84710289Y-62821789D01*
X84821789Y-62710289D01*
X84909394Y-62579179D01*
X84969737Y-62433497D01*
X85000500Y-62278842D01*
X85000500Y-62121158D01*
X85000500Y-62121155D01*
X85000499Y-62121153D01*
X84974264Y-61989257D01*
X84970662Y-61971153D01*
X86199500Y-61971153D01*
X86199500Y-62128846D01*
X86230261Y-62283489D01*
X86230264Y-62283501D01*
X86290602Y-62429172D01*
X86290609Y-62429185D01*
X86378210Y-62560288D01*
X86378213Y-62560292D01*
X86489707Y-62671786D01*
X86489711Y-62671789D01*
X86620814Y-62759390D01*
X86620827Y-62759397D01*
X86766498Y-62819735D01*
X86766503Y-62819737D01*
X86921153Y-62850499D01*
X86921156Y-62850500D01*
X86921158Y-62850500D01*
X87078844Y-62850500D01*
X87078845Y-62850499D01*
X87233497Y-62819737D01*
X87379179Y-62759394D01*
X87510289Y-62671789D01*
X87621789Y-62560289D01*
X87709394Y-62429179D01*
X87769737Y-62283497D01*
X87800500Y-62128842D01*
X87800500Y-61971158D01*
X87800500Y-61971155D01*
X87800499Y-61971153D01*
X87774264Y-61839257D01*
X87770662Y-61821153D01*
X115499500Y-61821153D01*
X115499500Y-61978846D01*
X115530261Y-62133489D01*
X115530264Y-62133501D01*
X115590602Y-62279172D01*
X115590609Y-62279185D01*
X115678210Y-62410288D01*
X115678213Y-62410292D01*
X115789707Y-62521786D01*
X115789711Y-62521789D01*
X115920814Y-62609390D01*
X115920827Y-62609397D01*
X116004563Y-62644081D01*
X116066503Y-62669737D01*
X116221153Y-62700499D01*
X116221156Y-62700500D01*
X116221158Y-62700500D01*
X116378844Y-62700500D01*
X116378845Y-62700499D01*
X116533497Y-62669737D01*
X116679179Y-62609394D01*
X116810289Y-62521789D01*
X116921789Y-62410289D01*
X117009394Y-62279179D01*
X117069737Y-62133497D01*
X117100500Y-61978842D01*
X117100500Y-61821158D01*
X117100500Y-61821155D01*
X117100499Y-61821153D01*
X117074353Y-61689711D01*
X117069737Y-61666503D01*
X117037818Y-61589442D01*
X117020684Y-61548077D01*
X123340700Y-61548077D01*
X123340700Y-61751746D01*
X123380430Y-61951482D01*
X123380433Y-61951494D01*
X123458365Y-62139640D01*
X123458372Y-62139653D01*
X123571516Y-62308984D01*
X123571519Y-62308988D01*
X123715523Y-62452992D01*
X123715527Y-62452995D01*
X123884858Y-62566139D01*
X123884871Y-62566146D01*
X124073017Y-62644078D01*
X124073022Y-62644080D01*
X124202000Y-62669735D01*
X124272765Y-62683811D01*
X124272769Y-62683812D01*
X124272770Y-62683812D01*
X124476431Y-62683812D01*
X124476432Y-62683811D01*
X124676178Y-62644080D01*
X124864335Y-62566143D01*
X124930712Y-62521790D01*
X124997386Y-62500914D01*
X125064766Y-62519398D01*
X125068430Y-62521752D01*
X125134865Y-62566143D01*
X125134868Y-62566144D01*
X125134871Y-62566146D01*
X125323017Y-62644078D01*
X125323022Y-62644080D01*
X125452000Y-62669735D01*
X125522765Y-62683811D01*
X125522769Y-62683812D01*
X125522770Y-62683812D01*
X125726431Y-62683812D01*
X125726432Y-62683811D01*
X125926178Y-62644080D01*
X126114335Y-62566143D01*
X126283673Y-62452995D01*
X126427683Y-62308985D01*
X126540831Y-62139647D01*
X126548492Y-62121153D01*
X126607437Y-61978846D01*
X126618768Y-61951490D01*
X126658500Y-61751742D01*
X126658500Y-61548082D01*
X126618768Y-61348334D01*
X126590572Y-61280263D01*
X126540834Y-61160183D01*
X126540827Y-61160170D01*
X126427683Y-60990839D01*
X126427680Y-60990835D01*
X126283676Y-60846831D01*
X126283672Y-60846828D01*
X126114341Y-60733684D01*
X126114328Y-60733677D01*
X125926182Y-60655745D01*
X125926170Y-60655742D01*
X125726434Y-60616012D01*
X125726430Y-60616012D01*
X125522770Y-60616012D01*
X125522765Y-60616012D01*
X125323029Y-60655742D01*
X125323017Y-60655745D01*
X125134871Y-60733677D01*
X125134858Y-60733684D01*
X125068491Y-60778030D01*
X125001813Y-60798908D01*
X124934433Y-60780423D01*
X124930709Y-60778030D01*
X124864341Y-60733684D01*
X124864328Y-60733677D01*
X124676182Y-60655745D01*
X124676170Y-60655742D01*
X124476434Y-60616012D01*
X124476430Y-60616012D01*
X124272770Y-60616012D01*
X124272765Y-60616012D01*
X124073029Y-60655742D01*
X124073017Y-60655745D01*
X123884871Y-60733677D01*
X123884858Y-60733684D01*
X123715527Y-60846828D01*
X123715523Y-60846831D01*
X123571519Y-60990835D01*
X123571516Y-60990839D01*
X123458372Y-61160170D01*
X123458365Y-61160183D01*
X123380433Y-61348329D01*
X123380430Y-61348341D01*
X123340700Y-61548077D01*
X117020684Y-61548077D01*
X117009397Y-61520827D01*
X117009390Y-61520814D01*
X116921789Y-61389711D01*
X116921786Y-61389707D01*
X116810292Y-61278213D01*
X116810288Y-61278210D01*
X116679185Y-61190609D01*
X116679172Y-61190602D01*
X116533501Y-61130264D01*
X116533489Y-61130261D01*
X116378845Y-61099500D01*
X116378842Y-61099500D01*
X116221158Y-61099500D01*
X116221155Y-61099500D01*
X116066510Y-61130261D01*
X116066498Y-61130264D01*
X115920827Y-61190602D01*
X115920814Y-61190609D01*
X115789711Y-61278210D01*
X115789707Y-61278213D01*
X115678213Y-61389707D01*
X115678210Y-61389711D01*
X115590609Y-61520814D01*
X115590602Y-61520827D01*
X115530264Y-61666498D01*
X115530261Y-61666510D01*
X115499500Y-61821153D01*
X87770662Y-61821153D01*
X87769738Y-61816507D01*
X87769735Y-61816498D01*
X87709397Y-61670827D01*
X87709390Y-61670814D01*
X87621789Y-61539711D01*
X87621786Y-61539707D01*
X87510292Y-61428213D01*
X87510288Y-61428210D01*
X87379185Y-61340609D01*
X87379172Y-61340602D01*
X87233501Y-61280264D01*
X87233489Y-61280261D01*
X87078845Y-61249500D01*
X87078842Y-61249500D01*
X86921158Y-61249500D01*
X86921155Y-61249500D01*
X86766510Y-61280261D01*
X86766498Y-61280264D01*
X86620827Y-61340602D01*
X86620814Y-61340609D01*
X86489711Y-61428210D01*
X86489707Y-61428213D01*
X86378213Y-61539707D01*
X86378210Y-61539711D01*
X86290609Y-61670814D01*
X86290602Y-61670827D01*
X86230264Y-61816498D01*
X86230261Y-61816510D01*
X86199500Y-61971153D01*
X84970662Y-61971153D01*
X84969738Y-61966507D01*
X84969735Y-61966498D01*
X84909397Y-61820827D01*
X84909390Y-61820814D01*
X84821789Y-61689711D01*
X84821786Y-61689707D01*
X84710292Y-61578213D01*
X84710288Y-61578210D01*
X84579185Y-61490609D01*
X84579172Y-61490602D01*
X84433501Y-61430264D01*
X84433489Y-61430261D01*
X84278845Y-61399500D01*
X84278842Y-61399500D01*
X84121158Y-61399500D01*
X84121155Y-61399500D01*
X83966510Y-61430261D01*
X83966498Y-61430264D01*
X83820827Y-61490602D01*
X83820814Y-61490609D01*
X83689711Y-61578210D01*
X83689707Y-61578213D01*
X83578213Y-61689707D01*
X83578210Y-61689711D01*
X83490609Y-61820814D01*
X83490602Y-61820827D01*
X83430264Y-61966498D01*
X83430261Y-61966510D01*
X83399500Y-62121153D01*
X67560500Y-62121153D01*
X67560500Y-59321153D01*
X87399500Y-59321153D01*
X87399500Y-59478846D01*
X87430261Y-59633489D01*
X87430264Y-59633501D01*
X87490602Y-59779172D01*
X87490609Y-59779185D01*
X87578210Y-59910288D01*
X87578213Y-59910292D01*
X87689707Y-60021786D01*
X87689711Y-60021789D01*
X87820814Y-60109390D01*
X87820827Y-60109397D01*
X87966498Y-60169735D01*
X87966503Y-60169737D01*
X88121153Y-60200499D01*
X88121156Y-60200500D01*
X88121158Y-60200500D01*
X88278844Y-60200500D01*
X88278845Y-60200499D01*
X88433497Y-60169737D01*
X88579179Y-60109394D01*
X88710289Y-60021789D01*
X88821789Y-59910289D01*
X88909394Y-59779179D01*
X88969737Y-59633497D01*
X89000500Y-59478842D01*
X89000500Y-59321158D01*
X89000500Y-59321155D01*
X89000499Y-59321153D01*
X88969738Y-59166510D01*
X88969737Y-59166503D01*
X88969735Y-59166498D01*
X88909397Y-59020827D01*
X88909390Y-59020814D01*
X88821789Y-58889711D01*
X88821786Y-58889707D01*
X88710292Y-58778213D01*
X88710288Y-58778210D01*
X88579185Y-58690609D01*
X88579172Y-58690602D01*
X88433501Y-58630264D01*
X88433489Y-58630261D01*
X88278845Y-58599500D01*
X88278842Y-58599500D01*
X88121158Y-58599500D01*
X88121155Y-58599500D01*
X87966510Y-58630261D01*
X87966498Y-58630264D01*
X87820827Y-58690602D01*
X87820814Y-58690609D01*
X87689711Y-58778210D01*
X87689707Y-58778213D01*
X87578213Y-58889707D01*
X87578210Y-58889711D01*
X87490609Y-59020814D01*
X87490602Y-59020827D01*
X87430264Y-59166498D01*
X87430261Y-59166510D01*
X87399500Y-59321153D01*
X67560500Y-59321153D01*
X67560500Y-57921153D01*
X76599500Y-57921153D01*
X76599500Y-58078846D01*
X76630261Y-58233489D01*
X76630264Y-58233501D01*
X76690602Y-58379172D01*
X76690609Y-58379185D01*
X76778210Y-58510288D01*
X76778213Y-58510292D01*
X76889707Y-58621786D01*
X76889711Y-58621789D01*
X77020814Y-58709390D01*
X77020827Y-58709397D01*
X77166498Y-58769735D01*
X77166503Y-58769737D01*
X77321153Y-58800499D01*
X77321156Y-58800500D01*
X77321158Y-58800500D01*
X77478844Y-58800500D01*
X77478845Y-58800499D01*
X77633497Y-58769737D01*
X77779179Y-58709394D01*
X77910289Y-58621789D01*
X78021789Y-58510289D01*
X78109394Y-58379179D01*
X78169737Y-58233497D01*
X78200500Y-58078842D01*
X78200500Y-57921158D01*
X78200500Y-57921155D01*
X78200499Y-57921153D01*
X78182204Y-57829179D01*
X78169737Y-57766503D01*
X78142398Y-57700500D01*
X78109397Y-57620827D01*
X78109390Y-57620814D01*
X78021789Y-57489711D01*
X78021786Y-57489707D01*
X77910292Y-57378213D01*
X77910288Y-57378210D01*
X77779185Y-57290609D01*
X77779172Y-57290602D01*
X77633501Y-57230264D01*
X77633489Y-57230261D01*
X77478845Y-57199500D01*
X77478842Y-57199500D01*
X77321158Y-57199500D01*
X77321155Y-57199500D01*
X77166510Y-57230261D01*
X77166498Y-57230264D01*
X77020827Y-57290602D01*
X77020814Y-57290609D01*
X76889711Y-57378210D01*
X76889707Y-57378213D01*
X76778213Y-57489707D01*
X76778210Y-57489711D01*
X76690609Y-57620814D01*
X76690602Y-57620827D01*
X76630264Y-57766498D01*
X76630261Y-57766510D01*
X76599500Y-57921153D01*
X67560500Y-57921153D01*
X67560500Y-56061153D01*
X80699500Y-56061153D01*
X80699500Y-56218846D01*
X80730261Y-56373489D01*
X80730264Y-56373501D01*
X80790602Y-56519172D01*
X80790609Y-56519185D01*
X80878210Y-56650288D01*
X80878213Y-56650292D01*
X80989707Y-56761786D01*
X80989711Y-56761789D01*
X81120814Y-56849390D01*
X81120827Y-56849397D01*
X81266498Y-56909735D01*
X81266503Y-56909737D01*
X81421153Y-56940499D01*
X81421156Y-56940500D01*
X81421158Y-56940500D01*
X81578844Y-56940500D01*
X81578845Y-56940499D01*
X81733497Y-56909737D01*
X81879179Y-56849394D01*
X82010289Y-56761789D01*
X82033065Y-56739012D01*
X82094386Y-56705528D01*
X82164077Y-56710511D01*
X82220012Y-56752382D01*
X82230106Y-56768245D01*
X82230604Y-56769177D01*
X82318210Y-56900288D01*
X82318213Y-56900292D01*
X82429707Y-57011786D01*
X82429711Y-57011789D01*
X82560814Y-57099390D01*
X82560827Y-57099397D01*
X82643163Y-57133501D01*
X82706503Y-57159737D01*
X82861153Y-57190499D01*
X82861156Y-57190500D01*
X82861158Y-57190500D01*
X83018844Y-57190500D01*
X83018845Y-57190499D01*
X83173497Y-57159737D01*
X83319179Y-57099394D01*
X83450289Y-57011789D01*
X83561789Y-56900289D01*
X83614666Y-56821153D01*
X107449500Y-56821153D01*
X107449500Y-56978846D01*
X107480261Y-57133489D01*
X107480264Y-57133501D01*
X107540602Y-57279172D01*
X107540609Y-57279185D01*
X107628210Y-57410288D01*
X107628213Y-57410292D01*
X107739707Y-57521786D01*
X107739711Y-57521789D01*
X107870814Y-57609390D01*
X107870827Y-57609397D01*
X108016498Y-57669735D01*
X108016503Y-57669737D01*
X108171153Y-57700499D01*
X108171156Y-57700500D01*
X108171158Y-57700500D01*
X108328844Y-57700500D01*
X108328845Y-57700499D01*
X108483497Y-57669737D01*
X108601592Y-57620821D01*
X108629172Y-57609397D01*
X108629172Y-57609396D01*
X108629179Y-57609394D01*
X108760289Y-57521789D01*
X108871789Y-57410289D01*
X108897938Y-57371153D01*
X113699500Y-57371153D01*
X113699500Y-57528846D01*
X113730261Y-57683489D01*
X113730264Y-57683501D01*
X113790602Y-57829172D01*
X113790609Y-57829185D01*
X113878210Y-57960288D01*
X113878213Y-57960292D01*
X113989707Y-58071786D01*
X113989711Y-58071789D01*
X114120814Y-58159390D01*
X114120827Y-58159397D01*
X114220060Y-58200500D01*
X114266503Y-58219737D01*
X114421153Y-58250499D01*
X114421156Y-58250500D01*
X114421158Y-58250500D01*
X114578844Y-58250500D01*
X114578845Y-58250499D01*
X114733497Y-58219737D01*
X114879179Y-58159394D01*
X115010289Y-58071789D01*
X115121789Y-57960289D01*
X115209394Y-57829179D01*
X115269737Y-57683497D01*
X115300500Y-57528842D01*
X115300500Y-57371158D01*
X115300500Y-57371155D01*
X115300499Y-57371153D01*
X115285585Y-57296175D01*
X115269737Y-57216503D01*
X115258966Y-57190499D01*
X115209397Y-57070827D01*
X115209390Y-57070814D01*
X115121789Y-56939711D01*
X115121786Y-56939707D01*
X115010292Y-56828213D01*
X115010288Y-56828210D01*
X114879185Y-56740609D01*
X114879172Y-56740602D01*
X114733501Y-56680264D01*
X114733489Y-56680261D01*
X114578845Y-56649500D01*
X114578842Y-56649500D01*
X114421158Y-56649500D01*
X114421155Y-56649500D01*
X114266510Y-56680261D01*
X114266498Y-56680264D01*
X114120827Y-56740602D01*
X114120814Y-56740609D01*
X113989711Y-56828210D01*
X113989707Y-56828213D01*
X113878213Y-56939707D01*
X113878210Y-56939711D01*
X113790609Y-57070814D01*
X113790602Y-57070827D01*
X113730264Y-57216498D01*
X113730261Y-57216510D01*
X113699500Y-57371153D01*
X108897938Y-57371153D01*
X108920537Y-57337331D01*
X108948038Y-57296175D01*
X108948038Y-57296174D01*
X108959394Y-57279179D01*
X109019737Y-57133497D01*
X109050500Y-56978842D01*
X109050500Y-56821158D01*
X109050500Y-56821155D01*
X109050499Y-56821153D01*
X109039849Y-56767611D01*
X109019737Y-56666503D01*
X109012694Y-56649500D01*
X108959397Y-56520827D01*
X108959390Y-56520814D01*
X108868405Y-56384646D01*
X108870351Y-56383345D01*
X108847105Y-56328591D01*
X108858905Y-56259725D01*
X108901381Y-56211149D01*
X108960289Y-56171789D01*
X109071789Y-56060289D01*
X109159394Y-55929179D01*
X109219737Y-55783497D01*
X109250500Y-55628842D01*
X109250500Y-55471158D01*
X109250500Y-55471155D01*
X109250499Y-55471153D01*
X109244687Y-55441936D01*
X109219737Y-55316503D01*
X109210524Y-55294260D01*
X109170354Y-55197280D01*
X109162885Y-55127811D01*
X109194160Y-55065332D01*
X109254249Y-55029680D01*
X109309104Y-55028211D01*
X109372575Y-55040836D01*
X109421156Y-55050500D01*
X109421158Y-55050500D01*
X109578844Y-55050500D01*
X109578845Y-55050499D01*
X109733497Y-55019737D01*
X109879179Y-54959394D01*
X110010289Y-54871789D01*
X110121789Y-54760289D01*
X110209394Y-54629179D01*
X110269737Y-54483497D01*
X110300500Y-54328842D01*
X110300500Y-54171158D01*
X110300500Y-54171155D01*
X110300499Y-54171153D01*
X110284298Y-54089707D01*
X110269737Y-54016503D01*
X110269735Y-54016498D01*
X110209397Y-53870827D01*
X110209391Y-53870816D01*
X110191168Y-53843543D01*
X110191167Y-53843542D01*
X110147848Y-53778711D01*
X121949500Y-53778711D01*
X121949500Y-54021288D01*
X121975768Y-54220821D01*
X121981162Y-54261789D01*
X121999130Y-54328846D01*
X122043947Y-54496104D01*
X122125003Y-54691789D01*
X122136776Y-54720212D01*
X122258064Y-54930289D01*
X122258066Y-54930292D01*
X122258067Y-54930293D01*
X122405733Y-55122736D01*
X122405739Y-55122743D01*
X122577256Y-55294260D01*
X122577263Y-55294266D01*
X122676302Y-55370261D01*
X122769711Y-55441936D01*
X122979788Y-55563224D01*
X123203900Y-55656054D01*
X123438211Y-55718838D01*
X123618586Y-55742584D01*
X123678711Y-55750500D01*
X123678712Y-55750500D01*
X123921289Y-55750500D01*
X123969388Y-55744167D01*
X124161789Y-55718838D01*
X124396100Y-55656054D01*
X124620212Y-55563224D01*
X124830289Y-55441936D01*
X125022738Y-55294265D01*
X125194265Y-55122738D01*
X125341936Y-54930289D01*
X125463224Y-54720212D01*
X125556054Y-54496100D01*
X125618838Y-54261789D01*
X125650500Y-54021288D01*
X125650500Y-53778712D01*
X125618838Y-53538211D01*
X125556054Y-53303900D01*
X125463224Y-53079788D01*
X125341936Y-52869711D01*
X125227944Y-52721153D01*
X125194266Y-52677263D01*
X125194260Y-52677256D01*
X125022743Y-52505739D01*
X125022736Y-52505733D01*
X124830293Y-52358067D01*
X124830292Y-52358066D01*
X124830289Y-52358064D01*
X124620212Y-52236776D01*
X124620205Y-52236773D01*
X124396104Y-52143947D01*
X124161785Y-52081161D01*
X123921289Y-52049500D01*
X123921288Y-52049500D01*
X123678712Y-52049500D01*
X123678711Y-52049500D01*
X123438214Y-52081161D01*
X123203895Y-52143947D01*
X122979794Y-52236773D01*
X122979785Y-52236777D01*
X122769706Y-52358067D01*
X122577263Y-52505733D01*
X122577256Y-52505739D01*
X122405739Y-52677256D01*
X122405733Y-52677263D01*
X122258067Y-52869706D01*
X122136777Y-53079785D01*
X122136773Y-53079794D01*
X122043947Y-53303895D01*
X121981161Y-53538214D01*
X121949500Y-53778711D01*
X110147848Y-53778711D01*
X110121789Y-53739711D01*
X110121786Y-53739707D01*
X110010292Y-53628213D01*
X110010288Y-53628210D01*
X109879185Y-53540609D01*
X109879172Y-53540602D01*
X109733501Y-53480264D01*
X109733489Y-53480261D01*
X109578845Y-53449500D01*
X109578842Y-53449500D01*
X109421158Y-53449500D01*
X109421155Y-53449500D01*
X109266510Y-53480261D01*
X109266498Y-53480264D01*
X109120827Y-53540602D01*
X109120814Y-53540609D01*
X108989711Y-53628210D01*
X108989707Y-53628213D01*
X108878213Y-53739707D01*
X108878210Y-53739711D01*
X108790609Y-53870814D01*
X108790602Y-53870827D01*
X108730264Y-54016498D01*
X108730261Y-54016510D01*
X108699500Y-54171153D01*
X108699500Y-54328846D01*
X108730261Y-54483489D01*
X108730264Y-54483501D01*
X108779645Y-54602719D01*
X108787114Y-54672189D01*
X108755838Y-54734668D01*
X108695749Y-54770319D01*
X108640892Y-54771788D01*
X108528844Y-54749500D01*
X108528842Y-54749500D01*
X108371158Y-54749500D01*
X108371155Y-54749500D01*
X108216510Y-54780261D01*
X108216498Y-54780264D01*
X108070827Y-54840602D01*
X108070814Y-54840609D01*
X107939711Y-54928210D01*
X107939707Y-54928213D01*
X107828213Y-55039707D01*
X107828210Y-55039711D01*
X107740609Y-55170814D01*
X107740602Y-55170827D01*
X107680264Y-55316498D01*
X107680261Y-55316510D01*
X107649500Y-55471153D01*
X107649500Y-55628846D01*
X107680261Y-55783489D01*
X107680264Y-55783501D01*
X107740602Y-55929172D01*
X107740609Y-55929185D01*
X107831595Y-56065354D01*
X107829648Y-56066654D01*
X107852895Y-56121417D01*
X107841090Y-56190282D01*
X107798618Y-56238850D01*
X107739707Y-56278213D01*
X107628213Y-56389707D01*
X107628210Y-56389711D01*
X107540609Y-56520814D01*
X107540602Y-56520827D01*
X107480264Y-56666498D01*
X107480261Y-56666510D01*
X107449500Y-56821153D01*
X83614666Y-56821153D01*
X83649394Y-56769179D01*
X83649781Y-56768245D01*
X83650044Y-56767611D01*
X83650044Y-56767610D01*
X83675759Y-56705528D01*
X83709737Y-56623497D01*
X83740500Y-56468842D01*
X83740500Y-56311158D01*
X83740500Y-56311155D01*
X83740499Y-56311153D01*
X83722137Y-56218842D01*
X83709737Y-56156503D01*
X83670242Y-56061153D01*
X83649397Y-56010827D01*
X83649390Y-56010814D01*
X83561789Y-55879711D01*
X83561786Y-55879707D01*
X83450292Y-55768213D01*
X83450288Y-55768210D01*
X83319185Y-55680609D01*
X83319172Y-55680602D01*
X83173501Y-55620264D01*
X83173489Y-55620261D01*
X83018845Y-55589500D01*
X83018842Y-55589500D01*
X82861158Y-55589500D01*
X82861155Y-55589500D01*
X82706510Y-55620261D01*
X82706498Y-55620264D01*
X82560827Y-55680602D01*
X82560814Y-55680609D01*
X82429711Y-55768210D01*
X82406933Y-55790988D01*
X82345609Y-55824472D01*
X82275917Y-55819486D01*
X82219985Y-55777614D01*
X82209889Y-55761748D01*
X82209396Y-55760826D01*
X82209394Y-55760821D01*
X82209390Y-55760815D01*
X82209389Y-55760813D01*
X82121789Y-55629711D01*
X82121786Y-55629707D01*
X82010292Y-55518213D01*
X82010288Y-55518210D01*
X81879185Y-55430609D01*
X81879172Y-55430602D01*
X81733501Y-55370264D01*
X81733489Y-55370261D01*
X81578845Y-55339500D01*
X81578842Y-55339500D01*
X81421158Y-55339500D01*
X81421155Y-55339500D01*
X81266510Y-55370261D01*
X81266498Y-55370264D01*
X81120827Y-55430602D01*
X81120814Y-55430609D01*
X80989711Y-55518210D01*
X80989707Y-55518213D01*
X80878213Y-55629707D01*
X80878210Y-55629711D01*
X80790609Y-55760814D01*
X80790602Y-55760827D01*
X80730264Y-55906498D01*
X80730261Y-55906510D01*
X80699500Y-56061153D01*
X67560500Y-56061153D01*
X67560500Y-54060711D01*
X70509500Y-54060711D01*
X70509500Y-54303288D01*
X70541161Y-54543785D01*
X70603947Y-54778104D01*
X70696773Y-55002205D01*
X70696777Y-55002214D01*
X70712635Y-55029680D01*
X70818064Y-55212289D01*
X70818066Y-55212292D01*
X70818067Y-55212293D01*
X70965733Y-55404736D01*
X70965739Y-55404743D01*
X71137256Y-55576260D01*
X71137262Y-55576265D01*
X71329711Y-55723936D01*
X71539788Y-55845224D01*
X71763900Y-55938054D01*
X71998211Y-56000838D01*
X72178586Y-56024584D01*
X72238711Y-56032500D01*
X72238712Y-56032500D01*
X72481289Y-56032500D01*
X72529388Y-56026167D01*
X72721789Y-56000838D01*
X72956100Y-55938054D01*
X73180212Y-55845224D01*
X73390289Y-55723936D01*
X73582738Y-55576265D01*
X73754265Y-55404738D01*
X73901936Y-55212289D01*
X74023224Y-55002212D01*
X74116054Y-54778100D01*
X74178838Y-54543789D01*
X74210500Y-54303288D01*
X74210500Y-54060712D01*
X74201343Y-53991153D01*
X82029500Y-53991153D01*
X82029500Y-54148846D01*
X82060261Y-54303489D01*
X82060264Y-54303501D01*
X82120602Y-54449172D01*
X82120609Y-54449185D01*
X82208210Y-54580288D01*
X82208213Y-54580292D01*
X82319707Y-54691786D01*
X82319711Y-54691789D01*
X82450814Y-54779390D01*
X82450827Y-54779397D01*
X82553165Y-54821786D01*
X82596503Y-54839737D01*
X82751153Y-54870499D01*
X82751156Y-54870500D01*
X82751158Y-54870500D01*
X82908844Y-54870500D01*
X82908845Y-54870499D01*
X83063497Y-54839737D01*
X83209179Y-54779394D01*
X83340289Y-54691789D01*
X83451789Y-54580289D01*
X83491303Y-54521153D01*
X89999500Y-54521153D01*
X89999500Y-54678846D01*
X90030261Y-54833489D01*
X90030264Y-54833501D01*
X90090602Y-54979172D01*
X90090609Y-54979185D01*
X90178210Y-55110288D01*
X90178213Y-55110292D01*
X90289707Y-55221786D01*
X90289711Y-55221789D01*
X90420814Y-55309390D01*
X90420827Y-55309397D01*
X90566498Y-55369735D01*
X90566503Y-55369737D01*
X90721153Y-55400499D01*
X90721156Y-55400500D01*
X90721158Y-55400500D01*
X90878844Y-55400500D01*
X90878845Y-55400499D01*
X91033497Y-55369737D01*
X91179179Y-55309394D01*
X91310289Y-55221789D01*
X91421789Y-55110289D01*
X91509394Y-54979179D01*
X91569737Y-54833497D01*
X91600500Y-54678842D01*
X91600500Y-54521158D01*
X91600500Y-54521155D01*
X91600499Y-54521153D01*
X91595516Y-54496100D01*
X91569737Y-54366503D01*
X91554138Y-54328844D01*
X91509397Y-54220827D01*
X91509390Y-54220814D01*
X91421789Y-54089711D01*
X91421786Y-54089707D01*
X91310292Y-53978213D01*
X91310288Y-53978210D01*
X91179185Y-53890609D01*
X91179172Y-53890602D01*
X91033501Y-53830264D01*
X91033489Y-53830261D01*
X90878845Y-53799500D01*
X90878842Y-53799500D01*
X90721158Y-53799500D01*
X90721155Y-53799500D01*
X90566510Y-53830261D01*
X90566498Y-53830264D01*
X90420827Y-53890602D01*
X90420814Y-53890609D01*
X90289711Y-53978210D01*
X90289707Y-53978213D01*
X90178213Y-54089707D01*
X90178210Y-54089711D01*
X90090609Y-54220814D01*
X90090602Y-54220827D01*
X90030264Y-54366498D01*
X90030261Y-54366510D01*
X89999500Y-54521153D01*
X83491303Y-54521153D01*
X83508040Y-54496104D01*
X83539390Y-54449186D01*
X83539397Y-54449172D01*
X83599735Y-54303501D01*
X83599737Y-54303497D01*
X83630500Y-54148842D01*
X83630500Y-53991158D01*
X83630500Y-53991155D01*
X83630499Y-53991153D01*
X83612105Y-53898682D01*
X83599737Y-53836503D01*
X83597152Y-53830263D01*
X83539397Y-53690827D01*
X83539390Y-53690814D01*
X83451789Y-53559711D01*
X83451786Y-53559707D01*
X83340292Y-53448213D01*
X83340288Y-53448210D01*
X83209185Y-53360609D01*
X83209172Y-53360602D01*
X83063501Y-53300264D01*
X83063489Y-53300261D01*
X82908845Y-53269500D01*
X82908842Y-53269500D01*
X82751158Y-53269500D01*
X82751155Y-53269500D01*
X82596510Y-53300261D01*
X82596498Y-53300264D01*
X82450827Y-53360602D01*
X82450814Y-53360609D01*
X82319711Y-53448210D01*
X82319707Y-53448213D01*
X82208213Y-53559707D01*
X82208210Y-53559711D01*
X82120609Y-53690814D01*
X82120602Y-53690827D01*
X82060264Y-53836498D01*
X82060261Y-53836510D01*
X82029500Y-53991153D01*
X74201343Y-53991153D01*
X74178838Y-53820211D01*
X74116054Y-53585900D01*
X74109359Y-53569738D01*
X74084364Y-53509394D01*
X74023224Y-53361788D01*
X73901936Y-53151711D01*
X73878488Y-53121153D01*
X104599500Y-53121153D01*
X104599500Y-53278846D01*
X104630261Y-53433489D01*
X104630264Y-53433501D01*
X104690602Y-53579172D01*
X104690609Y-53579185D01*
X104778210Y-53710288D01*
X104778213Y-53710292D01*
X104831472Y-53763551D01*
X104864957Y-53824874D01*
X104859973Y-53894566D01*
X104858353Y-53898682D01*
X104830264Y-53966497D01*
X104830261Y-53966505D01*
X104799500Y-54121153D01*
X104799500Y-54278846D01*
X104830261Y-54433489D01*
X104830264Y-54433501D01*
X104890602Y-54579172D01*
X104890609Y-54579185D01*
X104978210Y-54710288D01*
X104978213Y-54710292D01*
X105089707Y-54821786D01*
X105089711Y-54821789D01*
X105220814Y-54909390D01*
X105220827Y-54909397D01*
X105366498Y-54969735D01*
X105366503Y-54969737D01*
X105521153Y-55000499D01*
X105521156Y-55000500D01*
X105521158Y-55000500D01*
X105678844Y-55000500D01*
X105678845Y-55000499D01*
X105833497Y-54969737D01*
X105979179Y-54909394D01*
X106110289Y-54821789D01*
X106221789Y-54710289D01*
X106309394Y-54579179D01*
X106369737Y-54433497D01*
X106400500Y-54278842D01*
X106400500Y-54121158D01*
X106400500Y-54121155D01*
X106400499Y-54121153D01*
X106379684Y-54016510D01*
X106369737Y-53966503D01*
X106330105Y-53870821D01*
X106309397Y-53820827D01*
X106309390Y-53820814D01*
X106221789Y-53689711D01*
X106221786Y-53689707D01*
X106168526Y-53636447D01*
X106135041Y-53575124D01*
X106140025Y-53505432D01*
X106141630Y-53501351D01*
X106169737Y-53433497D01*
X106200500Y-53278842D01*
X106200500Y-53121158D01*
X106200500Y-53121155D01*
X106200499Y-53121153D01*
X106169738Y-52966510D01*
X106169737Y-52966503D01*
X106129643Y-52869706D01*
X106109397Y-52820827D01*
X106109390Y-52820814D01*
X106084763Y-52783957D01*
X106042798Y-52721153D01*
X113699500Y-52721153D01*
X113699500Y-52878846D01*
X113730261Y-53033489D01*
X113730264Y-53033501D01*
X113790602Y-53179172D01*
X113790609Y-53179185D01*
X113878210Y-53310288D01*
X113878213Y-53310292D01*
X113989707Y-53421786D01*
X113989711Y-53421789D01*
X114120814Y-53509390D01*
X114120827Y-53509397D01*
X114196181Y-53540609D01*
X114266503Y-53569737D01*
X114421153Y-53600499D01*
X114421156Y-53600500D01*
X114421158Y-53600500D01*
X114578844Y-53600500D01*
X114578845Y-53600499D01*
X114733497Y-53569737D01*
X114879179Y-53509394D01*
X115010289Y-53421789D01*
X115121789Y-53310289D01*
X115209394Y-53179179D01*
X115269737Y-53033497D01*
X115300500Y-52878842D01*
X115300500Y-52721158D01*
X115300500Y-52721155D01*
X115300499Y-52721153D01*
X115272066Y-52578211D01*
X115269737Y-52566503D01*
X115269735Y-52566498D01*
X115209397Y-52420827D01*
X115209390Y-52420814D01*
X115121789Y-52289711D01*
X115121786Y-52289707D01*
X115010292Y-52178213D01*
X115010288Y-52178210D01*
X114879185Y-52090609D01*
X114879172Y-52090602D01*
X114733501Y-52030264D01*
X114733489Y-52030261D01*
X114578845Y-51999500D01*
X114578842Y-51999500D01*
X114421158Y-51999500D01*
X114421155Y-51999500D01*
X114266510Y-52030261D01*
X114266498Y-52030264D01*
X114120827Y-52090602D01*
X114120814Y-52090609D01*
X113989711Y-52178210D01*
X113989707Y-52178213D01*
X113878213Y-52289707D01*
X113878210Y-52289711D01*
X113790609Y-52420814D01*
X113790602Y-52420827D01*
X113730264Y-52566498D01*
X113730261Y-52566510D01*
X113699500Y-52721153D01*
X106042798Y-52721153D01*
X106021789Y-52689711D01*
X106021786Y-52689707D01*
X105910292Y-52578213D01*
X105910288Y-52578210D01*
X105779185Y-52490609D01*
X105779172Y-52490602D01*
X105633501Y-52430264D01*
X105633489Y-52430261D01*
X105478845Y-52399500D01*
X105478842Y-52399500D01*
X105321158Y-52399500D01*
X105321155Y-52399500D01*
X105166510Y-52430261D01*
X105166498Y-52430264D01*
X105020827Y-52490602D01*
X105020814Y-52490609D01*
X104889711Y-52578210D01*
X104889707Y-52578213D01*
X104778213Y-52689707D01*
X104778210Y-52689711D01*
X104690609Y-52820814D01*
X104690602Y-52820827D01*
X104630264Y-52966498D01*
X104630261Y-52966510D01*
X104599500Y-53121153D01*
X73878488Y-53121153D01*
X73841018Y-53072321D01*
X73754266Y-52959263D01*
X73754260Y-52959256D01*
X73582743Y-52787739D01*
X73582736Y-52787733D01*
X73390293Y-52640067D01*
X73390292Y-52640066D01*
X73390289Y-52640064D01*
X73180212Y-52518776D01*
X73148738Y-52505739D01*
X72956104Y-52425947D01*
X72721785Y-52363161D01*
X72481289Y-52331500D01*
X72481288Y-52331500D01*
X72238712Y-52331500D01*
X72238711Y-52331500D01*
X71998214Y-52363161D01*
X71763895Y-52425947D01*
X71539794Y-52518773D01*
X71539785Y-52518777D01*
X71329706Y-52640067D01*
X71137263Y-52787733D01*
X71137256Y-52787739D01*
X70965739Y-52959256D01*
X70965733Y-52959263D01*
X70818067Y-53151706D01*
X70696777Y-53361785D01*
X70696773Y-53361794D01*
X70603947Y-53585895D01*
X70541161Y-53820214D01*
X70509500Y-54060711D01*
X67560500Y-54060711D01*
X67560500Y-50934500D01*
X67580185Y-50867461D01*
X67632989Y-50821706D01*
X67684500Y-50810500D01*
X126875500Y-50810500D01*
X126942539Y-50830185D01*
G37*
G04 #@! TD.AperFunction*
M02*
