G04 #@! TF.GenerationSoftware,KiCad,Pcbnew,9.0.6*
G04 #@! TF.CreationDate,2026-02-28T15:56:05-05:00*
G04 #@! TF.ProjectId,GoldenForm_1,476f6c64-656e-4466-9f72-6d5f312e6b69,rev?*
G04 #@! TF.SameCoordinates,Original*
G04 #@! TF.FileFunction,Legend,Bot*
G04 #@! TF.FilePolarity,Positive*
%FSLAX46Y46*%
G04 Gerber Fmt 4.6, Leading zero omitted, Abs format (unit mm)*
G04 Created by KiCad (PCBNEW 9.0.6) date 2026-02-28 15:56:05*
%MOMM*%
%LPD*%
G01*
G04 APERTURE LIST*
%ADD10C,0.000000*%
%ADD11C,0.200000*%
%ADD12C,0.508000*%
%ADD13C,0.120000*%
G04 APERTURE END LIST*
D10*
G36*
X98915579Y-52245428D02*
G01*
X98944108Y-52247056D01*
X98972194Y-52250096D01*
X98999799Y-52254519D01*
X99026885Y-52260292D01*
X99053415Y-52267387D01*
X99079352Y-52275771D01*
X99104659Y-52285415D01*
X99129299Y-52296287D01*
X99153235Y-52308357D01*
X99176428Y-52321593D01*
X99198843Y-52335966D01*
X99220441Y-52351445D01*
X99241186Y-52367998D01*
X99261040Y-52385595D01*
X99279967Y-52404205D01*
X99297928Y-52423798D01*
X99314887Y-52444343D01*
X99330806Y-52465809D01*
X99345649Y-52488165D01*
X99359378Y-52511381D01*
X99371955Y-52535425D01*
X99383345Y-52560268D01*
X99393508Y-52585878D01*
X99402409Y-52612225D01*
X99410009Y-52639277D01*
X99416273Y-52667005D01*
X99421162Y-52695377D01*
X99424639Y-52724363D01*
X99426667Y-52753932D01*
X99427165Y-52777715D01*
X99426603Y-52801327D01*
X99424999Y-52824738D01*
X99422367Y-52847922D01*
X99418724Y-52870850D01*
X99414084Y-52893494D01*
X99408465Y-52915827D01*
X99401882Y-52937820D01*
X99394350Y-52959445D01*
X99385885Y-52980675D01*
X99376503Y-53001482D01*
X99366220Y-53021837D01*
X99355052Y-53041713D01*
X99343014Y-53061082D01*
X99330122Y-53079915D01*
X99316393Y-53098185D01*
X99301841Y-53115865D01*
X99286482Y-53132925D01*
X99270333Y-53149338D01*
X99253408Y-53165076D01*
X99235725Y-53180112D01*
X99217298Y-53194416D01*
X99198143Y-53207962D01*
X99178276Y-53220721D01*
X99157714Y-53232665D01*
X99136471Y-53243767D01*
X99114563Y-53253998D01*
X99092007Y-53263331D01*
X99068817Y-53271738D01*
X99045011Y-53279190D01*
X99020603Y-53285659D01*
X98995609Y-53291119D01*
X98973374Y-53295129D01*
X98951071Y-53298360D01*
X98939878Y-53299631D01*
X98928648Y-53300646D01*
X98917375Y-53301383D01*
X98906051Y-53301823D01*
X98894671Y-53301945D01*
X98883228Y-53301727D01*
X98871715Y-53301150D01*
X98860125Y-53300193D01*
X98848452Y-53298836D01*
X98836690Y-53297057D01*
X98824830Y-53294837D01*
X98812868Y-53292154D01*
X98789060Y-53286703D01*
X98765733Y-53280453D01*
X98742904Y-53273419D01*
X98720589Y-53265616D01*
X98698803Y-53257056D01*
X98677563Y-53247755D01*
X98656884Y-53237726D01*
X98636783Y-53226984D01*
X98617276Y-53215542D01*
X98598378Y-53203415D01*
X98580105Y-53190617D01*
X98562473Y-53177161D01*
X98545500Y-53163063D01*
X98529199Y-53148335D01*
X98513588Y-53132993D01*
X98498681Y-53117050D01*
X98484497Y-53100520D01*
X98471049Y-53083417D01*
X98458354Y-53065757D01*
X98446429Y-53047551D01*
X98435289Y-53028816D01*
X98424950Y-53009564D01*
X98415427Y-52989810D01*
X98406738Y-52969569D01*
X98398898Y-52948853D01*
X98391923Y-52927678D01*
X98385828Y-52906057D01*
X98380631Y-52884004D01*
X98376346Y-52861534D01*
X98372990Y-52838660D01*
X98370579Y-52815397D01*
X98369129Y-52791759D01*
X98368720Y-52764923D01*
X98369656Y-52738483D01*
X98371896Y-52712464D01*
X98375403Y-52686889D01*
X98380137Y-52661782D01*
X98386057Y-52637168D01*
X98393126Y-52613071D01*
X98401302Y-52589515D01*
X98410548Y-52566524D01*
X98420824Y-52544123D01*
X98432090Y-52522335D01*
X98444306Y-52501185D01*
X98457435Y-52480697D01*
X98471435Y-52460895D01*
X98486268Y-52441803D01*
X98501895Y-52423446D01*
X98518276Y-52405847D01*
X98535371Y-52389031D01*
X98553142Y-52373022D01*
X98571548Y-52357844D01*
X98590551Y-52343521D01*
X98610112Y-52330078D01*
X98630190Y-52317538D01*
X98650746Y-52305926D01*
X98671742Y-52295266D01*
X98693137Y-52285582D01*
X98714893Y-52276899D01*
X98736970Y-52269240D01*
X98759328Y-52262629D01*
X98781928Y-52257091D01*
X98804731Y-52252650D01*
X98827698Y-52249330D01*
X98857336Y-52246535D01*
X98886642Y-52245244D01*
X98915579Y-52245428D01*
G37*
G36*
X97247254Y-52165088D02*
G01*
X97255294Y-52165748D01*
X97263292Y-52166817D01*
X97271249Y-52168296D01*
X97279166Y-52170186D01*
X97287046Y-52172486D01*
X97294889Y-52175196D01*
X97302697Y-52178318D01*
X97310471Y-52181851D01*
X97318213Y-52185795D01*
X97325924Y-52190150D01*
X97333606Y-52194918D01*
X97348887Y-52205689D01*
X97364068Y-52218110D01*
X97379160Y-52232183D01*
X97572425Y-52424740D01*
X97767203Y-52619764D01*
X98622666Y-53476172D01*
X98372778Y-53527708D01*
X98125275Y-53583604D01*
X97635325Y-53703562D01*
X97148617Y-53826210D01*
X96905167Y-53885469D01*
X96660954Y-53941714D01*
X96660980Y-53938771D01*
X96661120Y-53935959D01*
X96661369Y-53933274D01*
X96661723Y-53930711D01*
X96662175Y-53928265D01*
X96662722Y-53925931D01*
X96663357Y-53923703D01*
X96664076Y-53921577D01*
X96664874Y-53919547D01*
X96665746Y-53917609D01*
X96666687Y-53915758D01*
X96667692Y-53913988D01*
X96668755Y-53912295D01*
X96669872Y-53910673D01*
X96672246Y-53907624D01*
X96674775Y-53904801D01*
X96677418Y-53902164D01*
X96680134Y-53899672D01*
X96682884Y-53897286D01*
X96688321Y-53892669D01*
X96690929Y-53890358D01*
X96693408Y-53887992D01*
X97489769Y-53091071D01*
X97498625Y-53082177D01*
X97506302Y-53074309D01*
X97512802Y-53067324D01*
X97515612Y-53064117D01*
X97518128Y-53061076D01*
X97520352Y-53058184D01*
X97522283Y-53055423D01*
X97523922Y-53052775D01*
X97525269Y-53050222D01*
X97526325Y-53047745D01*
X97527090Y-53045328D01*
X97527564Y-53042951D01*
X97527747Y-53040597D01*
X97527640Y-53038248D01*
X97527243Y-53035887D01*
X97526557Y-53033494D01*
X97525582Y-53031052D01*
X97524318Y-53028544D01*
X97522765Y-53025951D01*
X97520925Y-53023255D01*
X97518796Y-53020439D01*
X97516380Y-53017484D01*
X97513677Y-53014372D01*
X97507411Y-53007607D01*
X97500000Y-53000000D01*
X97491448Y-52991408D01*
X97346999Y-52847851D01*
X97275057Y-52775803D01*
X97203910Y-52702990D01*
X97198770Y-52697900D01*
X97196259Y-52695606D01*
X97193781Y-52693477D01*
X97191334Y-52691511D01*
X97188913Y-52689707D01*
X97186515Y-52688062D01*
X97184136Y-52686575D01*
X97181772Y-52685244D01*
X97179420Y-52684067D01*
X97177075Y-52683042D01*
X97174734Y-52682168D01*
X97172394Y-52681443D01*
X97170050Y-52680864D01*
X97167699Y-52680431D01*
X97165337Y-52680142D01*
X97162960Y-52679994D01*
X97160564Y-52679986D01*
X97158147Y-52680116D01*
X97155703Y-52680382D01*
X97153230Y-52680782D01*
X97150723Y-52681316D01*
X97148179Y-52681980D01*
X97145594Y-52682773D01*
X97142964Y-52683693D01*
X97140286Y-52684739D01*
X97134770Y-52687200D01*
X97129015Y-52690141D01*
X97122991Y-52693549D01*
X96760334Y-52906155D01*
X96396539Y-53116806D01*
X96386836Y-53122131D01*
X96377117Y-53126966D01*
X96367393Y-53131312D01*
X96357674Y-53135173D01*
X96347970Y-53138552D01*
X96338290Y-53141453D01*
X96328647Y-53143879D01*
X96319048Y-53145833D01*
X96309506Y-53147318D01*
X96300029Y-53148338D01*
X96290629Y-53148895D01*
X96281315Y-53148994D01*
X96272097Y-53148637D01*
X96262986Y-53147827D01*
X96253992Y-53146569D01*
X96245125Y-53144864D01*
X96236395Y-53142717D01*
X96227813Y-53140130D01*
X96219388Y-53137107D01*
X96211131Y-53133651D01*
X96203052Y-53129766D01*
X96195161Y-53125454D01*
X96187469Y-53120719D01*
X96179985Y-53115564D01*
X96172720Y-53109992D01*
X96165684Y-53104007D01*
X96158887Y-53097612D01*
X96152340Y-53090810D01*
X96146051Y-53083605D01*
X96140033Y-53075999D01*
X96134295Y-53067996D01*
X96128846Y-53059599D01*
X96123700Y-53050799D01*
X96119060Y-53041918D01*
X96114923Y-53032964D01*
X96111287Y-53023950D01*
X96108149Y-53014886D01*
X96105507Y-53005784D01*
X96103358Y-52996653D01*
X96101701Y-52987505D01*
X96100531Y-52978351D01*
X96099848Y-52969202D01*
X96099649Y-52960068D01*
X96099930Y-52950961D01*
X96100690Y-52941891D01*
X96101927Y-52932870D01*
X96103637Y-52923908D01*
X96105818Y-52915016D01*
X96108469Y-52906204D01*
X96111585Y-52897485D01*
X96115166Y-52888868D01*
X96119208Y-52880365D01*
X96123709Y-52871987D01*
X96128666Y-52863744D01*
X96134077Y-52855648D01*
X96139940Y-52847708D01*
X96146253Y-52839937D01*
X96153012Y-52832345D01*
X96160215Y-52824943D01*
X96167859Y-52817741D01*
X96175944Y-52810752D01*
X96184465Y-52803984D01*
X96193420Y-52797451D01*
X96202807Y-52791162D01*
X97120603Y-52204209D01*
X97138232Y-52193697D01*
X97155612Y-52184811D01*
X97172754Y-52177553D01*
X97181239Y-52174535D01*
X97189669Y-52171925D01*
X97198045Y-52169723D01*
X97206369Y-52167929D01*
X97214642Y-52166543D01*
X97222866Y-52165566D01*
X97231041Y-52164997D01*
X97239170Y-52164838D01*
X97247254Y-52165088D01*
G37*
G36*
X99809942Y-53524553D02*
G01*
X99907505Y-53527473D01*
X100004815Y-53532842D01*
X100101859Y-53540767D01*
X100198622Y-53551357D01*
X100295089Y-53564720D01*
X100391246Y-53580966D01*
X100487078Y-53600203D01*
X100582572Y-53622539D01*
X100677712Y-53648082D01*
X100772484Y-53676943D01*
X100866874Y-53709228D01*
X100934057Y-53734429D01*
X101000348Y-53761146D01*
X101065756Y-53789363D01*
X101130288Y-53819063D01*
X101193955Y-53850231D01*
X101256766Y-53882849D01*
X101318729Y-53916902D01*
X101379854Y-53952373D01*
X101440150Y-53989246D01*
X101499626Y-54027505D01*
X101558290Y-54067132D01*
X101616153Y-54108113D01*
X101673223Y-54150430D01*
X101729509Y-54194067D01*
X101785021Y-54239008D01*
X101839767Y-54285237D01*
X101848334Y-54292888D01*
X101856455Y-54300723D01*
X101864084Y-54308760D01*
X101871173Y-54317011D01*
X101877674Y-54325495D01*
X101883541Y-54334225D01*
X101886222Y-54338687D01*
X101888726Y-54343217D01*
X101891048Y-54347816D01*
X101893182Y-54352487D01*
X101895122Y-54357231D01*
X101896862Y-54362050D01*
X101898396Y-54366946D01*
X101899718Y-54371922D01*
X101900822Y-54376978D01*
X101901703Y-54382118D01*
X101902355Y-54387343D01*
X101902770Y-54392654D01*
X101902945Y-54398054D01*
X101902873Y-54403545D01*
X101902547Y-54409128D01*
X101901962Y-54414807D01*
X101901112Y-54420581D01*
X101899992Y-54426454D01*
X101898594Y-54432428D01*
X101896914Y-54438504D01*
X101893334Y-54449400D01*
X101889244Y-54459736D01*
X101884644Y-54469513D01*
X101879536Y-54478733D01*
X101873920Y-54487397D01*
X101867795Y-54495507D01*
X101861163Y-54503063D01*
X101854025Y-54510068D01*
X101846379Y-54516523D01*
X101838227Y-54522428D01*
X101829570Y-54527787D01*
X101820407Y-54532598D01*
X101810740Y-54536865D01*
X101800568Y-54540589D01*
X101789892Y-54543771D01*
X101778713Y-54546412D01*
X101773265Y-54547391D01*
X101767871Y-54548068D01*
X101762527Y-54548458D01*
X101757230Y-54548576D01*
X101751978Y-54548437D01*
X101746768Y-54548057D01*
X101741596Y-54547451D01*
X101736461Y-54546634D01*
X101731359Y-54545621D01*
X101726288Y-54544427D01*
X101721244Y-54543069D01*
X101716225Y-54541560D01*
X101711228Y-54539916D01*
X101706250Y-54538153D01*
X101696341Y-54534328D01*
X101630048Y-54508774D01*
X101563399Y-54485475D01*
X101496404Y-54464360D01*
X101429072Y-54445361D01*
X101361413Y-54428407D01*
X101293436Y-54413428D01*
X101225150Y-54400357D01*
X101156566Y-54389121D01*
X101087691Y-54379652D01*
X101018536Y-54371881D01*
X100949110Y-54365737D01*
X100879422Y-54361151D01*
X100739299Y-54356373D01*
X100598241Y-54356991D01*
X100443997Y-54363278D01*
X100290516Y-54374911D01*
X100137716Y-54391309D01*
X99985511Y-54411889D01*
X99833818Y-54436072D01*
X99682551Y-54463274D01*
X99531627Y-54492916D01*
X99380962Y-54524416D01*
X99007367Y-54608267D01*
X98634642Y-54695990D01*
X98261602Y-54782324D01*
X98074593Y-54823324D01*
X97887061Y-54862003D01*
X97762610Y-54886054D01*
X97637974Y-54908729D01*
X97513121Y-54929895D01*
X97388022Y-54949421D01*
X97262647Y-54967173D01*
X97136967Y-54983020D01*
X97010950Y-54996829D01*
X96884568Y-55008468D01*
X96673532Y-55021956D01*
X96463343Y-55027034D01*
X96358571Y-55026294D01*
X96254017Y-55023299D01*
X96149683Y-55017999D01*
X96045572Y-55010343D01*
X95941685Y-55000281D01*
X95838024Y-54987761D01*
X95734592Y-54972733D01*
X95631391Y-54955147D01*
X95528422Y-54934952D01*
X95425689Y-54912096D01*
X95323192Y-54886529D01*
X95220935Y-54858201D01*
X95188006Y-54848239D01*
X95154848Y-54837666D01*
X95085995Y-54815435D01*
X94974752Y-54775945D01*
X94865278Y-54733502D01*
X94757528Y-54688099D01*
X94651454Y-54639724D01*
X94547010Y-54588370D01*
X94444149Y-54534027D01*
X94342825Y-54476687D01*
X94242989Y-54416339D01*
X94235716Y-54411638D01*
X94228769Y-54406819D01*
X94222149Y-54401887D01*
X94215856Y-54396843D01*
X94209891Y-54391691D01*
X94204253Y-54386434D01*
X94198945Y-54381076D01*
X94193965Y-54375619D01*
X94189315Y-54370067D01*
X94184995Y-54364424D01*
X94181006Y-54358691D01*
X94177347Y-54352873D01*
X94174019Y-54346972D01*
X94171024Y-54340993D01*
X94168360Y-54334937D01*
X94166029Y-54328808D01*
X94164032Y-54322610D01*
X94162368Y-54316346D01*
X94161038Y-54310018D01*
X94160042Y-54303630D01*
X94159382Y-54297185D01*
X94159057Y-54290687D01*
X94159067Y-54284138D01*
X94159414Y-54277542D01*
X94160098Y-54270902D01*
X94161119Y-54264221D01*
X94162478Y-54257502D01*
X94164175Y-54250749D01*
X94166210Y-54243964D01*
X94168585Y-54237151D01*
X94171299Y-54230314D01*
X94174353Y-54223454D01*
X94177594Y-54216882D01*
X94181018Y-54210583D01*
X94184624Y-54204557D01*
X94188411Y-54198806D01*
X94192377Y-54193331D01*
X94196521Y-54188133D01*
X94200842Y-54183213D01*
X94205337Y-54178571D01*
X94210006Y-54174209D01*
X94214847Y-54170129D01*
X94219859Y-54166330D01*
X94225040Y-54162813D01*
X94230388Y-54159581D01*
X94235903Y-54156634D01*
X94241583Y-54153973D01*
X94247427Y-54151598D01*
X94253433Y-54149511D01*
X94259599Y-54147714D01*
X94265925Y-54146206D01*
X94272409Y-54144989D01*
X94279049Y-54144064D01*
X94285844Y-54143432D01*
X94292793Y-54143095D01*
X94299894Y-54143052D01*
X94307146Y-54143305D01*
X94314547Y-54143855D01*
X94322096Y-54144703D01*
X94329791Y-54145850D01*
X94337632Y-54147297D01*
X94345616Y-54149045D01*
X94353743Y-54151095D01*
X94362010Y-54153448D01*
X94433568Y-54173931D01*
X94505348Y-54192477D01*
X94577339Y-54209139D01*
X94649534Y-54223969D01*
X94721923Y-54237016D01*
X94794496Y-54248334D01*
X94867245Y-54257972D01*
X94940160Y-54265982D01*
X95086450Y-54277325D01*
X95233295Y-54282771D01*
X95380618Y-54282733D01*
X95528348Y-54277620D01*
X95703212Y-54265752D01*
X95877262Y-54248297D01*
X96050559Y-54225768D01*
X96223162Y-54198675D01*
X96395132Y-54167530D01*
X96566529Y-54132843D01*
X96737412Y-54095126D01*
X96907843Y-54054891D01*
X98247224Y-53725539D01*
X98379758Y-53694612D01*
X98512671Y-53665622D01*
X98645975Y-53638757D01*
X98779684Y-53614204D01*
X98913812Y-53592152D01*
X99048374Y-53572787D01*
X99183383Y-53556296D01*
X99318852Y-53542869D01*
X99515886Y-53529393D01*
X99614118Y-53525621D01*
X99712142Y-53523972D01*
X99809942Y-53524553D01*
G37*
D11*
X104606517Y-61475062D02*
X104701755Y-61427443D01*
X104701755Y-61427443D02*
X104844612Y-61427443D01*
X104844612Y-61427443D02*
X104987469Y-61475062D01*
X104987469Y-61475062D02*
X105082707Y-61570300D01*
X105082707Y-61570300D02*
X105130326Y-61665538D01*
X105130326Y-61665538D02*
X105177945Y-61856014D01*
X105177945Y-61856014D02*
X105177945Y-61998871D01*
X105177945Y-61998871D02*
X105130326Y-62189347D01*
X105130326Y-62189347D02*
X105082707Y-62284585D01*
X105082707Y-62284585D02*
X104987469Y-62379824D01*
X104987469Y-62379824D02*
X104844612Y-62427443D01*
X104844612Y-62427443D02*
X104749374Y-62427443D01*
X104749374Y-62427443D02*
X104606517Y-62379824D01*
X104606517Y-62379824D02*
X104558898Y-62332204D01*
X104558898Y-62332204D02*
X104558898Y-61998871D01*
X104558898Y-61998871D02*
X104749374Y-61998871D01*
X103987469Y-62427443D02*
X104082707Y-62379824D01*
X104082707Y-62379824D02*
X104130326Y-62332204D01*
X104130326Y-62332204D02*
X104177945Y-62236966D01*
X104177945Y-62236966D02*
X104177945Y-61951252D01*
X104177945Y-61951252D02*
X104130326Y-61856014D01*
X104130326Y-61856014D02*
X104082707Y-61808395D01*
X104082707Y-61808395D02*
X103987469Y-61760776D01*
X103987469Y-61760776D02*
X103844612Y-61760776D01*
X103844612Y-61760776D02*
X103749374Y-61808395D01*
X103749374Y-61808395D02*
X103701755Y-61856014D01*
X103701755Y-61856014D02*
X103654136Y-61951252D01*
X103654136Y-61951252D02*
X103654136Y-62236966D01*
X103654136Y-62236966D02*
X103701755Y-62332204D01*
X103701755Y-62332204D02*
X103749374Y-62379824D01*
X103749374Y-62379824D02*
X103844612Y-62427443D01*
X103844612Y-62427443D02*
X103987469Y-62427443D01*
X103082707Y-62427443D02*
X103177945Y-62379824D01*
X103177945Y-62379824D02*
X103225564Y-62284585D01*
X103225564Y-62284585D02*
X103225564Y-61427443D01*
X102273183Y-62427443D02*
X102273183Y-61427443D01*
X102273183Y-62379824D02*
X102368421Y-62427443D01*
X102368421Y-62427443D02*
X102558897Y-62427443D01*
X102558897Y-62427443D02*
X102654135Y-62379824D01*
X102654135Y-62379824D02*
X102701754Y-62332204D01*
X102701754Y-62332204D02*
X102749373Y-62236966D01*
X102749373Y-62236966D02*
X102749373Y-61951252D01*
X102749373Y-61951252D02*
X102701754Y-61856014D01*
X102701754Y-61856014D02*
X102654135Y-61808395D01*
X102654135Y-61808395D02*
X102558897Y-61760776D01*
X102558897Y-61760776D02*
X102368421Y-61760776D01*
X102368421Y-61760776D02*
X102273183Y-61808395D01*
X101416040Y-62379824D02*
X101511278Y-62427443D01*
X101511278Y-62427443D02*
X101701754Y-62427443D01*
X101701754Y-62427443D02*
X101796992Y-62379824D01*
X101796992Y-62379824D02*
X101844611Y-62284585D01*
X101844611Y-62284585D02*
X101844611Y-61903633D01*
X101844611Y-61903633D02*
X101796992Y-61808395D01*
X101796992Y-61808395D02*
X101701754Y-61760776D01*
X101701754Y-61760776D02*
X101511278Y-61760776D01*
X101511278Y-61760776D02*
X101416040Y-61808395D01*
X101416040Y-61808395D02*
X101368421Y-61903633D01*
X101368421Y-61903633D02*
X101368421Y-61998871D01*
X101368421Y-61998871D02*
X101844611Y-62094109D01*
X100939849Y-61760776D02*
X100939849Y-62427443D01*
X100939849Y-61856014D02*
X100892230Y-61808395D01*
X100892230Y-61808395D02*
X100796992Y-61760776D01*
X100796992Y-61760776D02*
X100654135Y-61760776D01*
X100654135Y-61760776D02*
X100558897Y-61808395D01*
X100558897Y-61808395D02*
X100511278Y-61903633D01*
X100511278Y-61903633D02*
X100511278Y-62427443D01*
X99701754Y-61903633D02*
X100035087Y-61903633D01*
X100035087Y-62427443D02*
X100035087Y-61427443D01*
X100035087Y-61427443D02*
X99558897Y-61427443D01*
X99035087Y-62427443D02*
X99130325Y-62379824D01*
X99130325Y-62379824D02*
X99177944Y-62332204D01*
X99177944Y-62332204D02*
X99225563Y-62236966D01*
X99225563Y-62236966D02*
X99225563Y-61951252D01*
X99225563Y-61951252D02*
X99177944Y-61856014D01*
X99177944Y-61856014D02*
X99130325Y-61808395D01*
X99130325Y-61808395D02*
X99035087Y-61760776D01*
X99035087Y-61760776D02*
X98892230Y-61760776D01*
X98892230Y-61760776D02*
X98796992Y-61808395D01*
X98796992Y-61808395D02*
X98749373Y-61856014D01*
X98749373Y-61856014D02*
X98701754Y-61951252D01*
X98701754Y-61951252D02*
X98701754Y-62236966D01*
X98701754Y-62236966D02*
X98749373Y-62332204D01*
X98749373Y-62332204D02*
X98796992Y-62379824D01*
X98796992Y-62379824D02*
X98892230Y-62427443D01*
X98892230Y-62427443D02*
X99035087Y-62427443D01*
X98273182Y-62427443D02*
X98273182Y-61760776D01*
X98273182Y-61951252D02*
X98225563Y-61856014D01*
X98225563Y-61856014D02*
X98177944Y-61808395D01*
X98177944Y-61808395D02*
X98082706Y-61760776D01*
X98082706Y-61760776D02*
X97987468Y-61760776D01*
X97654134Y-62427443D02*
X97654134Y-61760776D01*
X97654134Y-61856014D02*
X97606515Y-61808395D01*
X97606515Y-61808395D02*
X97511277Y-61760776D01*
X97511277Y-61760776D02*
X97368420Y-61760776D01*
X97368420Y-61760776D02*
X97273182Y-61808395D01*
X97273182Y-61808395D02*
X97225563Y-61903633D01*
X97225563Y-61903633D02*
X97225563Y-62427443D01*
X97225563Y-61903633D02*
X97177944Y-61808395D01*
X97177944Y-61808395D02*
X97082706Y-61760776D01*
X97082706Y-61760776D02*
X96939849Y-61760776D01*
X96939849Y-61760776D02*
X96844610Y-61808395D01*
X96844610Y-61808395D02*
X96796991Y-61903633D01*
X96796991Y-61903633D02*
X96796991Y-62427443D01*
X95558896Y-62046490D02*
X94796992Y-62046490D01*
X93701753Y-61427443D02*
X93368420Y-62427443D01*
X93368420Y-62427443D02*
X93035087Y-61427443D01*
X92177944Y-62427443D02*
X92749372Y-62427443D01*
X92463658Y-62427443D02*
X92463658Y-61427443D01*
X92463658Y-61427443D02*
X92558896Y-61570300D01*
X92558896Y-61570300D02*
X92654134Y-61665538D01*
X92654134Y-61665538D02*
X92749372Y-61713157D01*
X105177945Y-63751672D02*
X104701755Y-63751672D01*
X105273183Y-64037387D02*
X104939850Y-63037387D01*
X104939850Y-63037387D02*
X104606517Y-64037387D01*
X104416040Y-63370720D02*
X104035088Y-63370720D01*
X104273183Y-63037387D02*
X104273183Y-63894529D01*
X104273183Y-63894529D02*
X104225564Y-63989768D01*
X104225564Y-63989768D02*
X104130326Y-64037387D01*
X104130326Y-64037387D02*
X104035088Y-64037387D01*
X103701754Y-64037387D02*
X103701754Y-63037387D01*
X103273183Y-64037387D02*
X103273183Y-63513577D01*
X103273183Y-63513577D02*
X103320802Y-63418339D01*
X103320802Y-63418339D02*
X103416040Y-63370720D01*
X103416040Y-63370720D02*
X103558897Y-63370720D01*
X103558897Y-63370720D02*
X103654135Y-63418339D01*
X103654135Y-63418339D02*
X103701754Y-63465958D01*
X102368421Y-64037387D02*
X102368421Y-63513577D01*
X102368421Y-63513577D02*
X102416040Y-63418339D01*
X102416040Y-63418339D02*
X102511278Y-63370720D01*
X102511278Y-63370720D02*
X102701754Y-63370720D01*
X102701754Y-63370720D02*
X102796992Y-63418339D01*
X102368421Y-63989768D02*
X102463659Y-64037387D01*
X102463659Y-64037387D02*
X102701754Y-64037387D01*
X102701754Y-64037387D02*
X102796992Y-63989768D01*
X102796992Y-63989768D02*
X102844611Y-63894529D01*
X102844611Y-63894529D02*
X102844611Y-63799291D01*
X102844611Y-63799291D02*
X102796992Y-63704053D01*
X102796992Y-63704053D02*
X102701754Y-63656434D01*
X102701754Y-63656434D02*
X102463659Y-63656434D01*
X102463659Y-63656434D02*
X102368421Y-63608815D01*
X101892230Y-64037387D02*
X101892230Y-63370720D01*
X101892230Y-63561196D02*
X101844611Y-63465958D01*
X101844611Y-63465958D02*
X101796992Y-63418339D01*
X101796992Y-63418339D02*
X101701754Y-63370720D01*
X101701754Y-63370720D02*
X101606516Y-63370720D01*
X101368420Y-63370720D02*
X101130325Y-64037387D01*
X101130325Y-64037387D02*
X100892230Y-63370720D01*
X100082706Y-64037387D02*
X100082706Y-63513577D01*
X100082706Y-63513577D02*
X100130325Y-63418339D01*
X100130325Y-63418339D02*
X100225563Y-63370720D01*
X100225563Y-63370720D02*
X100416039Y-63370720D01*
X100416039Y-63370720D02*
X100511277Y-63418339D01*
X100082706Y-63989768D02*
X100177944Y-64037387D01*
X100177944Y-64037387D02*
X100416039Y-64037387D01*
X100416039Y-64037387D02*
X100511277Y-63989768D01*
X100511277Y-63989768D02*
X100558896Y-63894529D01*
X100558896Y-63894529D02*
X100558896Y-63799291D01*
X100558896Y-63799291D02*
X100511277Y-63704053D01*
X100511277Y-63704053D02*
X100416039Y-63656434D01*
X100416039Y-63656434D02*
X100177944Y-63656434D01*
X100177944Y-63656434D02*
X100082706Y-63608815D01*
X98511277Y-63513577D02*
X98368420Y-63561196D01*
X98368420Y-63561196D02*
X98320801Y-63608815D01*
X98320801Y-63608815D02*
X98273182Y-63704053D01*
X98273182Y-63704053D02*
X98273182Y-63846910D01*
X98273182Y-63846910D02*
X98320801Y-63942148D01*
X98320801Y-63942148D02*
X98368420Y-63989768D01*
X98368420Y-63989768D02*
X98463658Y-64037387D01*
X98463658Y-64037387D02*
X98844610Y-64037387D01*
X98844610Y-64037387D02*
X98844610Y-63037387D01*
X98844610Y-63037387D02*
X98511277Y-63037387D01*
X98511277Y-63037387D02*
X98416039Y-63085006D01*
X98416039Y-63085006D02*
X98368420Y-63132625D01*
X98368420Y-63132625D02*
X98320801Y-63227863D01*
X98320801Y-63227863D02*
X98320801Y-63323101D01*
X98320801Y-63323101D02*
X98368420Y-63418339D01*
X98368420Y-63418339D02*
X98416039Y-63465958D01*
X98416039Y-63465958D02*
X98511277Y-63513577D01*
X98511277Y-63513577D02*
X98844610Y-63513577D01*
X97844610Y-64037387D02*
X97844610Y-63037387D01*
X97416039Y-64037387D02*
X97416039Y-63513577D01*
X97416039Y-63513577D02*
X97463658Y-63418339D01*
X97463658Y-63418339D02*
X97558896Y-63370720D01*
X97558896Y-63370720D02*
X97701753Y-63370720D01*
X97701753Y-63370720D02*
X97796991Y-63418339D01*
X97796991Y-63418339D02*
X97844610Y-63465958D01*
X96939848Y-64037387D02*
X96939848Y-63370720D01*
X96939848Y-63037387D02*
X96987467Y-63085006D01*
X96987467Y-63085006D02*
X96939848Y-63132625D01*
X96939848Y-63132625D02*
X96892229Y-63085006D01*
X96892229Y-63085006D02*
X96939848Y-63037387D01*
X96939848Y-63037387D02*
X96939848Y-63132625D01*
X96035087Y-64037387D02*
X96035087Y-63037387D01*
X96035087Y-63989768D02*
X96130325Y-64037387D01*
X96130325Y-64037387D02*
X96320801Y-64037387D01*
X96320801Y-64037387D02*
X96416039Y-63989768D01*
X96416039Y-63989768D02*
X96463658Y-63942148D01*
X96463658Y-63942148D02*
X96511277Y-63846910D01*
X96511277Y-63846910D02*
X96511277Y-63561196D01*
X96511277Y-63561196D02*
X96463658Y-63465958D01*
X96463658Y-63465958D02*
X96416039Y-63418339D01*
X96416039Y-63418339D02*
X96320801Y-63370720D01*
X96320801Y-63370720D02*
X96130325Y-63370720D01*
X96130325Y-63370720D02*
X96035087Y-63418339D01*
X95177944Y-63989768D02*
X95273182Y-64037387D01*
X95273182Y-64037387D02*
X95463658Y-64037387D01*
X95463658Y-64037387D02*
X95558896Y-63989768D01*
X95558896Y-63989768D02*
X95606515Y-63894529D01*
X95606515Y-63894529D02*
X95606515Y-63513577D01*
X95606515Y-63513577D02*
X95558896Y-63418339D01*
X95558896Y-63418339D02*
X95463658Y-63370720D01*
X95463658Y-63370720D02*
X95273182Y-63370720D01*
X95273182Y-63370720D02*
X95177944Y-63418339D01*
X95177944Y-63418339D02*
X95130325Y-63513577D01*
X95130325Y-63513577D02*
X95130325Y-63608815D01*
X95130325Y-63608815D02*
X95606515Y-63704053D01*
X105177945Y-65361616D02*
X104701755Y-65361616D01*
X105273183Y-65647331D02*
X104939850Y-64647331D01*
X104939850Y-64647331D02*
X104606517Y-65647331D01*
X104273183Y-65647331D02*
X104273183Y-64980664D01*
X104273183Y-65171140D02*
X104225564Y-65075902D01*
X104225564Y-65075902D02*
X104177945Y-65028283D01*
X104177945Y-65028283D02*
X104082707Y-64980664D01*
X104082707Y-64980664D02*
X103987469Y-64980664D01*
X103654135Y-65647331D02*
X103654135Y-64980664D01*
X103654135Y-65075902D02*
X103606516Y-65028283D01*
X103606516Y-65028283D02*
X103511278Y-64980664D01*
X103511278Y-64980664D02*
X103368421Y-64980664D01*
X103368421Y-64980664D02*
X103273183Y-65028283D01*
X103273183Y-65028283D02*
X103225564Y-65123521D01*
X103225564Y-65123521D02*
X103225564Y-65647331D01*
X103225564Y-65123521D02*
X103177945Y-65028283D01*
X103177945Y-65028283D02*
X103082707Y-64980664D01*
X103082707Y-64980664D02*
X102939850Y-64980664D01*
X102939850Y-64980664D02*
X102844611Y-65028283D01*
X102844611Y-65028283D02*
X102796992Y-65123521D01*
X102796992Y-65123521D02*
X102796992Y-65647331D01*
X101892231Y-65647331D02*
X101892231Y-65123521D01*
X101892231Y-65123521D02*
X101939850Y-65028283D01*
X101939850Y-65028283D02*
X102035088Y-64980664D01*
X102035088Y-64980664D02*
X102225564Y-64980664D01*
X102225564Y-64980664D02*
X102320802Y-65028283D01*
X101892231Y-65599712D02*
X101987469Y-65647331D01*
X101987469Y-65647331D02*
X102225564Y-65647331D01*
X102225564Y-65647331D02*
X102320802Y-65599712D01*
X102320802Y-65599712D02*
X102368421Y-65504473D01*
X102368421Y-65504473D02*
X102368421Y-65409235D01*
X102368421Y-65409235D02*
X102320802Y-65313997D01*
X102320802Y-65313997D02*
X102225564Y-65266378D01*
X102225564Y-65266378D02*
X101987469Y-65266378D01*
X101987469Y-65266378D02*
X101892231Y-65218759D01*
X100987469Y-65647331D02*
X100987469Y-65123521D01*
X100987469Y-65123521D02*
X101035088Y-65028283D01*
X101035088Y-65028283D02*
X101130326Y-64980664D01*
X101130326Y-64980664D02*
X101320802Y-64980664D01*
X101320802Y-64980664D02*
X101416040Y-65028283D01*
X100987469Y-65599712D02*
X101082707Y-65647331D01*
X101082707Y-65647331D02*
X101320802Y-65647331D01*
X101320802Y-65647331D02*
X101416040Y-65599712D01*
X101416040Y-65599712D02*
X101463659Y-65504473D01*
X101463659Y-65504473D02*
X101463659Y-65409235D01*
X101463659Y-65409235D02*
X101416040Y-65313997D01*
X101416040Y-65313997D02*
X101320802Y-65266378D01*
X101320802Y-65266378D02*
X101082707Y-65266378D01*
X101082707Y-65266378D02*
X100987469Y-65218759D01*
X100511278Y-64980664D02*
X100511278Y-65647331D01*
X100511278Y-65075902D02*
X100463659Y-65028283D01*
X100463659Y-65028283D02*
X100368421Y-64980664D01*
X100368421Y-64980664D02*
X100225564Y-64980664D01*
X100225564Y-64980664D02*
X100130326Y-65028283D01*
X100130326Y-65028283D02*
X100082707Y-65123521D01*
X100082707Y-65123521D02*
X100082707Y-65647331D01*
X98844611Y-65647331D02*
X98844611Y-64647331D01*
X98273183Y-65647331D02*
X98701754Y-65075902D01*
X98273183Y-64647331D02*
X98844611Y-65218759D01*
X97416040Y-65647331D02*
X97416040Y-65123521D01*
X97416040Y-65123521D02*
X97463659Y-65028283D01*
X97463659Y-65028283D02*
X97558897Y-64980664D01*
X97558897Y-64980664D02*
X97749373Y-64980664D01*
X97749373Y-64980664D02*
X97844611Y-65028283D01*
X97416040Y-65599712D02*
X97511278Y-65647331D01*
X97511278Y-65647331D02*
X97749373Y-65647331D01*
X97749373Y-65647331D02*
X97844611Y-65599712D01*
X97844611Y-65599712D02*
X97892230Y-65504473D01*
X97892230Y-65504473D02*
X97892230Y-65409235D01*
X97892230Y-65409235D02*
X97844611Y-65313997D01*
X97844611Y-65313997D02*
X97749373Y-65266378D01*
X97749373Y-65266378D02*
X97511278Y-65266378D01*
X97511278Y-65266378D02*
X97416040Y-65218759D01*
X96939849Y-64980664D02*
X96939849Y-65647331D01*
X96939849Y-65075902D02*
X96892230Y-65028283D01*
X96892230Y-65028283D02*
X96796992Y-64980664D01*
X96796992Y-64980664D02*
X96654135Y-64980664D01*
X96654135Y-64980664D02*
X96558897Y-65028283D01*
X96558897Y-65028283D02*
X96511278Y-65123521D01*
X96511278Y-65123521D02*
X96511278Y-65647331D01*
X95606516Y-65599712D02*
X95701754Y-65647331D01*
X95701754Y-65647331D02*
X95892230Y-65647331D01*
X95892230Y-65647331D02*
X95987468Y-65599712D01*
X95987468Y-65599712D02*
X96035087Y-65552092D01*
X96035087Y-65552092D02*
X96082706Y-65456854D01*
X96082706Y-65456854D02*
X96082706Y-65171140D01*
X96082706Y-65171140D02*
X96035087Y-65075902D01*
X96035087Y-65075902D02*
X95987468Y-65028283D01*
X95987468Y-65028283D02*
X95892230Y-64980664D01*
X95892230Y-64980664D02*
X95701754Y-64980664D01*
X95701754Y-64980664D02*
X95606516Y-65028283D01*
X95177944Y-65647331D02*
X95177944Y-64647331D01*
X94749373Y-65647331D02*
X94749373Y-65123521D01*
X94749373Y-65123521D02*
X94796992Y-65028283D01*
X94796992Y-65028283D02*
X94892230Y-64980664D01*
X94892230Y-64980664D02*
X95035087Y-64980664D01*
X95035087Y-64980664D02*
X95130325Y-65028283D01*
X95130325Y-65028283D02*
X95177944Y-65075902D01*
X93844611Y-65647331D02*
X93844611Y-65123521D01*
X93844611Y-65123521D02*
X93892230Y-65028283D01*
X93892230Y-65028283D02*
X93987468Y-64980664D01*
X93987468Y-64980664D02*
X94177944Y-64980664D01*
X94177944Y-64980664D02*
X94273182Y-65028283D01*
X93844611Y-65599712D02*
X93939849Y-65647331D01*
X93939849Y-65647331D02*
X94177944Y-65647331D01*
X94177944Y-65647331D02*
X94273182Y-65599712D01*
X94273182Y-65599712D02*
X94320801Y-65504473D01*
X94320801Y-65504473D02*
X94320801Y-65409235D01*
X94320801Y-65409235D02*
X94273182Y-65313997D01*
X94273182Y-65313997D02*
X94177944Y-65266378D01*
X94177944Y-65266378D02*
X93939849Y-65266378D01*
X93939849Y-65266378D02*
X93844611Y-65218759D01*
X93368420Y-64980664D02*
X93368420Y-65647331D01*
X93368420Y-65075902D02*
X93320801Y-65028283D01*
X93320801Y-65028283D02*
X93225563Y-64980664D01*
X93225563Y-64980664D02*
X93082706Y-64980664D01*
X93082706Y-64980664D02*
X92987468Y-65028283D01*
X92987468Y-65028283D02*
X92939849Y-65123521D01*
X92939849Y-65123521D02*
X92939849Y-65647331D01*
X105130326Y-67257275D02*
X105130326Y-66257275D01*
X105130326Y-66257275D02*
X104558898Y-67257275D01*
X104558898Y-67257275D02*
X104558898Y-66257275D01*
X104082707Y-67257275D02*
X104082707Y-66590608D01*
X104082707Y-66257275D02*
X104130326Y-66304894D01*
X104130326Y-66304894D02*
X104082707Y-66352513D01*
X104082707Y-66352513D02*
X104035088Y-66304894D01*
X104035088Y-66304894D02*
X104082707Y-66257275D01*
X104082707Y-66257275D02*
X104082707Y-66352513D01*
X103606517Y-67257275D02*
X103606517Y-66257275D01*
X103511279Y-66876322D02*
X103225565Y-67257275D01*
X103225565Y-66590608D02*
X103606517Y-66971560D01*
X102796993Y-67257275D02*
X102796993Y-66257275D01*
X102368422Y-67257275D02*
X102368422Y-66733465D01*
X102368422Y-66733465D02*
X102416041Y-66638227D01*
X102416041Y-66638227D02*
X102511279Y-66590608D01*
X102511279Y-66590608D02*
X102654136Y-66590608D01*
X102654136Y-66590608D02*
X102749374Y-66638227D01*
X102749374Y-66638227D02*
X102796993Y-66685846D01*
X101892231Y-67257275D02*
X101892231Y-66590608D01*
X101892231Y-66257275D02*
X101939850Y-66304894D01*
X101939850Y-66304894D02*
X101892231Y-66352513D01*
X101892231Y-66352513D02*
X101844612Y-66304894D01*
X101844612Y-66304894D02*
X101892231Y-66257275D01*
X101892231Y-66257275D02*
X101892231Y-66352513D01*
X101273184Y-67257275D02*
X101368422Y-67209656D01*
X101368422Y-67209656D02*
X101416041Y-67114417D01*
X101416041Y-67114417D02*
X101416041Y-66257275D01*
X99558898Y-67162036D02*
X99606517Y-67209656D01*
X99606517Y-67209656D02*
X99749374Y-67257275D01*
X99749374Y-67257275D02*
X99844612Y-67257275D01*
X99844612Y-67257275D02*
X99987469Y-67209656D01*
X99987469Y-67209656D02*
X100082707Y-67114417D01*
X100082707Y-67114417D02*
X100130326Y-67019179D01*
X100130326Y-67019179D02*
X100177945Y-66828703D01*
X100177945Y-66828703D02*
X100177945Y-66685846D01*
X100177945Y-66685846D02*
X100130326Y-66495370D01*
X100130326Y-66495370D02*
X100082707Y-66400132D01*
X100082707Y-66400132D02*
X99987469Y-66304894D01*
X99987469Y-66304894D02*
X99844612Y-66257275D01*
X99844612Y-66257275D02*
X99749374Y-66257275D01*
X99749374Y-66257275D02*
X99606517Y-66304894D01*
X99606517Y-66304894D02*
X99558898Y-66352513D01*
X99130326Y-67257275D02*
X99130326Y-66257275D01*
X98701755Y-67257275D02*
X98701755Y-66733465D01*
X98701755Y-66733465D02*
X98749374Y-66638227D01*
X98749374Y-66638227D02*
X98844612Y-66590608D01*
X98844612Y-66590608D02*
X98987469Y-66590608D01*
X98987469Y-66590608D02*
X99082707Y-66638227D01*
X99082707Y-66638227D02*
X99130326Y-66685846D01*
X97796993Y-67257275D02*
X97796993Y-66733465D01*
X97796993Y-66733465D02*
X97844612Y-66638227D01*
X97844612Y-66638227D02*
X97939850Y-66590608D01*
X97939850Y-66590608D02*
X98130326Y-66590608D01*
X98130326Y-66590608D02*
X98225564Y-66638227D01*
X97796993Y-67209656D02*
X97892231Y-67257275D01*
X97892231Y-67257275D02*
X98130326Y-67257275D01*
X98130326Y-67257275D02*
X98225564Y-67209656D01*
X98225564Y-67209656D02*
X98273183Y-67114417D01*
X98273183Y-67114417D02*
X98273183Y-67019179D01*
X98273183Y-67019179D02*
X98225564Y-66923941D01*
X98225564Y-66923941D02*
X98130326Y-66876322D01*
X98130326Y-66876322D02*
X97892231Y-66876322D01*
X97892231Y-66876322D02*
X97796993Y-66828703D01*
X96892231Y-66590608D02*
X96892231Y-67257275D01*
X97320802Y-66590608D02*
X97320802Y-67114417D01*
X97320802Y-67114417D02*
X97273183Y-67209656D01*
X97273183Y-67209656D02*
X97177945Y-67257275D01*
X97177945Y-67257275D02*
X97035088Y-67257275D01*
X97035088Y-67257275D02*
X96939850Y-67209656D01*
X96939850Y-67209656D02*
X96892231Y-67162036D01*
X95987469Y-67257275D02*
X95987469Y-66257275D01*
X95987469Y-67209656D02*
X96082707Y-67257275D01*
X96082707Y-67257275D02*
X96273183Y-67257275D01*
X96273183Y-67257275D02*
X96368421Y-67209656D01*
X96368421Y-67209656D02*
X96416040Y-67162036D01*
X96416040Y-67162036D02*
X96463659Y-67066798D01*
X96463659Y-67066798D02*
X96463659Y-66781084D01*
X96463659Y-66781084D02*
X96416040Y-66685846D01*
X96416040Y-66685846D02*
X96368421Y-66638227D01*
X96368421Y-66638227D02*
X96273183Y-66590608D01*
X96273183Y-66590608D02*
X96082707Y-66590608D01*
X96082707Y-66590608D02*
X95987469Y-66638227D01*
X95511278Y-67257275D02*
X95511278Y-66257275D01*
X95082707Y-67257275D02*
X95082707Y-66733465D01*
X95082707Y-66733465D02*
X95130326Y-66638227D01*
X95130326Y-66638227D02*
X95225564Y-66590608D01*
X95225564Y-66590608D02*
X95368421Y-66590608D01*
X95368421Y-66590608D02*
X95463659Y-66638227D01*
X95463659Y-66638227D02*
X95511278Y-66685846D01*
X94177945Y-67257275D02*
X94177945Y-66733465D01*
X94177945Y-66733465D02*
X94225564Y-66638227D01*
X94225564Y-66638227D02*
X94320802Y-66590608D01*
X94320802Y-66590608D02*
X94511278Y-66590608D01*
X94511278Y-66590608D02*
X94606516Y-66638227D01*
X94177945Y-67209656D02*
X94273183Y-67257275D01*
X94273183Y-67257275D02*
X94511278Y-67257275D01*
X94511278Y-67257275D02*
X94606516Y-67209656D01*
X94606516Y-67209656D02*
X94654135Y-67114417D01*
X94654135Y-67114417D02*
X94654135Y-67019179D01*
X94654135Y-67019179D02*
X94606516Y-66923941D01*
X94606516Y-66923941D02*
X94511278Y-66876322D01*
X94511278Y-66876322D02*
X94273183Y-66876322D01*
X94273183Y-66876322D02*
X94177945Y-66828703D01*
X93701754Y-67257275D02*
X93701754Y-66590608D01*
X93701754Y-66781084D02*
X93654135Y-66685846D01*
X93654135Y-66685846D02*
X93606516Y-66638227D01*
X93606516Y-66638227D02*
X93511278Y-66590608D01*
X93511278Y-66590608D02*
X93416040Y-66590608D01*
X93177944Y-66590608D02*
X92939849Y-67257275D01*
X92701754Y-66590608D02*
X92939849Y-67257275D01*
X92939849Y-67257275D02*
X93035087Y-67495370D01*
X93035087Y-67495370D02*
X93082706Y-67542989D01*
X93082706Y-67542989D02*
X93177944Y-67590608D01*
X105177945Y-68581504D02*
X104701755Y-68581504D01*
X105273183Y-68867219D02*
X104939850Y-67867219D01*
X104939850Y-67867219D02*
X104606517Y-68867219D01*
X103844612Y-68867219D02*
X103844612Y-68343409D01*
X103844612Y-68343409D02*
X103892231Y-68248171D01*
X103892231Y-68248171D02*
X103987469Y-68200552D01*
X103987469Y-68200552D02*
X104177945Y-68200552D01*
X104177945Y-68200552D02*
X104273183Y-68248171D01*
X103844612Y-68819600D02*
X103939850Y-68867219D01*
X103939850Y-68867219D02*
X104177945Y-68867219D01*
X104177945Y-68867219D02*
X104273183Y-68819600D01*
X104273183Y-68819600D02*
X104320802Y-68724361D01*
X104320802Y-68724361D02*
X104320802Y-68629123D01*
X104320802Y-68629123D02*
X104273183Y-68533885D01*
X104273183Y-68533885D02*
X104177945Y-68486266D01*
X104177945Y-68486266D02*
X103939850Y-68486266D01*
X103939850Y-68486266D02*
X103844612Y-68438647D01*
X103368421Y-68867219D02*
X103368421Y-67867219D01*
X103273183Y-68486266D02*
X102987469Y-68867219D01*
X102987469Y-68200552D02*
X103368421Y-68581504D01*
X102130326Y-68867219D02*
X102130326Y-68343409D01*
X102130326Y-68343409D02*
X102177945Y-68248171D01*
X102177945Y-68248171D02*
X102273183Y-68200552D01*
X102273183Y-68200552D02*
X102463659Y-68200552D01*
X102463659Y-68200552D02*
X102558897Y-68248171D01*
X102130326Y-68819600D02*
X102225564Y-68867219D01*
X102225564Y-68867219D02*
X102463659Y-68867219D01*
X102463659Y-68867219D02*
X102558897Y-68819600D01*
X102558897Y-68819600D02*
X102606516Y-68724361D01*
X102606516Y-68724361D02*
X102606516Y-68629123D01*
X102606516Y-68629123D02*
X102558897Y-68533885D01*
X102558897Y-68533885D02*
X102463659Y-68486266D01*
X102463659Y-68486266D02*
X102225564Y-68486266D01*
X102225564Y-68486266D02*
X102130326Y-68438647D01*
X101701754Y-68819600D02*
X101606516Y-68867219D01*
X101606516Y-68867219D02*
X101416040Y-68867219D01*
X101416040Y-68867219D02*
X101320802Y-68819600D01*
X101320802Y-68819600D02*
X101273183Y-68724361D01*
X101273183Y-68724361D02*
X101273183Y-68676742D01*
X101273183Y-68676742D02*
X101320802Y-68581504D01*
X101320802Y-68581504D02*
X101416040Y-68533885D01*
X101416040Y-68533885D02*
X101558897Y-68533885D01*
X101558897Y-68533885D02*
X101654135Y-68486266D01*
X101654135Y-68486266D02*
X101701754Y-68391028D01*
X101701754Y-68391028D02*
X101701754Y-68343409D01*
X101701754Y-68343409D02*
X101654135Y-68248171D01*
X101654135Y-68248171D02*
X101558897Y-68200552D01*
X101558897Y-68200552D02*
X101416040Y-68200552D01*
X101416040Y-68200552D02*
X101320802Y-68248171D01*
X100844611Y-68867219D02*
X100844611Y-67867219D01*
X100416040Y-68867219D02*
X100416040Y-68343409D01*
X100416040Y-68343409D02*
X100463659Y-68248171D01*
X100463659Y-68248171D02*
X100558897Y-68200552D01*
X100558897Y-68200552D02*
X100701754Y-68200552D01*
X100701754Y-68200552D02*
X100796992Y-68248171D01*
X100796992Y-68248171D02*
X100844611Y-68295790D01*
X98844611Y-68343409D02*
X98701754Y-68391028D01*
X98701754Y-68391028D02*
X98654135Y-68438647D01*
X98654135Y-68438647D02*
X98606516Y-68533885D01*
X98606516Y-68533885D02*
X98606516Y-68676742D01*
X98606516Y-68676742D02*
X98654135Y-68771980D01*
X98654135Y-68771980D02*
X98701754Y-68819600D01*
X98701754Y-68819600D02*
X98796992Y-68867219D01*
X98796992Y-68867219D02*
X99177944Y-68867219D01*
X99177944Y-68867219D02*
X99177944Y-67867219D01*
X99177944Y-67867219D02*
X98844611Y-67867219D01*
X98844611Y-67867219D02*
X98749373Y-67914838D01*
X98749373Y-67914838D02*
X98701754Y-67962457D01*
X98701754Y-67962457D02*
X98654135Y-68057695D01*
X98654135Y-68057695D02*
X98654135Y-68152933D01*
X98654135Y-68152933D02*
X98701754Y-68248171D01*
X98701754Y-68248171D02*
X98749373Y-68295790D01*
X98749373Y-68295790D02*
X98844611Y-68343409D01*
X98844611Y-68343409D02*
X99177944Y-68343409D01*
X97749373Y-68867219D02*
X97749373Y-68343409D01*
X97749373Y-68343409D02*
X97796992Y-68248171D01*
X97796992Y-68248171D02*
X97892230Y-68200552D01*
X97892230Y-68200552D02*
X98082706Y-68200552D01*
X98082706Y-68200552D02*
X98177944Y-68248171D01*
X97749373Y-68819600D02*
X97844611Y-68867219D01*
X97844611Y-68867219D02*
X98082706Y-68867219D01*
X98082706Y-68867219D02*
X98177944Y-68819600D01*
X98177944Y-68819600D02*
X98225563Y-68724361D01*
X98225563Y-68724361D02*
X98225563Y-68629123D01*
X98225563Y-68629123D02*
X98177944Y-68533885D01*
X98177944Y-68533885D02*
X98082706Y-68486266D01*
X98082706Y-68486266D02*
X97844611Y-68486266D01*
X97844611Y-68486266D02*
X97749373Y-68438647D01*
X97416039Y-68200552D02*
X97035087Y-68200552D01*
X97273182Y-67867219D02*
X97273182Y-68724361D01*
X97273182Y-68724361D02*
X97225563Y-68819600D01*
X97225563Y-68819600D02*
X97130325Y-68867219D01*
X97130325Y-68867219D02*
X97035087Y-68867219D01*
X96701753Y-68867219D02*
X96701753Y-67867219D01*
X96273182Y-68867219D02*
X96273182Y-68343409D01*
X96273182Y-68343409D02*
X96320801Y-68248171D01*
X96320801Y-68248171D02*
X96416039Y-68200552D01*
X96416039Y-68200552D02*
X96558896Y-68200552D01*
X96558896Y-68200552D02*
X96654134Y-68248171D01*
X96654134Y-68248171D02*
X96701753Y-68295790D01*
X95796991Y-68867219D02*
X95796991Y-68200552D01*
X95796991Y-67867219D02*
X95844610Y-67914838D01*
X95844610Y-67914838D02*
X95796991Y-67962457D01*
X95796991Y-67962457D02*
X95749372Y-67914838D01*
X95749372Y-67914838D02*
X95796991Y-67867219D01*
X95796991Y-67867219D02*
X95796991Y-67962457D01*
X95320801Y-68200552D02*
X95320801Y-68867219D01*
X95320801Y-68295790D02*
X95273182Y-68248171D01*
X95273182Y-68248171D02*
X95177944Y-68200552D01*
X95177944Y-68200552D02*
X95035087Y-68200552D01*
X95035087Y-68200552D02*
X94939849Y-68248171D01*
X94939849Y-68248171D02*
X94892230Y-68343409D01*
X94892230Y-68343409D02*
X94892230Y-68867219D01*
X94416039Y-68867219D02*
X94416039Y-68200552D01*
X94416039Y-67867219D02*
X94463658Y-67914838D01*
X94463658Y-67914838D02*
X94416039Y-67962457D01*
X94416039Y-67962457D02*
X94368420Y-67914838D01*
X94368420Y-67914838D02*
X94416039Y-67867219D01*
X94416039Y-67867219D02*
X94416039Y-67962457D01*
D12*
X125392900Y-86500000D02*
G75*
G02*
X124630900Y-86500000I-381000J0D01*
G01*
X124630900Y-86500000D02*
G75*
G02*
X125392900Y-86500000I381000J0D01*
G01*
X74116800Y-65057100D02*
G75*
G02*
X73354800Y-65057100I-381000J0D01*
G01*
X73354800Y-65057100D02*
G75*
G02*
X74116800Y-65057100I381000J0D01*
G01*
D13*
X112022936Y-56715000D02*
X112477064Y-56715000D01*
X112022936Y-58185000D02*
X112477064Y-58185000D01*
X117477064Y-85365000D02*
X117022936Y-85365000D01*
X117477064Y-86835000D02*
X117022936Y-86835000D01*
X107538748Y-85565000D02*
X108061252Y-85565000D01*
X107538748Y-87035000D02*
X108061252Y-87035000D01*
X116765000Y-92972936D02*
X116765000Y-93427064D01*
X118235000Y-92972936D02*
X118235000Y-93427064D01*
X112373752Y-68815000D02*
X111851248Y-68815000D01*
X112373752Y-70285000D02*
X111851248Y-70285000D01*
X112465000Y-53538748D02*
X112465000Y-54061252D01*
X113935000Y-53538748D02*
X113935000Y-54061252D01*
X111872936Y-66715000D02*
X112327064Y-66715000D01*
X111872936Y-68185000D02*
X112327064Y-68185000D01*
X119125000Y-77121252D02*
X119125000Y-76598748D01*
X120595000Y-77121252D02*
X120595000Y-76598748D01*
X110265000Y-53977064D02*
X110265000Y-53522936D01*
X111735000Y-53977064D02*
X111735000Y-53522936D01*
X108027064Y-83315000D02*
X107572936Y-83315000D01*
X108027064Y-84785000D02*
X107572936Y-84785000D01*
X112963748Y-85415000D02*
X113486252Y-85415000D01*
X112963748Y-86885000D02*
X113486252Y-86885000D01*
X116615000Y-77051252D02*
X116615000Y-76528748D01*
X118085000Y-77051252D02*
X118085000Y-76528748D01*
M02*
